<svg width="44" height="45" viewBox="0 0 44 45" fill="none" xmlns="http://www.w3.org/2000/svg">
<path d="M41.6834 11.8076L40.6194 9.96182C39.8161 8.56616 39.4133 7.86832 38.7305 7.59264C37.2013 6.96803 34.6211 8.28186 33.0983 8.71262C31.7479 9.02276 30.5892 8.5877 29.4455 7.92863C28.6718 7.43252 28.0771 6.70197 27.7483 5.84375C27.2874 4.46531 26.9772 2.03798 25.756 1.15707C25.196 0.75 24.4465 0.75 22.9496 0.75H20.5503C19.0534 0.75 18.306 0.75 17.7439 1.15707C16.5227 2.03798 16.2147 4.46531 15.7516 5.84375C15.2928 7.03696 14.3883 7.73479 13.3286 8.34647C12.4264 8.80919 11.3899 8.93885 10.4016 8.71262C8.88097 8.28186 6.29856 6.96803 4.76936 7.59264C4.0866 7.86832 3.68384 8.56616 2.88047 9.96182L1.81649 11.8076C1.06266 13.115 0.685745 13.7676 0.761129 14.4654C0.939894 16.1949 3.45985 18.0881 4.5669 19.3266C5.10966 20.0136 5.49304 21.2111 5.49304 22.288C5.49304 23.365 5.10966 24.5625 4.5669 25.2495C3.45985 26.488 0.939894 28.3812 0.758974 30.1107C0.685745 30.8085 1.06266 31.4611 1.81649 32.7685L2.88047 34.6143C3.68384 36.0099 4.0866 36.7078 4.76936 36.9835C6.29856 37.6081 8.88097 36.2942 10.4016 35.8635C12.5166 35.3767 14.9741 36.7035 15.7516 38.7323C16.2125 40.1108 16.5227 42.5381 17.7439 43.419C18.306 43.8261 19.0534 43.8261 20.5503 43.8261H22.9496C24.4465 43.8261 25.1939 43.8261 25.756 43.419C26.3203 43.012 26.5572 42.3034 27.0289 40.8818C27.5609 39.288 27.9335 37.6145 29.4455 36.6475C30.587 35.9884 31.7479 35.5533 33.0983 35.8635C34.6211 36.2942 37.2013 37.6081 38.7305 36.9835C39.4133 36.7078 39.8161 36.0099 40.6194 34.6143L41.6834 32.7685C42.4372 31.4611 42.8142 30.8085 42.7388 30.1107C42.5579 28.3812 40.0401 26.488 38.933 25.2495C37.6773 23.66 37.6795 20.9161 38.933 19.3266C40.0401 18.0881 42.5579 16.1949 42.7409 14.4654C42.8142 13.7676 42.4372 13.115 41.6834 11.8076Z" stroke="white" stroke-width="1.5" stroke-linecap="round"/>
<path d="M11.9241 28.7322L15.8892 16.8324C15.9883 16.5346 16.1786 16.2755 16.4332 16.092C16.6878 15.9084 16.9937 15.8096 17.3075 15.8096C17.6214 15.8096 17.9272 15.9084 18.1818 16.092C18.4364 16.2755 18.6267 16.5346 18.7258 16.8324L22.6931 28.7322M14.0779 24.4245H20.5393M29.1545 15.8093V28.7322" stroke="white" stroke-width="1.5" stroke-linecap="round" stroke-linejoin="round"/>
</svg>
