<svg width="46" height="47" viewBox="0 0 46 47" fill="none" xmlns="http://www.w3.org/2000/svg">
<path d="M2.66484 27.5281V29.9164C2.66484 30.9578 3.50625 31.8047 4.54062 31.8047H8.13672C8.35156 32.4641 8.61172 33.0992 8.91406 33.7039L6.38125 36.2367C5.66641 36.9516 5.65937 38.1414 6.38125 38.907L10.5766 43.1023C11.3313 43.8359 12.5016 43.8328 13.2398 43.093L15.7617 40.5609C16.3766 40.8672 17.0078 41.1281 17.6711 41.3477V44.9219C17.6711 45.9633 18.5125 46.8102 19.5469 46.8102H25.4781C26.5367 46.8102 27.3664 45.9805 27.3664 44.9219V41.3461C28.043 41.1203 28.6797 40.8586 29.2672 40.5633L31.7898 43.0859C32.482 43.7992 33.7789 43.7914 34.4563 43.0945L38.643 38.9078C39.0133 38.5375 39.2133 38.05 39.2055 37.5359C39.1984 37.0336 38.993 36.5672 38.6453 36.2398L36.1219 33.6961C36.4148 33.1 36.6727 32.475 36.9016 31.8063H40.4828C41.5172 31.8063 42.3586 30.9594 42.3586 29.918V27.5297C43.9023 27.0125 45.0258 25.5695 45.0258 23.8531C45.0258 21.7062 43.2797 19.9602 41.1328 19.9602H40.8984C40.5656 12.0047 35.1992 5.20625 27.532 3.04844L27.6437 0.820312C27.6547 0.607031 27.5773 0.397656 27.4297 0.242969C27.282 0.0874999 27.0773 0 26.8633 0H18.1625C17.9484 0 17.7438 0.0874999 17.5961 0.242969C17.4484 0.397656 17.3711 0.607031 17.382 0.820312L17.4898 3.05078C9.825 5.21406 4.46094 12.0117 4.12734 19.9609H3.89297C1.74609 19.9609 0 21.707 0 23.8539C0 25.5695 1.12266 27.0125 2.66563 27.5297L2.66484 27.5281ZM40.7961 29.9164C40.7961 30.0992 40.6586 30.2422 40.4828 30.2422H36.3336C35.9906 30.2422 35.6875 30.4656 35.5867 30.7938C35.282 31.782 34.9195 32.6594 34.4758 33.4773C34.3023 33.7961 34.3719 34.1922 34.643 34.4336L37.5539 37.3586C37.6258 37.4266 37.6422 37.5055 37.643 37.5586C37.6437 37.6469 37.607 37.7336 37.5375 37.8031L33.3422 41.9984C33.1945 42.1516 33.0656 42.1586 32.9023 41.9898L29.9625 39.05C29.7148 38.8023 29.332 38.75 29.0258 38.9219C28.2484 39.3617 27.3523 39.7328 26.3641 40.0242C26.032 40.1219 25.8039 40.4273 25.8039 40.7734V44.9227C25.8039 45.1148 25.6703 45.2484 25.4781 45.2484H19.5469C19.3711 45.2484 19.2336 45.1047 19.2336 44.9227V40.7734C19.2336 40.4258 19.0047 40.1203 18.6703 40.0234C17.7148 39.7453 16.8375 39.3836 15.9898 38.9172C15.8719 38.8523 15.7422 38.8203 15.6141 38.8203C15.4109 38.8203 15.2102 38.8992 15.0602 39.05L12.1336 41.9891C12.0031 42.1211 11.8063 42.118 11.6734 41.9891L7.50234 37.8188C7.37266 37.6813 7.36563 37.4625 7.48594 37.3414L10.4266 34.4016C10.6734 34.1547 10.7266 33.7742 10.557 33.4688C10.1008 32.65 9.73437 31.7563 9.46797 30.8117C9.37344 30.475 9.06562 30.2422 8.71641 30.2422H4.54141C4.36563 30.2422 4.22813 30.0984 4.22813 29.9164V27.7453H13.6758C14.0734 32.2742 17.882 35.8398 22.5125 35.8398C27.143 35.8398 30.9633 32.2742 31.3617 27.7453H40.7969L40.7961 29.9164ZM15.2398 27.7453H29.7961C29.4047 31.4117 26.2867 34.2773 22.5117 34.2773C18.7367 34.2773 15.6305 31.4125 15.2398 27.7453ZM39.35 19.9594H26.7203L27.0531 13.0094L27.4539 4.63594C29.8437 5.3625 31.9719 6.59453 33.7531 8.18594L31.3508 14.7773C31.2031 15.1828 31.4117 15.6312 31.8172 15.7789C31.9055 15.8117 31.9961 15.8266 32.0844 15.8266C32.4031 15.8266 32.7031 15.6297 32.818 15.3125L34.9781 9.38594C37.5648 12.2219 39.1656 15.9273 39.3492 19.9602L39.35 19.9594ZM26.0414 1.56094L25.9445 3.56875C25.9445 3.57578 25.9398 3.58125 25.9391 3.5875L25.1555 19.9586H19.8688L19.0859 3.5875C19.0859 3.5875 19.0859 3.58672 19.0859 3.58594C19.0859 3.58516 18.9844 1.56016 18.9844 1.56016H26.0422L26.0414 1.56094ZM10.0469 9.3875L12.2063 15.3117C12.3219 15.6289 12.6211 15.8258 12.9398 15.8258C13.0289 15.8258 13.1188 15.8102 13.207 15.7781C13.6125 15.6305 13.8211 15.182 13.6734 14.7766L11.2719 8.1875C13.0516 6.59766 15.1781 5.36563 17.5648 4.63828L18.3031 19.9586H5.67422C5.85781 15.9281 7.45938 12.2234 10.0469 9.3875ZM3.89297 21.5219H41.132C42.4172 21.5219 43.4625 22.5672 43.4625 23.8523C43.4625 25.1375 42.4172 26.1828 41.132 26.1828H3.89219C2.60703 26.1828 1.56172 25.1375 1.56172 23.8523C1.56172 22.5672 2.60703 21.5219 3.89219 21.5219H3.89297Z" fill="white"/>
</svg>
