<svg width="47" height="47" viewBox="0 0 47 47" fill="none" xmlns="http://www.w3.org/2000/svg">
<path d="M21.3569 23.0686C21.2184 23.2613 21.1814 23.5092 21.2553 23.7295L22.6132 27.741C22.7148 28.0439 23.0012 28.2367 23.3153 28.2367C23.3892 28.2367 23.4723 28.2275 23.5554 28.2C23.9434 28.0715 24.1466 27.6584 24.0173 27.2729L22.9827 24.2252H25.0427C25.2828 24.2252 25.5045 24.115 25.6431 23.9223C25.7816 23.7295 25.8186 23.4816 25.7447 23.2613L24.3868 19.2498C24.2575 18.8643 23.8325 18.6623 23.4538 18.7908C23.0658 18.9193 22.8626 19.3324 22.9919 19.718L24.0173 22.7656H21.9573C21.7172 22.7656 21.4955 22.8758 21.3569 23.0686ZM0 32.1197C0 33.5518 1.17315 34.7268 2.62343 34.7268C4.0737 34.7268 5.24686 33.5609 5.24686 32.1197C5.24686 31.4404 4.97897 30.8162 4.54481 30.348L5.83805 28.1174H11.7777V31.8902C11.7777 33.6895 13.2465 35.149 15.057 35.149H18.8536V41.1984L16.6089 42.4836C16.1378 42.0521 15.5189 41.7859 14.8261 41.7859C13.385 41.7859 12.2026 42.9518 12.2026 44.393C12.2026 45.8342 13.385 47 14.8261 47C16.2671 47 17.4495 45.8342 17.4495 44.393C17.4495 44.1727 17.4218 43.9523 17.3664 43.7412L19.9621 42.2541C20.193 42.1256 20.3316 41.8777 20.3316 41.6207V35.1398H22.761V40.9873C21.671 41.3086 20.8766 42.3092 20.8766 43.4842C20.8766 44.9162 22.0497 46.0912 23.5 46.0912C24.9503 46.0912 26.1234 44.9254 26.1234 43.4842C26.1234 42.3 25.329 41.2994 24.239 40.9873V35.1398H26.6684V41.6207C26.6684 41.8869 26.807 42.1256 27.0379 42.2541L29.5875 43.7137C29.5597 43.8514 29.5505 43.9982 29.5505 44.1451C29.5505 45.5771 30.7237 46.7521 32.1739 46.7521C33.615 46.7521 34.7974 45.5863 34.7974 44.1451C34.7974 42.7039 33.6242 41.5381 32.1739 41.5381C31.4072 41.5381 30.7144 41.8686 30.2341 42.3918L28.1464 41.1984V35.149H31.943C33.7535 35.149 35.2223 33.6895 35.2223 31.8902V28.1174H41.1619L42.4552 30.348C42.021 30.8162 41.7531 31.4312 41.7531 32.1197C41.7531 33.5518 42.9263 34.7268 44.3766 34.7268C45.8268 34.7268 47 33.5518 47 32.1197C47 30.6877 45.8268 29.5127 44.3766 29.5127C44.1549 29.5127 43.9332 29.5402 43.7207 29.5953L42.2243 27.0158C42.0949 26.7863 41.8455 26.6486 41.5869 26.6486H35.2131V24.2344H40.9587C41.282 25.3176 42.2889 26.107 43.4713 26.107C44.9123 26.107 46.0947 24.9412 46.0947 23.5C46.0947 22.0588 44.9216 20.893 43.4713 20.893C42.2797 20.893 41.2728 21.6824 40.9587 22.7656H35.2223V20.3514H41.5961C41.864 20.3514 42.1042 20.2137 42.2335 19.9842L43.7022 17.4506C43.8408 17.4781 43.9886 17.4873 44.1364 17.4873C45.5774 17.4873 46.7598 16.3215 46.7598 14.8803C46.7598 13.4482 45.5867 12.2732 44.1364 12.2732C42.6861 12.2732 41.513 13.4391 41.513 14.8803C41.513 15.6422 41.8455 16.3307 42.3721 16.808L41.1712 18.8826H35.2315V15.1098C35.2315 13.3105 33.7628 11.851 31.9522 11.851H28.1557V5.80156L30.2433 4.6082C30.7237 5.13145 31.4165 5.46191 32.1832 5.46191C33.6242 5.46191 34.8066 4.29609 34.8066 2.85488C34.8066 1.41367 33.6335 0.247852 32.1832 0.247852C30.7421 0.247852 29.5597 1.41367 29.5597 2.85488C29.5597 3.00176 29.569 3.13945 29.5967 3.28633L27.0472 4.7459C26.8162 4.87441 26.6777 5.12227 26.6777 5.3793V11.8602H24.239V6.00352C25.329 5.68223 26.1234 4.68164 26.1234 3.50664C26.1234 2.07461 24.9503 0.899609 23.5 0.899609C22.0497 0.899609 20.8766 2.06543 20.8766 3.50664C20.8766 4.69082 21.671 5.69141 22.761 6.00352V11.851H20.3316V5.3793C20.3316 5.11309 20.193 4.87441 19.9621 4.7459L17.3664 3.25879C17.4218 3.04766 17.4495 2.83652 17.4495 2.60703C17.4495 1.175 16.2763 0 14.8261 0C13.3758 0 12.2026 1.16582 12.2026 2.60703C12.2026 4.04824 13.3758 5.21406 14.8261 5.21406C15.5096 5.21406 16.1378 4.94785 16.6089 4.51641L18.8536 5.80156V11.851H15.057C13.2465 11.851 11.7777 13.3105 11.7777 15.1098V18.8826H5.83805L4.63718 16.808C5.16372 16.3307 5.49627 15.6422 5.49627 14.8803C5.49627 13.4482 4.32312 12.2732 2.87284 12.2732C1.4318 12.2732 0.249409 13.4391 0.249409 14.8803C0.249409 16.3123 1.42257 17.4873 2.87284 17.4873C3.02064 17.4873 3.1592 17.4781 3.307 17.4506L4.77575 19.9842C4.90507 20.2137 5.15448 20.3514 5.41313 20.3514H11.787V22.7656H6.04128C5.71796 21.6824 4.71109 20.893 3.52869 20.893C2.08766 20.893 0.905266 22.0588 0.905266 23.5C0.905266 24.9412 2.07842 26.107 3.52869 26.107C4.72032 26.107 5.7272 25.3176 6.04128 24.2344H11.7777V26.6486H5.40389C5.13601 26.6486 4.89584 26.7863 4.76651 27.0158L3.27005 29.5953C3.05759 29.5402 2.84513 29.5127 2.61419 29.5127C1.17315 29.5127 0 30.6785 0 32.1197ZM4.67414 23.5C4.67414 24.1242 4.15684 24.6383 3.52869 24.6383C2.90055 24.6383 2.38326 24.1242 2.38326 23.5C2.38326 22.8758 2.90055 22.3617 3.52869 22.3617C4.15684 22.3617 4.67414 22.8758 4.67414 23.5ZM4.01828 14.8803C4.01828 15.5045 3.50098 16.0186 2.87284 16.0186C2.24469 16.0186 1.7274 15.5045 1.7274 14.8803C1.7274 14.2561 2.24469 13.742 2.87284 13.742C3.50098 13.742 4.01828 14.2561 4.01828 14.8803ZM15.9715 2.60703C15.9715 3.23125 15.4542 3.74531 14.8261 3.74531C14.1979 3.74531 13.6806 3.23125 13.6806 2.60703C13.6806 1.98281 14.1979 1.46875 14.8261 1.46875C15.4542 1.46875 15.9715 1.98281 15.9715 2.60703ZM23.5 4.64492C22.8719 4.64492 22.3546 4.13086 22.3546 3.50664C22.3546 2.88242 22.8719 2.36836 23.5 2.36836C24.1281 2.36836 24.6454 2.88242 24.6454 3.50664C24.6454 4.13086 24.1281 4.64492 23.5 4.64492ZM31.0285 2.85488C31.0285 2.23066 31.5458 1.7166 32.1739 1.7166C32.8021 1.7166 33.3194 2.23066 33.3194 2.85488C33.3194 3.4791 32.8021 3.99316 32.1739 3.99316C31.5366 3.99316 31.0285 3.4791 31.0285 2.85488ZM44.1272 16.0186C43.499 16.0186 42.9817 15.5045 42.9817 14.8803C42.9817 14.2561 43.499 13.742 44.1272 13.742C44.7553 13.742 45.2726 14.2561 45.2726 14.8803C45.2726 15.5045 44.7553 16.0186 44.1272 16.0186ZM42.3259 23.5C42.3259 22.8758 42.8432 22.3617 43.4713 22.3617C44.0994 22.3617 44.6167 22.8758 44.6167 23.5C44.6167 24.1242 44.0994 24.6383 43.4713 24.6383C42.8432 24.6383 42.3259 24.1242 42.3259 23.5ZM43.2404 32.1197C43.2404 31.4955 43.7577 30.9814 44.3858 30.9814C45.014 30.9814 45.5312 31.4955 45.5312 32.1197C45.5312 32.7439 45.014 33.258 44.3858 33.258C43.7577 33.258 43.2404 32.7439 43.2404 32.1197ZM31.0285 44.1451C31.0285 43.5209 31.5458 43.0068 32.1739 43.0068C32.8021 43.0068 33.3194 43.5209 33.3194 44.1451C33.3194 44.7693 32.8021 45.2834 32.1739 45.2834C31.5366 45.2834 31.0285 44.7693 31.0285 44.1451ZM23.5 42.3551C24.1281 42.3551 24.6454 42.8691 24.6454 43.4934C24.6454 44.1176 24.1281 44.6316 23.5 44.6316C22.8719 44.6316 22.3546 44.1176 22.3546 43.4934C22.3546 42.8691 22.8719 42.3551 23.5 42.3551ZM15.9715 44.393C15.9715 45.0172 15.4542 45.5312 14.8261 45.5312C14.1979 45.5312 13.6806 45.0172 13.6806 44.393C13.6806 43.7687 14.1979 43.2547 14.8261 43.2547C15.4542 43.2547 15.9715 43.7687 15.9715 44.393ZM13.2557 15.1098C13.2557 14.1184 14.0686 13.3197 15.057 13.3197H31.943C32.9406 13.3197 33.7443 14.1275 33.7443 15.1098V31.8811C33.7443 32.8725 32.9406 33.6711 31.943 33.6711H15.0662C14.0686 33.6711 13.2649 32.8633 13.2649 31.8811V15.1098H13.2557ZM1.47799 32.1197C1.47799 31.4955 1.99529 30.9814 2.62343 30.9814C3.25157 30.9814 3.76887 31.4955 3.76887 32.1197C3.76887 32.7439 3.25157 33.258 2.62343 33.258C1.99529 33.258 1.47799 32.7439 1.47799 32.1197Z" fill="white"/>
</svg>
