<svg width="87" height="87" viewBox="0 0 87 87" fill="none" xmlns="http://www.w3.org/2000/svg">
<circle cx="42" cy="42" r="42" fill="#C4161C" fill-opacity="0.05"/>
<mask id="mask0_415_4634" style="mask-type:luminance" maskUnits="userSpaceOnUse" x="17" y="17" width="70" height="70">
<path d="M87 17H17V87H87V17Z" fill="white"/>
</mask>
<g mask="url(#mask0_415_4634)">
<path d="M85.7724 72.1245C85.5793 69.7393 85.0288 67.3965 84.1391 65.1749C83.7438 64.0937 82.6111 63.4701 81.4861 63.7143C78.0831 64.4271 70.479 65.6497 57.6275 65.9308C54.4831 62.9115 49.5163 62.9115 46.3719 65.9308C33.5204 65.6508 25.9163 64.4282 22.512 63.7143C21.3943 63.4704 20.2671 64.0853 19.8673 65.1574C18.9661 67.3866 18.4065 69.7389 18.2072 72.135C17.4661 72.5422 17.0041 73.3194 17.001 74.165V75.3315C17.0368 78.8257 17.7216 82.2827 19.0204 85.5267C19.3686 86.4103 20.2196 86.9928 21.1692 86.9979C21.3285 86.9979 21.4872 86.981 21.643 86.9477C25.3237 86.2034 33.5029 84.9435 47.3333 84.7078V85.0029C47.3349 85.8112 47.8227 86.5392 48.5697 86.848C49.3167 87.1569 50.1761 86.9858 50.748 86.4146L51.9997 85.1593L53.2515 86.4146C53.8233 86.9858 54.6827 87.1569 55.4297 86.848C56.1767 86.5392 56.6645 85.8113 56.6662 85.0029V84.7078C70.4965 84.9411 78.6745 86.2034 82.3459 86.9477C83.4518 87.182 84.5648 86.5825 84.9778 85.5302C86.2771 82.2852 86.9622 78.827 86.9984 75.3317V74.1651C86.9949 73.3113 86.5244 72.5282 85.7724 72.1245ZM81.9563 65.9985C82.7048 67.8678 83.1959 69.83 83.4157 71.8317H60.1662C60.1654 70.5787 59.8735 69.3429 59.3134 68.2222C66.9107 68.1306 74.4863 67.3866 81.9563 65.9985ZM51.9997 65.9985C55.2212 65.9985 57.8329 68.6101 57.8329 71.8317C57.8329 75.0532 55.2212 77.6648 51.9997 77.6648C48.7782 77.6648 46.1666 75.0532 46.1666 71.8317C46.1705 68.6118 48.7798 66.0025 51.9997 65.9985ZM44.6862 68.2222C44.1261 69.3431 43.8342 70.5787 43.8334 71.8317H20.5592C20.7886 69.8303 21.2846 67.8685 22.0338 65.9985C29.5069 67.3885 37.0856 68.1323 44.6862 68.2222ZM21.1869 84.6646C19.9965 81.6951 19.3683 78.5305 19.3343 75.3315V74.165H44.1834C44.7125 75.931 45.8225 77.4669 47.3333 78.5235V82.3734C33.2918 82.6113 24.9434 83.9003 21.1869 84.6646ZM53.4241 83.2879C52.6333 82.5328 51.3905 82.5261 50.5916 83.2727L49.6664 84.1978V79.6598C51.1881 80.1187 52.8113 80.1187 54.3329 79.6598V84.198L53.4241 83.2879ZM84.6653 75.3315C84.6285 78.5295 84.0028 81.6932 82.8196 84.6646C79.056 83.9005 70.7078 82.6113 56.6663 82.3734V78.5235C58.1793 77.4678 59.2913 75.932 59.8221 74.165H84.6653V75.3315Z" fill="#C4161C"/>
<path d="M51.9999 75.3319C53.4154 75.3319 54.6916 74.4792 55.2333 73.1714C55.7749 71.8636 55.4755 70.3582 54.4747 69.3572C53.4736 68.3562 51.9683 68.0568 50.6605 68.5986C49.3527 69.1403 48.5 70.4165 48.5 71.832C48.5 73.7649 50.067 75.3319 51.9999 75.3319ZM51.9999 70.6654C52.6442 70.6654 53.1664 71.1878 53.1664 71.832C53.1664 72.4764 52.6442 72.9986 51.9999 72.9986C51.3555 72.9986 50.8333 72.4762 50.8333 71.832C50.8333 71.1877 51.3555 70.6654 51.9999 70.6654Z" fill="#C4161C"/>
<path d="M84.7083 28.8558L53.1966 17.2152C52.4245 16.9283 51.5749 16.9283 50.8028 17.2152L19.2911 28.8558C17.9131 29.3754 17.001 30.6941 17.001 32.1668C17.001 33.6395 17.9131 34.9582 19.2911 35.4777L32.1671 40.234V51.7089C32.1706 53.1667 33.0753 54.4702 34.4397 54.9836L50.7724 61.1084C51.5643 61.4063 52.4375 61.4063 53.2293 61.1084L69.5621 54.9836C70.9253 54.4692 71.8288 53.1659 71.8324 51.7089V40.234L77.6655 38.0792V46.332C75.6114 46.8623 74.1736 48.7113 74.1657 50.8328V55.4993C74.1657 56.788 75.2103 57.8326 76.4989 57.8326H81.1654C82.4541 57.8326 83.4987 56.788 83.4987 55.4993V50.8328C83.4908 48.7115 82.0528 46.8624 79.9988 46.332V37.2171L84.7085 35.4777C86.0864 34.9582 86.9986 33.6395 86.9986 32.1668C86.9986 30.6941 86.0864 29.3754 84.7083 28.8558ZM81.1654 50.8327V55.4991H76.4989V50.8327C76.4989 49.544 77.5436 48.4994 78.8322 48.4994C80.1208 48.4994 81.1654 49.544 81.1654 50.8327ZM69.4991 51.7088C69.4976 52.1946 69.195 52.6288 68.7396 52.7984L52.4069 58.9255C52.144 59.0265 51.853 59.0265 51.5903 58.9255L35.2575 52.7985C34.8031 52.6282 34.5015 52.1942 34.5004 51.7089V41.0927L50.8028 47.1148C51.5751 47.4009 52.4244 47.4009 53.1966 47.1148L69.4991 41.0962V51.7088ZM83.8999 33.2891L78.7446 35.1929L58.9843 31.2113C58.9843 31.1413 58.9995 31.0713 58.9995 31.0001C58.9995 28.3834 55.9242 26.3336 51.9997 26.3336C48.0752 26.3336 45 28.3834 45 31.0001C45 33.6168 48.0752 35.6665 51.9997 35.6665C54.2357 35.7781 56.4178 34.9568 58.0254 33.3986L74.5751 36.734L52.3883 44.9295C52.1377 45.0229 51.8619 45.0229 51.6113 44.9295L20.0996 33.2891C19.6376 33.1083 19.3336 32.6629 19.3336 32.1668C19.3336 31.6706 19.6376 31.2252 20.0996 31.0445L51.6113 19.4039C51.8619 19.3105 52.1377 19.3105 52.3883 19.4039L83.8999 31.0445C84.3619 31.2252 84.6659 31.6706 84.6659 32.1668C84.6659 32.6629 84.3619 33.1083 83.8999 33.2891ZM56.6663 31.0001C56.6663 32.1013 54.6701 33.3334 51.9999 33.3334C49.3296 33.3334 47.3334 32.1014 47.3334 31.0001C47.3334 29.8987 49.3296 28.6668 51.9999 28.6668C54.6701 28.6668 56.6663 29.8988 56.6663 31.0001Z" fill="#C4161C"/>
</g>
</svg>
