<svg width="42" height="42" viewBox="0 0 42 42" fill="none" xmlns="http://www.w3.org/2000/svg">
<path d="M21.2583 0.00672912L21.2572 0.00588798H21.2319C21.1544 0.00532722 21.0783 0 21.0006 0C9.42049 0 0 9.42049 0 21C0 32.5795 9.42049 42 21 42C32.5794 42 42 32.5795 42 21C42 9.50713 32.7185 0.146171 21.2583 0.00672912ZM21.8209 14.6745C24.6799 14.5669 27.2717 13.9116 29.5531 12.9825C30.435 15.1292 31.0446 17.5396 31.1451 20.179H21.8208L21.8209 14.6745ZM20.1791 20.1791H10.8548C10.9556 17.5376 11.563 15.1272 12.4441 12.9809C14.726 13.9111 17.3193 14.5668 20.1791 14.6745V20.1791ZM9.2188 20.1791H1.66088C1.8364 15.9934 3.34905 12.1503 5.77985 9.06058C7.1896 10.1724 8.92319 11.3353 10.9462 12.3164C9.99845 14.6208 9.32217 17.2602 9.2188 20.1791ZM9.21366 21.8209C9.32581 24.7291 9.99228 27.3567 10.9518 29.6809C8.92646 30.6621 7.19119 31.8266 5.78041 32.9386C3.34961 29.8492 1.83649 26.0063 1.66144 21.8209H9.21366ZM10.857 21.8209H20.1791V27.3263C17.3353 27.4327 14.7549 28.0808 12.4829 29.0027C11.5931 26.8613 10.9708 24.4576 10.857 21.8209ZM21.8209 21.8209H31.143C31.0291 24.4565 30.4054 26.8613 29.5152 29.0027C27.2434 28.0809 24.6639 27.4332 21.8203 27.3263V21.8209H21.8209ZM32.7862 21.8209H40.339C40.1637 26.0063 38.6503 29.8497 36.2198 32.9397C34.808 31.826 33.0701 30.6611 31.0436 29.6788C32.0034 27.3541 32.6735 24.727 32.7862 21.8209ZM32.7885 20.1791C32.6886 17.2691 32.0312 14.6357 31.0789 12.3049C33.0915 11.3262 34.816 10.1681 36.2199 9.06058C38.651 12.1503 40.1638 15.9934 40.3391 20.1787H32.7885V20.1791ZM35.1499 7.81382C33.8481 8.83608 32.2556 9.902 30.4087 10.8052C28.3651 6.61323 25.4569 3.5512 23.5149 1.81032C28.083 2.40622 32.1542 4.60337 35.1499 7.81382ZM28.875 11.4871C26.7834 12.332 24.4181 12.9267 21.8209 13.0328V2.52987C23.5683 4.03046 26.7198 7.1282 28.875 11.4871ZM20.1791 2.52828V13.0323C17.5803 12.9262 15.2142 12.3304 13.1215 11.4841C15.277 7.12175 18.4309 4.02598 20.1791 2.52828ZM18.5046 1.80817C17.3244 2.88661 15.9545 4.31103 14.8651 5.68686C13.7821 7.05492 12.6136 8.78347 11.6193 10.8182C9.7604 9.9119 8.15878 8.84123 6.84978 7.81382C9.85013 4.59833 13.9282 2.40005 18.5046 1.80817ZM6.84922 34.1859C8.15981 33.1572 9.76414 32.0847 11.6265 31.1783C13.7069 35.4087 16.6697 38.4804 18.6382 40.2098C14.007 39.6423 9.87929 37.4319 6.84922 34.1859ZM13.1664 30.4964C15.2478 29.6606 17.5996 29.0728 20.1791 28.9679V39.3685C18.4424 37.8786 15.3198 34.8117 13.1664 30.4964ZM21.8209 39.3686V28.968C24.3999 29.0734 26.7507 29.6606 28.8323 30.4965C26.6781 34.8091 23.5571 37.8776 21.8209 39.3686ZM23.3824 40.2066C25.3094 38.4996 28.2787 35.4226 30.3682 31.1762C32.2321 32.0836 33.8386 33.1567 35.1499 34.1859C32.1247 37.4287 28.0045 39.6369 23.3824 40.2066Z" fill="black"/>
</svg>
