<svg width="38" height="42" viewBox="0 0 38 42" fill="none" xmlns="http://www.w3.org/2000/svg">
<path d="M20.6954 0.415029C20.8079 0.457708 20.9205 0.500195 21.0332 0.542505C21.3327 0.655548 21.6313 0.771093 21.9296 0.887143C22.2438 1.00879 22.559 1.12796 22.874 1.24733C23.3801 1.43931 23.8857 1.63244 24.391 1.82644C25.2413 2.15273 26.0948 2.47021 26.9489 2.78644C27.3537 2.93649 27.7582 3.08749 28.1627 3.23841C28.6957 3.43717 29.2287 3.63584 29.7619 3.83434C29.8118 3.85295 29.8618 3.87155 29.9133 3.89072C30.1183 3.96708 30.3234 4.04343 30.5285 4.11978C31.09 4.3288 31.6514 4.53806 32.2126 4.74795C32.4081 4.82106 32.6036 4.89417 32.7991 4.96728C32.8937 5.00268 32.9884 5.03808 33.0859 5.07455C33.5954 5.26485 34.1055 5.45336 34.6167 5.6392C34.8946 5.74035 35.1722 5.84249 35.4496 5.94481C35.5731 5.99002 35.6968 6.03473 35.8206 6.07889C37.2342 6.58303 37.2342 6.58303 37.5993 7.22548C37.7525 7.58429 37.7251 7.9917 37.6094 8.35872C37.1869 9.1754 35.9955 9.43391 35.1917 9.72661C35.0864 9.76544 34.981 9.80433 34.8757 9.84325C34.6002 9.94496 34.3244 10.046 34.0486 10.1469C33.7743 10.2474 33.5002 10.3484 33.2261 10.4493C32.9043 10.5679 32.5825 10.6864 32.2606 10.8044C31.7596 10.9882 31.2593 11.1735 30.7604 11.363C30.6712 11.3968 30.582 11.4307 30.4901 11.4655C30.3241 11.5287 30.1582 11.5922 29.9924 11.656C29.9196 11.6837 29.8468 11.7114 29.7718 11.7399C29.7088 11.7641 29.6457 11.7884 29.5807 11.8133C29.4173 11.8646 29.4173 11.8646 29.1771 11.8646C29.1771 13.1859 29.1771 14.5072 29.1771 15.8685C29.6263 15.9214 30.0756 15.9742 30.5384 16.0287C31.5032 16.1858 32.1214 16.3312 32.7625 17.0744C33.0348 17.5054 33.0417 17.9294 33.0309 18.421C33.0301 18.4838 33.0294 18.5466 33.0287 18.6112C33.0268 18.7647 33.0239 18.9182 33.0209 19.0717C33.1505 19.0704 33.1505 19.0704 33.2827 19.0691C33.6056 19.0662 33.9286 19.0644 34.2516 19.0629C34.3909 19.0621 34.5302 19.061 34.6695 19.0596C34.8707 19.0576 35.0719 19.0567 35.2731 19.056C35.3346 19.0552 35.3961 19.0544 35.4594 19.0535C36.0722 19.0534 36.6215 19.1457 37.1048 19.5521C37.4347 20.0157 37.4712 20.3694 37.4658 20.9297C37.4666 21.0514 37.4666 21.0514 37.4673 21.1755C37.4686 21.4468 37.4676 21.718 37.4666 21.9892C37.467 22.1839 37.4676 22.3786 37.4683 22.5733C37.4696 23.0469 37.4694 23.5204 37.4685 23.994C37.4678 24.3791 37.4677 24.7641 37.468 25.1491C37.4681 25.204 37.4681 25.2588 37.4682 25.3153C37.4683 25.4268 37.4684 25.5382 37.4685 25.6497C37.4694 26.6942 37.4683 27.7386 37.4666 28.7831C37.4652 29.6786 37.4654 30.5742 37.4669 31.4697C37.4686 32.5104 37.4693 33.5511 37.4683 34.5918C37.4682 34.7028 37.4681 34.8139 37.468 34.9249C37.4679 35.0069 37.4679 35.0069 37.4679 35.0905C37.4676 35.4749 37.4681 35.8592 37.4688 36.2436C37.4698 36.7613 37.4691 37.279 37.4672 37.7968C37.4668 37.9867 37.4669 38.1767 37.4676 38.3666C37.4685 38.6261 37.4674 38.8854 37.4658 39.1449C37.4669 39.2574 37.4669 39.2574 37.468 39.3722C37.4615 39.9205 37.3633 40.3259 36.9907 40.7394C36.4543 41.1684 35.7026 41.0684 35.0539 41.0639C34.9084 41.0644 34.763 41.065 34.6176 41.0658C34.2185 41.0675 33.8195 41.0667 33.4204 41.0654C32.9898 41.0645 32.5593 41.0659 32.1287 41.067C31.2854 41.0688 30.4421 41.0684 29.5989 41.0672C28.9135 41.0663 28.2282 41.0662 27.5429 41.0667C27.3966 41.0667 27.3966 41.0667 27.2474 41.0668C27.0493 41.067 26.8512 41.0671 26.6531 41.0672C24.7953 41.0684 22.9375 41.0671 21.0796 41.0649C19.4853 41.0631 17.891 41.0634 16.2967 41.0653C14.4456 41.0674 12.5944 41.0683 10.7433 41.067C10.5459 41.0669 10.3485 41.0668 10.1512 41.0667C10.054 41.0666 9.95693 41.0665 9.85687 41.0665C9.17233 41.0661 8.4878 41.0667 7.80326 41.0676C6.9691 41.0688 6.13495 41.0685 5.30079 41.0663C4.87514 41.0653 4.44951 41.0649 4.02386 41.0662C3.63422 41.0674 3.24464 41.0667 2.85501 41.0646C2.71404 41.0642 2.57308 41.0644 2.43212 41.0653C1.12142 41.0737 1.12142 41.0737 0.703381 40.7394C0.269851 40.2583 0.222081 39.7736 0.227152 39.1459C0.226539 39.0648 0.225927 38.9837 0.225296 38.9001C0.223649 38.6293 0.224279 38.3585 0.224916 38.0877C0.224219 37.8932 0.223389 37.6986 0.222436 37.504C0.220515 37.031 0.220106 36.558 0.220482 36.085C0.220768 35.7004 0.220486 35.3158 0.219805 34.9312C0.219709 34.8763 0.219615 34.8215 0.219516 34.765C0.219322 34.6537 0.219127 34.5423 0.218932 34.4309C0.217192 33.3873 0.217537 32.3437 0.218514 31.3002C0.219342 30.3463 0.217539 29.3925 0.214494 28.4387C0.211389 27.4582 0.210068 26.4777 0.21067 25.4973C0.210976 24.9472 0.210582 24.3972 0.208314 23.8472C0.206203 23.33 0.20661 22.8128 0.2087 22.2955C0.209079 22.1059 0.20864 21.9162 0.207318 21.7266C0.205642 21.4673 0.206939 21.2082 0.20897 20.949C0.207789 20.8742 0.206608 20.7995 0.205391 20.7225C0.214447 20.1716 0.385287 19.8063 0.749373 19.392C1.25793 19.0529 1.81486 19.0599 2.40536 19.0638C2.47045 19.064 2.53553 19.0641 2.60259 19.0642C2.80899 19.0646 3.01539 19.0656 3.22179 19.0667C3.36234 19.0671 3.50289 19.0674 3.64345 19.0678C3.9867 19.0686 4.32995 19.07 4.6732 19.0717C4.64678 18.8074 4.62035 18.5432 4.59312 18.2709C4.52675 18.3099 4.46037 18.3488 4.39199 18.389C4.07982 18.5255 3.82103 18.5459 3.48704 18.543C3.39912 18.5434 3.39912 18.5434 3.30943 18.5437C3.18614 18.5439 3.06284 18.5434 2.93956 18.5424C2.75185 18.5412 2.56429 18.5424 2.37659 18.544C2.25626 18.5438 2.13593 18.5435 2.01561 18.543C1.96004 18.5435 1.90447 18.544 1.84722 18.5445C1.3721 18.5377 1.05105 18.4161 0.719344 18.0757C0.496626 17.5874 0.513881 17.0808 0.667379 16.5688C0.771513 16.3052 0.882763 16.0467 0.999617 15.7885C1.07768 15.6138 1.15469 15.4386 1.23047 15.263C1.28205 15.1488 1.28205 15.1488 1.33467 15.0324C1.41033 14.8304 1.41033 14.8304 1.32525 14.6502C1.29376 14.603 1.26228 14.5558 1.22984 14.5072C0.92298 13.9316 0.790626 13.4398 0.959578 12.7946C1.14163 12.3159 1.44715 11.9894 1.87047 11.7045C1.92332 11.7045 1.97617 11.7045 2.03062 11.7045C2.03062 10.9646 2.03062 10.2246 2.03062 9.46229C1.76637 9.38302 1.50211 9.30374 1.22984 9.22206C0.770439 9.03806 0.373157 8.85813 0.108748 8.42128C-0.0393882 7.97687 -0.0486168 7.53781 0.158797 7.115C0.568503 6.65139 0.946195 6.42376 1.52012 6.21819C1.58938 6.19248 1.65863 6.16677 1.72998 6.14027C1.96333 6.05387 2.19717 5.96886 2.43101 5.8838C2.60038 5.82135 2.76971 5.7588 2.93901 5.69616C3.31274 5.55802 3.68667 5.42042 4.06073 5.28318C4.70592 5.04635 5.35026 4.80725 5.99449 4.56783C6.05114 4.54678 6.10779 4.52573 6.16616 4.50404C6.39863 4.41764 6.6311 4.33124 6.86357 4.24483C7.28017 4.08997 7.69683 3.93529 8.11353 3.78069C9.58428 3.23494 11.054 2.68657 12.5227 2.13517C12.9019 1.99282 13.2813 1.85086 13.6607 1.70906C14.8799 1.25369 14.8799 1.25369 16.0938 0.784399C16.3532 0.68229 16.6132 0.58153 16.8733 0.480867C17.0357 0.417227 17.197 0.351374 17.3584 0.285273C18.5458 -0.173601 19.5416 -0.0413328 20.6954 0.415029ZM17.7184 1.64748C17.6023 1.69056 17.6023 1.69056 17.4837 1.7345C17.2304 1.82869 16.9777 1.92435 16.725 2.02003C16.5476 2.08632 16.3701 2.15252 16.1927 2.21862C15.7456 2.38543 15.299 2.55342 14.8525 2.72179C14.4861 2.85979 14.1194 2.99688 13.7527 3.13393C13.2317 3.32878 12.7109 3.52425 12.1902 3.72013C11.3586 4.03291 10.5259 4.34294 9.6931 4.6526C9.62177 4.67913 9.55044 4.70566 9.47695 4.73299C8.82376 4.97593 8.17052 5.21875 7.51719 5.46132C6.65639 5.78092 5.79578 6.10101 4.93549 6.42198C4.64894 6.52888 4.3623 6.63552 4.07559 6.74198C3.72354 6.87275 3.3717 7.00408 3.02002 7.13584C2.8885 7.18501 2.7569 7.23398 2.62523 7.28275C2.44497 7.34955 2.26498 7.41705 2.08505 7.48474C2.0316 7.50436 1.97814 7.52399 1.92307 7.54421C1.64257 7.63685 1.64257 7.63685 1.47008 7.86073C1.6051 7.90919 1.6051 7.90919 1.74284 7.95864C2.74095 8.31857 3.73504 8.68872 4.72825 9.0619C5.83868 9.4791 6.94963 9.89482 8.06151 10.3081C8.34981 10.4153 8.63811 10.5225 8.92641 10.6297C9.0386 10.6714 9.0386 10.6714 9.15305 10.714C9.86824 10.9799 10.5833 11.2464 11.2982 11.5131C11.7492 11.6814 12.2002 11.8496 12.6514 12.0173C12.902 12.1105 13.1525 12.2037 13.403 12.2969C13.4526 12.3154 13.5022 12.3339 13.5532 12.3529C14.2032 12.595 14.8521 12.8398 15.5001 13.0873C15.8785 13.2318 16.2572 13.3754 16.636 13.5189C16.814 13.5867 16.9918 13.6549 17.1695 13.7236C17.4142 13.8181 17.6594 13.9112 17.9049 14.0039C17.9763 14.032 18.0477 14.0601 18.1213 14.0891C18.7982 14.3414 19.282 14.1936 19.9343 13.9439C20.0336 13.9067 20.0336 13.9067 20.1348 13.8687C20.3531 13.7868 20.571 13.7041 20.7889 13.6214C20.9442 13.5629 21.0995 13.5045 21.2548 13.4462C21.5765 13.3254 21.8981 13.2043 22.2195 13.0831C22.8544 12.8438 23.4905 12.6076 24.1266 12.3715C24.4822 12.2394 24.8377 12.1071 25.1932 11.9747C25.3045 11.9333 25.3045 11.9333 25.418 11.8911C26.9194 11.3321 28.4204 10.7721 29.9215 10.2122C30.6217 9.95107 31.3219 9.68997 32.0222 9.4289C32.1872 9.36736 32.3523 9.30583 32.5173 9.24429C33.4131 8.91028 33.4131 8.91028 33.786 8.77126C34.0751 8.66347 34.3643 8.55567 34.6534 8.44787C34.7384 8.41617 34.8235 8.38447 34.9111 8.3518C35.3489 8.18855 35.7865 8.02496 36.224 7.86073C36.0341 7.64191 35.859 7.55613 35.5883 7.45792C35.5072 7.4281 35.426 7.39828 35.3424 7.36755C35.254 7.33582 35.1655 7.3041 35.0744 7.27141C34.9822 7.2377 34.8899 7.20399 34.7949 7.16926C34.5962 7.0967 34.3973 7.02439 34.1983 6.95248C33.8841 6.8389 33.5702 6.7244 33.2564 6.60971C33.1509 6.57116 33.0454 6.53262 32.9399 6.49408C32.8878 6.47503 32.8356 6.45599 32.7819 6.43636C32.6237 6.37858 32.4654 6.32088 32.3071 6.26322C31.4654 5.95649 30.626 5.64418 29.7877 5.32826C29.5332 5.2325 29.2787 5.1368 29.0241 5.0411C28.9602 5.01704 28.8962 4.99299 28.8303 4.9682C27.964 4.64259 27.0966 4.31988 26.2292 3.99696C26.1445 3.9654 26.0597 3.93383 25.9723 3.90131C25.6266 3.77258 25.2808 3.64385 24.9351 3.51514C24.2884 3.27439 23.6417 3.03341 22.9951 2.79235C22.7166 2.68853 22.4381 2.58472 22.1596 2.4809C21.9819 2.41464 21.8042 2.34837 21.6264 2.28209C21.379 2.18981 21.1315 2.09756 20.884 2.00533C20.7763 1.96514 20.7763 1.96514 20.6664 1.92413C20.5294 1.87308 20.3922 1.82235 20.2549 1.77196C20.1103 1.7179 19.9663 1.66182 19.823 1.60423C19.0251 1.2917 18.5137 1.34283 17.7184 1.64748ZM3.39195 10.0228C3.39195 10.5778 3.39195 11.1327 3.39195 11.7045C3.66942 11.863 3.66942 11.863 3.9525 12.0248C4.36506 12.4374 4.48672 12.7982 4.54307 13.3711C4.53231 13.8295 4.35824 14.3417 4.03258 14.6674C4.06477 14.9798 4.17837 15.2553 4.29565 15.5448C4.33152 15.6338 4.36739 15.7229 4.40435 15.8146C4.44187 15.9067 4.47939 15.9988 4.51805 16.0938C4.55588 16.1874 4.59371 16.2811 4.63269 16.3776C4.72596 16.6085 4.81955 16.8391 4.91344 17.0697C4.94833 17.0378 4.98322 17.0059 5.01916 16.9731C5.06685 16.9306 5.11454 16.8882 5.16368 16.8445C5.21013 16.8027 5.25658 16.7609 5.30444 16.7178C5.69201 16.4239 6.08896 16.3023 6.56192 16.2204C6.66477 16.2015 6.76762 16.1826 6.87359 16.1631C7.003 16.1402 7.1324 16.1174 7.26573 16.0938C7.67863 16.0194 8.09154 15.9451 8.51695 15.8685C8.51695 14.5473 8.51695 13.226 8.51695 11.8646C7.96754 11.66 7.41812 11.4553 6.86852 11.2512C6.61251 11.1561 6.35654 11.0609 6.10065 10.9655C5.80616 10.8556 5.51151 10.7463 5.21686 10.6369C5.1264 10.6031 5.03595 10.5693 4.94275 10.5345C4.85624 10.5024 4.76973 10.4704 4.68059 10.4374C4.56803 10.3955 4.56803 10.3955 4.45319 10.3528C4.10293 10.2322 3.74678 10.1293 3.39195 10.0228ZM9.87828 12.4252C9.87084 13.2285 9.86516 14.0318 9.86168 14.8352C9.86001 15.2082 9.85775 15.5813 9.85412 15.9543C9.85062 16.3147 9.84872 16.675 9.84789 17.0353C9.8473 17.1725 9.84615 17.3097 9.84441 17.4468C9.83482 18.2369 9.82885 18.8349 10.3334 19.4858C11.0817 20.1592 12.1617 20.2688 13.1214 20.438C13.179 20.4482 13.2366 20.4584 13.2959 20.4689C17.0668 21.1305 23.486 21.8574 26.9518 19.7999C27.1379 19.6602 27.2866 19.5339 27.4354 19.3569C27.4738 19.3125 27.5122 19.268 27.5518 19.2221C27.81 18.848 27.8384 18.4962 27.834 18.0525C27.834 17.9915 27.834 17.9305 27.834 17.8677C27.8339 17.667 27.8327 17.4665 27.8314 17.2658C27.8311 17.1264 27.8309 16.9869 27.8307 16.8474C27.8301 16.4811 27.8286 16.1147 27.8268 15.7483C27.8251 15.3742 27.8244 15.0001 27.8236 14.6259C27.8219 13.8923 27.8192 13.1588 27.8158 12.4252C26.7291 12.7814 26.7291 12.7814 25.654 13.1703C25.5942 13.1928 25.5345 13.2153 25.4729 13.2385C25.3463 13.2863 25.2197 13.3342 25.0931 13.3822C24.8913 13.4587 24.6893 13.5349 24.4872 13.6109C24.199 13.7194 23.9108 13.828 23.6227 13.9367C22.9213 14.2011 22.2196 14.4648 21.5174 14.7272C21.3665 14.7836 21.2157 14.8402 21.0649 14.897C20.8538 14.9764 20.6424 15.0555 20.4311 15.1344C20.3383 15.1695 20.3383 15.1695 20.2437 15.2053C18.9443 15.6882 18.0504 15.4468 16.79 14.9677C16.6496 14.9152 16.5091 14.8628 16.3686 14.8106C15.9749 14.6638 15.5818 14.5156 15.1887 14.3672C14.6006 14.1453 14.0121 13.9246 13.4236 13.7038C13.3216 13.6656 13.2197 13.6273 13.1177 13.5891C13.0423 13.5607 13.0423 13.5607 12.9653 13.5318C12.6154 13.4005 12.2658 13.2686 11.9163 13.1366C11.7306 13.0666 11.5448 12.9966 11.3591 12.9266C11.2743 12.8945 11.1895 12.8623 11.1022 12.8292C10.9833 12.7845 10.9833 12.7845 10.862 12.7388C10.7935 12.7129 10.725 12.687 10.6544 12.6604C10.3984 12.5713 10.1394 12.4977 9.87828 12.4252ZM2.40599 13.0358C2.24592 13.2211 2.24592 13.2211 2.27586 13.4762C2.33227 13.7298 2.33227 13.7298 2.59117 13.8666C2.83754 13.86 2.83754 13.86 3.07164 13.7865C3.25745 13.5602 3.25745 13.5602 3.21678 13.301C3.17273 13.042 3.17273 13.042 2.91148 12.9057C2.59713 12.875 2.59713 12.875 2.40599 13.0358ZM2.67125 15.3881C2.56378 15.6364 2.45727 15.885 2.35094 16.1338C2.32038 16.2044 2.28983 16.2749 2.25835 16.3476C2.22944 16.4155 2.20054 16.4833 2.17076 16.5533C2.14392 16.6158 2.11708 16.6782 2.08943 16.7426C2.01732 16.9178 2.01732 16.9178 2.03062 17.1498C2.50629 17.1498 2.98195 17.1498 3.47203 17.1498C3.30183 16.5407 3.08347 15.9679 2.8314 15.3881C2.77855 15.3881 2.7257 15.3881 2.67125 15.3881ZM29.1771 17.2299C29.175 17.3353 29.173 17.4407 29.1709 17.5492C29.1284 19.0407 29.1284 19.0407 28.7767 19.7123C28.7447 19.7751 28.7127 19.8378 28.6797 19.9025C28.157 20.7969 27.3349 21.1398 26.3744 21.3939C25.9824 21.4855 25.5887 21.5644 25.1932 21.6392C25.1395 21.6494 25.0857 21.6597 25.0303 21.6702C23.1907 22.019 21.3626 22.1498 19.4877 22.2748C19.4877 26.6086 19.4877 30.9424 19.4877 35.4076C20.0718 35.3438 20.0718 35.3438 20.6491 35.2553C23.8072 34.7132 27.0407 34.647 30.1997 35.2288C30.6291 35.3052 30.9956 35.3703 31.4193 35.2474C31.6394 35.0458 31.6598 34.9242 31.6898 34.6235C31.6911 34.4978 31.6911 34.372 31.69 34.2463C31.6906 34.1422 31.6906 34.1422 31.6912 34.0361C31.6921 33.8032 31.6914 33.5703 31.6906 33.3375C31.6909 33.1707 31.6914 33.0039 31.6919 32.8371C31.693 32.3838 31.6926 31.9305 31.6918 31.4771C31.6912 31.0032 31.6918 30.5293 31.6921 30.0553C31.6926 29.2593 31.692 28.4634 31.6908 27.6674C31.6895 26.7465 31.69 25.8257 31.6913 24.9049C31.6924 24.1149 31.6925 23.3249 31.6919 22.5349C31.6915 22.0628 31.6915 21.5907 31.6923 21.1186C31.693 20.6748 31.6925 20.2311 31.6911 19.7873C31.6908 19.6242 31.6909 19.4611 31.6914 19.298C31.6921 19.0758 31.6912 18.8536 31.69 18.6314C31.6908 18.5341 31.6908 18.5341 31.6917 18.4348C31.6889 18.1732 31.6779 17.9839 31.5505 17.7524C31.3673 17.5818 31.2112 17.557 30.9664 17.5114C30.8779 17.4944 30.7894 17.4773 30.6983 17.4598C30.5597 17.4352 30.5597 17.4352 30.4183 17.41C30.3259 17.3924 30.2335 17.3747 30.1384 17.3566C29.6608 17.2629 29.6608 17.2629 29.1771 17.2299ZM7.27574 17.41C7.18335 17.4265 7.09097 17.4429 6.99578 17.4598C6.90732 17.4768 6.81885 17.4938 6.72771 17.5114C6.64662 17.5265 6.56554 17.5416 6.482 17.5571C6.22217 17.6488 6.1673 17.7096 6.03453 17.9506C6.01102 18.1831 6.00142 18.3984 6.00295 18.6309C6.00246 18.7002 6.00197 18.7695 6.00147 18.8409C6.00013 19.0736 6.00052 19.3063 6.0009 19.539C6.00032 19.7056 5.99963 19.8723 5.99885 20.0389C5.99707 20.4919 5.99683 20.9449 5.99699 21.3979C5.99699 21.7758 5.99631 22.1538 5.99564 22.5317C5.9941 23.4231 5.99387 24.3145 5.99441 25.2059C5.99494 26.1261 5.99311 27.0463 5.99014 27.9665C5.98769 28.7561 5.98677 29.5457 5.98709 30.3352C5.98725 30.807 5.98681 31.2788 5.98485 31.7506C5.98307 32.1942 5.98322 32.6378 5.98485 33.0814C5.98512 33.2443 5.98471 33.4072 5.98357 33.5702C5.98212 33.7924 5.98313 34.0144 5.98476 34.2366C5.98376 34.3013 5.98276 34.366 5.98173 34.4326C5.98691 34.7604 6.02007 34.909 6.22703 35.1688C6.41504 35.3385 6.41504 35.3385 6.60784 35.3547C6.66691 35.3441 6.72597 35.3335 6.78683 35.3225C6.85657 35.3116 6.92631 35.3006 6.99816 35.2894C7.07655 35.2755 7.15494 35.2617 7.2357 35.2474C7.42279 35.2219 7.60996 35.1969 7.79719 35.1724C8.10406 35.1301 8.41088 35.0874 8.71762 35.0441C9.85012 34.8889 10.978 34.8282 12.1205 34.827C12.1785 34.827 12.2366 34.8269 12.2964 34.8268C14.0962 34.8285 15.8762 35.0073 17.6382 35.382C17.8437 35.4177 17.8437 35.4177 18.2064 35.4076C18.2064 31.0738 18.2064 26.7399 18.2064 22.2748C17.1758 22.1955 16.1452 22.1162 15.0834 22.0346C10.8894 21.4508 10.8894 21.4508 9.7982 20.7533C9.74969 20.7232 9.70117 20.693 9.65118 20.662C9.07806 20.2489 8.76171 19.4982 8.59703 18.8314C8.56117 18.5495 8.54927 18.2696 8.54198 17.9856C8.53787 17.8759 8.53787 17.8759 8.53369 17.764C8.52716 17.586 8.5216 17.408 8.51695 17.2299C8.09652 17.2299 7.68765 17.3313 7.27574 17.41ZM1.63023 20.5131C1.62238 20.7591 1.61983 21.0033 1.6206 21.2493C1.62053 21.3275 1.62047 21.4057 1.62039 21.4863C1.62026 21.7506 1.62071 22.0148 1.62114 22.279C1.62116 22.4676 1.62115 22.6562 1.62111 22.8447C1.62108 23.3584 1.62156 23.8721 1.62211 24.3858C1.6226 24.8678 1.62264 25.3497 1.62273 25.8316C1.6229 26.7864 1.62343 27.7412 1.62419 28.696C1.62493 29.6238 1.62549 30.5515 1.62583 31.4792C1.62585 31.5364 1.62588 31.5935 1.6259 31.6524C1.626 31.9391 1.6261 32.2257 1.6262 32.5124C1.62703 34.8922 1.62845 37.272 1.63023 39.6517C1.86698 39.7701 2.07804 39.7419 2.34241 39.7419C2.40014 39.742 2.45787 39.7421 2.51736 39.7423C2.71279 39.7425 2.90821 39.7423 3.10364 39.742C3.24438 39.7421 3.38511 39.7422 3.52585 39.7424C3.91412 39.7427 4.30239 39.7425 4.69067 39.7423C5.1088 39.7421 5.52694 39.7424 5.94507 39.7426C6.76481 39.743 7.58455 39.7429 8.40429 39.7427C9.07023 39.7425 9.73616 39.7425 10.4021 39.7425C10.544 39.7426 10.544 39.7426 10.6888 39.7426C10.881 39.7426 11.0731 39.7426 11.2653 39.7427C13.0693 39.7429 14.8732 39.7426 16.6772 39.7422C18.2267 39.7418 19.7761 39.7419 21.3256 39.7423C23.1229 39.7427 24.9202 39.7429 26.7175 39.7426C26.909 39.7426 27.1005 39.7426 27.292 39.7425C27.3862 39.7425 27.4804 39.7425 27.5775 39.7425C28.243 39.7424 28.9085 39.7425 29.574 39.7427C30.3845 39.743 31.195 39.7429 32.0055 39.7425C32.4194 39.7423 32.8333 39.7422 33.2472 39.7424C33.6256 39.7427 34.0039 39.7426 34.3823 39.7421C34.5197 39.742 34.6571 39.7421 34.7945 39.7423C34.9802 39.7425 35.1659 39.7423 35.3517 39.7419C35.4551 39.7419 35.5586 39.7419 35.6652 39.7419C35.8979 39.7484 35.8979 39.7484 36.0638 39.6517C36.0657 37.215 36.0671 34.7782 36.0679 32.3414C36.068 32.054 36.0681 31.7666 36.0682 31.4792C36.0682 31.422 36.0683 31.3648 36.0683 31.3058C36.0686 30.3782 36.0693 29.4506 36.07 28.5229C36.0708 27.5718 36.0712 26.6207 36.0714 25.6695C36.0715 25.135 36.0717 24.6005 36.0723 24.0659C36.0728 23.5635 36.073 23.061 36.0729 22.5585C36.0729 22.3735 36.0731 22.1885 36.0734 22.0035C36.0738 21.7521 36.0737 21.5007 36.0735 21.2493C36.0737 21.175 36.0739 21.1008 36.0742 21.0243C36.1059 20.7031 36.1059 20.7031 35.9837 20.433C35.7644 20.4259 35.5471 20.4238 35.3278 20.4252C35.2293 20.4253 35.2293 20.4253 35.1289 20.4255C34.9183 20.426 34.7078 20.427 34.4973 20.428C34.3549 20.4284 34.2125 20.4288 34.0702 20.4291C33.7204 20.43 33.3706 20.4314 33.0209 20.433C33.0207 20.5466 33.0207 20.5466 33.0205 20.6626C33.0176 22.5066 33.0128 24.3505 33.0061 26.1945C33.0029 27.0862 33.0004 27.978 32.9992 28.8697C32.9981 29.647 32.996 30.4243 32.9925 31.2016C32.9907 31.6131 32.9894 32.0246 32.9895 32.4361C32.9895 32.8237 32.9881 33.2112 32.9855 33.5987C32.9848 33.7407 32.9847 33.8828 32.9852 34.0248C32.9857 34.2192 32.9843 34.4136 32.9823 34.608C32.983 34.6638 32.9836 34.7196 32.9842 34.777C32.9749 35.314 32.7701 35.7109 32.4303 36.1133C31.9139 36.5436 31.4336 36.6427 30.7787 36.6088C30.4535 36.5679 30.1309 36.5129 29.8077 36.4586C26.5798 35.9474 23.3753 35.9978 20.1764 36.6903C19.1317 36.9111 18.2924 36.8578 17.2555 36.6238C14.025 35.935 10.6081 35.906 7.36174 36.5355C6.7227 36.6573 6.14841 36.6532 5.55406 36.3685C5.18871 36.0681 4.90366 35.6986 4.75328 35.2474C4.74486 35.0496 4.74088 34.854 4.74061 34.6561C4.74021 34.5954 4.73982 34.5347 4.73941 34.4722C4.73818 34.2682 4.73751 34.0642 4.73684 33.8603C4.73607 33.7143 4.73527 33.5683 4.73444 33.4223C4.73227 33.0254 4.73059 32.6285 4.72899 32.2316C4.72724 31.8171 4.72505 31.4025 4.7229 30.9879C4.7189 30.2026 4.7153 29.4173 4.71185 28.632C4.7079 27.7381 4.7035 26.8442 4.69906 25.9503C4.68994 24.1112 4.68139 22.2721 4.6732 20.433C4.25271 20.431 3.83221 20.4296 3.41172 20.4286C3.26856 20.4282 3.12539 20.4276 2.98223 20.427C2.77691 20.426 2.57159 20.4255 2.36626 20.4252C2.30187 20.4248 2.23747 20.4243 2.17112 20.4239C1.87663 20.3956 1.87663 20.3956 1.63023 20.5131Z" fill="black"/>
<path d="M25.4183 26.8191C25.5462 26.819 25.5462 26.819 25.6766 26.8188C26.6921 26.8195 27.7012 26.8301 28.7115 26.9392C28.7963 26.948 28.8811 26.9567 28.9685 26.9657C29.3863 27.0194 29.6845 27.0711 29.9777 27.3997C30.0527 27.6795 30.0878 27.8678 29.9978 28.1454C29.8977 28.2805 29.8977 28.2805 29.6574 28.4407C29.1902 28.4955 28.7124 28.4209 28.2485 28.3618C27.4241 28.2669 26.6052 28.2562 25.776 28.2596C25.5336 28.2605 25.2913 28.2596 25.0489 28.2586C24.1718 28.2581 23.3141 28.298 22.4437 28.4063C21.6442 28.4939 21.6442 28.4939 21.2492 28.2004C21.1235 27.9491 21.141 27.7569 21.1691 27.4797C21.3357 27.2022 21.4809 27.1019 21.7941 27.0221C22.0665 26.9774 22.3356 26.9449 22.6105 26.9192C22.6713 26.9124 22.732 26.9055 22.7946 26.8985C23.6664 26.8103 24.543 26.8197 25.4183 26.8191Z" fill="black"/>
<path d="M11.9536 26.8186C12.2002 26.8194 12.4468 26.8186 12.6934 26.8176C13.4684 26.817 14.2365 26.8356 15.0082 26.9108C15.1046 26.9201 15.1046 26.9201 15.203 26.9296C16.1375 27.0318 16.1375 27.0318 16.4396 27.2949C16.5617 27.5606 16.5608 27.7519 16.5247 28.0406C16.3751 28.23 16.2587 28.3337 16.0442 28.441C15.8721 28.4359 15.7003 28.4249 15.5287 28.411C15.4363 28.4038 15.3439 28.3965 15.2487 28.3891C15.0752 28.3747 14.902 28.3588 14.7287 28.3411C14.2133 28.2899 13.7042 28.268 13.1864 28.2674C13.1077 28.2671 13.029 28.2669 12.948 28.2666C12.7824 28.2662 12.6169 28.266 12.4513 28.266C12.2033 28.2659 11.9552 28.2644 11.7071 28.2629C10.8859 28.2606 10.0789 28.2805 9.26359 28.3848C8.16892 28.5239 8.16892 28.5239 7.83618 28.3159C7.67454 28.0532 7.63599 27.8686 7.63599 27.5602C7.74609 27.3349 7.74609 27.3349 7.9563 27.1598C9.21042 26.7571 10.6541 26.8132 11.9536 26.8186Z" fill="black"/>
<path d="M27.4454 30.3528C27.5453 30.3591 27.6453 30.3653 27.7483 30.3718C28.2303 30.4052 28.7108 30.4477 29.1902 30.5086C29.2725 30.5189 29.3549 30.5292 29.4397 30.5399C29.702 30.6159 29.8093 30.7108 29.9778 30.9233C30.0734 31.252 30.0976 31.4078 29.9378 31.7141C29.6564 31.9533 29.3838 31.9744 29.0171 31.9566C28.8446 31.9392 28.6732 31.9175 28.5014 31.8943C28.3726 31.8786 28.2437 31.8632 28.1148 31.848C28.0187 31.8366 28.0187 31.8366 27.9207 31.825C26.3752 31.6512 24.8148 31.686 23.2688 31.8273C22.8357 31.866 22.4028 31.8957 21.9682 31.9093C21.8842 31.9123 21.8002 31.9153 21.7137 31.9184C21.4328 31.8756 21.3426 31.7839 21.1693 31.564C21.1267 31.4038 21.1267 31.4038 21.1292 31.2437C21.128 31.1644 21.128 31.1644 21.1267 31.0835C21.1885 30.8509 21.3072 30.7572 21.4896 30.603C21.6929 30.5399 21.6929 30.5399 21.9222 30.5086C22.0073 30.4968 22.0925 30.4851 22.1802 30.473C22.6318 30.4227 23.0832 30.3833 23.5366 30.3528C23.6848 30.3428 23.6848 30.3428 23.836 30.3325C25.0487 30.255 26.233 30.2758 27.4454 30.3528Z" fill="black"/>
<path d="M11.6565 30.2772C12.4929 30.255 13.3227 30.2953 14.1573 30.3526C14.2502 30.3589 14.3432 30.3651 14.439 30.3716C16.0661 30.4929 16.0661 30.4929 16.4245 30.778C16.5524 31.0658 16.5699 31.2521 16.5246 31.5638C16.3539 31.7898 16.2633 31.8751 15.9801 31.9182C15.8962 31.9152 15.8122 31.9122 15.7257 31.9091C15.6332 31.9062 15.5407 31.9033 15.4453 31.9003C15.0201 31.8758 14.5965 31.8427 14.1723 31.804C12.6492 31.6785 11.1638 31.7104 9.64195 31.8412C9.56232 31.8479 9.4827 31.8546 9.40066 31.8615C9.23231 31.8771 9.06418 31.8954 8.89634 31.9157C8.81186 31.9252 8.72738 31.9347 8.64035 31.9445C8.5647 31.9539 8.48906 31.9634 8.41112 31.9731C8.14187 31.9619 8.0103 31.884 7.79608 31.7239C7.63593 31.4837 7.63593 31.4837 7.64594 31.2084C7.72715 30.8778 7.76164 30.799 8.03632 30.6028C8.32837 30.5281 8.62267 30.4982 8.92218 30.4677C9.05119 30.4533 9.05119 30.4533 9.18281 30.4385C10.0071 30.3498 10.8283 30.3021 11.6565 30.2772Z" fill="black"/>
<path d="M11.0028 23.3068C11.2836 23.2973 11.5643 23.2912 11.8452 23.2859C11.9368 23.2829 12.0284 23.2798 12.1227 23.2766C12.7742 23.2702 12.7742 23.2702 13.103 23.4949C13.2487 23.7277 13.2893 23.8188 13.2516 24.0867C13.2452 24.1472 13.2388 24.2077 13.2322 24.27C13.1306 24.5101 12.9912 24.5618 12.7611 24.6773C12.5512 24.7094 12.5512 24.7094 12.3257 24.7126C12.2416 24.7146 12.1576 24.7167 12.0709 24.7187C11.9816 24.7199 11.8922 24.7211 11.8002 24.7223C11.119 24.739 10.4458 24.7703 9.76819 24.8424C8.18961 25.0046 8.18961 25.0046 7.85664 24.8152C7.69824 24.6596 7.6632 24.5846 7.63611 24.367C7.62785 24.3143 7.61959 24.2617 7.61108 24.2074C7.65178 23.9297 7.74774 23.8238 7.95642 23.6363C8.21603 23.5534 8.47687 23.5248 8.74719 23.4961C8.82335 23.4869 8.89951 23.4776 8.97798 23.468C9.19784 23.442 9.41783 23.4186 9.63806 23.396C9.78005 23.3801 9.78005 23.3801 9.9249 23.3638C10.284 23.3308 10.6426 23.3203 11.0028 23.3068Z" fill="black"/>
<path d="M28.3161 23.4209C28.3722 23.4256 28.4282 23.4303 28.4859 23.4351C28.6467 23.4489 28.8074 23.4644 28.968 23.48C29.1068 23.4932 29.1068 23.4932 29.2483 23.5067C29.5154 23.5596 29.6792 23.6354 29.8976 23.7962C30.0641 24.046 30.0804 24.0795 30.0478 24.3568C30.0426 24.4113 30.0375 24.4658 30.0322 24.5219C29.9558 24.7396 29.8566 24.8051 29.6574 24.9173C29.0283 25.0177 28.3435 24.887 27.7133 24.8195C27.2943 24.7767 26.8786 24.7502 26.4574 24.74C26.3638 24.7376 26.2701 24.7353 26.1736 24.7329C25.9901 24.7291 25.8065 24.7266 25.623 24.7256C24.9945 24.7124 24.9945 24.7124 24.6779 24.531C24.472 24.2845 24.4467 24.1151 24.4523 23.7962C25.0825 22.7966 27.2608 23.3263 28.3161 23.4209Z" fill="black"/>
</svg>
