<svg width="42" height="43" viewBox="0 0 42 43" fill="none" xmlns="http://www.w3.org/2000/svg">
<path d="M34.6057 21.9251L35.4211 19.5769C35.4839 19.582 35.547 19.5853 35.6107 19.5853C36.0643 19.5852 36.5076 19.4487 36.8848 19.193C37.2619 18.9373 37.5559 18.574 37.7295 18.1489C37.9031 17.7238 37.9486 17.256 37.8601 16.8047C37.7717 16.3534 37.5534 15.9389 37.2327 15.6134C36.912 15.2879 36.5033 15.0663 36.0584 14.9765C35.6134 14.8867 35.1522 14.9328 34.7331 15.1089C34.3139 15.285 33.9557 15.5833 33.7038 15.966C33.4518 16.3486 33.3173 16.7985 33.3175 17.2587C33.3175 17.3237 33.3206 17.388 33.3257 17.4519L31.012 18.2792C29.5957 17.0164 28.1917 15.9584 26.9308 15.2131C24.8532 13.9849 23.4211 13.7464 22.6745 14.5039C18.4411 18.8006 18.3625 25.7392 22.4374 30.1325L19.247 41.8242H18.0109L16.0984 32.3903C16.0953 32.3695 16.0911 32.3488 16.0858 32.3284L15.592 29.8929C15.5899 29.8817 15.5878 29.8704 15.5852 29.8593L12.9793 17.0063C12.9761 16.9847 12.9718 16.9633 12.9663 16.9422L11.327 8.85726C11.968 8.59346 12.4991 8.11266 12.8302 7.49656C13.1613 6.88047 13.2719 6.16709 13.1432 5.47766C13.0144 4.78823 12.6544 4.16528 12.1241 3.71467C11.5939 3.26406 10.9262 3.01359 10.2345 3.00582C9.54277 2.99806 8.86977 3.23348 8.32982 3.67208C7.78987 4.11068 7.41629 4.7254 7.27256 5.41178C7.12883 6.09815 7.22382 6.81384 7.54139 7.43721C7.85895 8.06058 8.3795 8.55319 9.01458 8.83131L7.38579 16.942C7.38033 16.9631 7.37605 16.9845 7.37296 17.0061L6.57533 20.9777C6.56848 21.0031 6.56331 21.0289 6.55985 21.055L6.10341 23.3296C6.09736 23.3525 6.09271 23.3757 6.0895 23.3992L4.79528 29.8431V29.8445L2.38965 41.8242H0.579551C0.425844 41.8242 0.278433 41.8862 0.169746 41.9964C0.0610596 42.1067 0 42.2562 0 42.4121C0 42.568 0.0610596 42.7176 0.169746 42.8278C0.278433 42.9381 0.425844 43 0.579551 43H32.8989C33.0526 43 33.2 42.9381 33.3087 42.8278C33.4173 42.7176 33.4784 42.568 33.4784 42.4121C33.4784 42.2562 33.4173 42.1067 33.3087 41.9964C33.2 41.8862 33.0526 41.8242 32.8989 41.8242H29.3103L26.9227 33.0721C28.8818 33.7467 30.9878 33.8522 33.0029 33.3768C35.018 32.9013 36.8619 31.8639 38.3264 30.3815C39.0733 29.6239 38.838 28.1712 37.6273 26.0638C36.8928 24.7851 35.8503 23.3614 34.6057 21.9251ZM34.8085 16.4449C35.0214 16.2294 35.3099 16.1083 35.6107 16.1083C35.9115 16.1083 36.2 16.2294 36.4129 16.4449C36.5333 16.567 36.6251 16.715 36.6815 16.878C36.7378 17.041 36.7573 17.2147 36.7384 17.3864C36.7195 17.558 36.6628 17.7231 36.5724 17.8695C36.4821 18.0159 36.3604 18.1397 36.2164 18.2319C36.0724 18.324 35.9098 18.3821 35.7407 18.4018C35.5715 18.4216 35.4002 18.4024 35.2393 18.3458C35.0785 18.2892 34.9322 18.1966 34.8115 18.0748C34.6908 17.9531 34.5986 17.8053 34.5418 17.6425L34.5412 17.6404L34.5403 17.6382C34.4695 17.4339 34.4571 17.2135 34.5045 17.0023C34.5519 16.7912 34.6575 16.598 34.8085 16.4449ZM33.7096 18.5613C33.8745 18.808 34.0842 19.0206 34.3275 19.1877L33.7198 20.9377C33.4423 20.6386 33.1575 20.3407 32.8657 20.0437C32.5738 19.7468 32.2804 19.4583 31.9854 19.1783L33.7096 18.5613ZM26.3469 16.229C27.4002 16.8517 28.5635 17.7087 29.752 18.7295L27.557 19.5143C27.4852 19.54 27.4191 19.5798 27.3624 19.6313C27.3058 19.6829 27.2597 19.7453 27.2268 19.815C27.194 19.8847 27.1749 19.9602 27.1708 20.0373C27.1668 20.1144 27.1777 20.1916 27.203 20.2644C27.2283 20.3372 27.2675 20.4043 27.3184 20.4618C27.3692 20.5192 27.4307 20.566 27.4994 20.5993C27.5681 20.6327 27.6425 20.652 27.7186 20.6561C27.7946 20.6602 27.8707 20.6492 27.9425 20.6235L30.7491 19.6198C31.1822 20.0207 31.6142 20.4391 32.045 20.8751C32.4759 21.3111 32.889 21.7498 33.2843 22.1913L32.2958 25.0375C32.2705 25.1103 32.2596 25.1875 32.2637 25.2646C32.2678 25.3417 32.2868 25.4172 32.3197 25.4869C32.3526 25.5565 32.3987 25.6189 32.4553 25.6705C32.512 25.722 32.5781 25.7618 32.6499 25.7875C32.7217 25.8131 32.7978 25.8242 32.8738 25.82C32.9498 25.8158 33.0243 25.7965 33.0929 25.7632C33.1616 25.7298 33.2231 25.6831 33.2739 25.6256C33.3248 25.5681 33.3639 25.5011 33.3892 25.4282L34.1619 23.2032C35.1675 24.4083 36.0121 25.5878 36.6257 26.6559C37.7526 28.6175 37.6441 29.4093 37.507 29.5495L37.5062 29.5504C37.367 29.6891 36.5862 29.7978 34.6551 28.656C32.9277 27.6346 30.9035 25.9846 28.9555 24.0097C27.7446 22.7914 26.6236 21.4845 25.6016 20.0995C25.5884 20.0787 25.5738 20.0588 25.5581 20.0399C25.1329 19.4577 24.738 18.8533 24.3752 18.2292C23.2875 16.336 23.3507 15.5327 23.4797 15.3529C23.4846 15.3478 23.4894 15.3426 23.4942 15.3376C23.4977 15.3341 23.5006 15.3303 23.5039 15.3268C23.6638 15.1922 24.4512 15.1085 26.3469 16.229ZM23.494 29.5498C22.6408 28.6848 22.536 27.1551 23.0835 25.3601C24.2792 27.1877 25.8234 28.754 27.6252 29.9668C26.9772 30.1812 26.3013 30.2967 25.6198 30.3094C24.7357 30.3093 23.9997 30.0629 23.494 29.5498ZM25.9465 27.062C25.0369 26.1453 24.2509 25.1106 23.609 23.9846C24.029 23.0754 24.5341 22.2092 25.1172 21.3979C26.0532 22.607 27.0611 23.7569 28.1354 24.8413C29.2051 25.9312 30.3393 26.9539 31.5319 27.9036C30.7319 28.4951 29.8779 29.0074 28.9814 29.4334C27.871 28.7823 26.8505 27.9849 25.9465 27.062ZM22.4911 16.9419C22.7243 17.596 23.0197 18.2255 23.3732 18.8215C23.666 19.3311 24.0092 19.8644 24.3931 20.4119C23.8607 21.1269 23.3825 21.8819 22.9627 22.6703C22.676 21.995 22.459 21.2913 22.3153 20.5707C22.0493 19.2096 22.1144 17.9719 22.4911 16.9419ZM32.5043 28.6386C33.0436 29.0277 33.5689 29.3757 34.0708 29.6724C34.6586 30.0313 35.2796 30.331 35.9249 30.5673C34.9092 30.9495 33.6889 31.0154 32.347 30.7456C31.6357 30.5997 30.9412 30.3793 30.2747 30.0881C31.0527 29.6624 31.798 29.1779 32.5043 28.6386ZM21.0136 19.5508C21.042 19.9701 21.0969 20.3871 21.1779 20.7992C21.4073 21.9316 21.793 23.0255 22.3238 24.0486C21.9232 25.0537 21.6856 26.0181 21.6201 26.9017C20.5122 24.6164 20.2956 21.9911 21.0136 19.5508ZM8.3317 18.1231L9.21419 18.7998L8.01063 19.7225L8.3317 18.1231ZM14.14 28.5694L11.1264 26.2206L13.3173 24.5122L14.14 28.5694ZM12.3476 19.7281L11.1372 18.8003L12.0221 18.1221L12.3476 19.7281ZM12.7014 21.4738L13.0574 23.2315L10.1749 25.4791L7.30391 23.2414L7.66067 21.4645L10.1753 19.5372L12.7014 21.4738ZM7.04651 24.5234L9.22396 26.2206L6.23828 28.5489L7.04651 24.5234ZM5.27615 33.3404L8.81629 35.0336L4.52389 37.087L5.27615 33.3404ZM5.51442 32.1542L5.88517 30.3075L10.1753 26.9624L14.4971 30.3311L14.8641 32.1408L10.1756 34.3832L5.51442 32.1542ZM15.1043 33.3262L15.871 37.1076L11.5346 35.0336L15.1043 33.3262ZM8.36664 6.04453C8.36587 5.65854 8.48331 5.28183 8.70272 4.96646C8.92213 4.6511 9.23269 4.41264 9.59148 4.28406C9.95026 4.15548 10.3396 4.14311 10.7056 4.24866C11.0716 4.35422 11.3963 4.57249 11.6347 4.8733C11.8731 5.17412 12.0136 5.54264 12.0366 5.92793C12.0597 6.31322 11.9642 6.69625 11.7633 7.02411C11.5625 7.35196 11.2662 7.60844 10.9155 7.75811C10.5647 7.90778 10.1768 7.94325 9.80534 7.85961C9.80401 7.85961 9.80269 7.85885 9.80128 7.8586H9.79987C9.3936 7.76588 9.03045 7.53584 8.77003 7.20621C8.5096 6.87659 8.36736 6.46696 8.36664 6.04453ZM10.1886 9.07965L11.7632 16.8464L10.1758 18.0631L8.58828 16.8459L10.1479 9.07864C10.1615 9.07864 10.1749 9.07957 10.1886 9.07965ZM4.23502 38.5254L10.1756 35.6838L16.163 38.5476L16.8273 41.8242H3.57276L4.23502 38.5254ZM28.1073 41.8242H20.45L23.3906 31.0471C24.0558 31.6154 24.7849 32.1019 25.5628 32.4965L28.1073 41.8242ZM26.332 31.5661C26.3083 31.5529 26.2837 31.5414 26.2584 31.5317C26.2088 31.5078 26.1598 31.4831 26.1105 31.4584C26.4809 31.4293 26.8487 31.3731 27.2111 31.2905C27.795 31.1551 28.3666 30.9704 28.9201 30.7383C29.9282 31.276 31.006 31.6669 32.1217 31.8993C32.5342 31.9828 32.9517 32.0389 33.3714 32.0672C31.0431 32.7751 28.5401 32.5967 26.332 31.5661ZM40.129 21.8417C40.0203 21.952 39.8729 22.014 39.7191 22.0141C39.5653 22.0142 39.4178 21.9522 39.3091 21.842C39.2003 21.7317 39.1392 21.5822 39.1391 21.4262C39.139 21.2702 39.2001 21.1206 39.3088 21.0102C39.7965 20.5182 40.1837 19.9335 40.4483 19.2894C40.7128 18.6454 40.8495 17.9547 40.8505 17.257C40.8514 16.5592 40.7167 15.8682 40.4539 15.2234C40.1912 14.5786 39.8056 13.9927 39.3193 13.4993C38.8329 13.0059 38.2554 12.6147 37.6198 12.348C36.9841 12.0814 36.3029 11.9447 35.6151 11.9456C34.9272 11.9465 34.2464 12.085 33.6114 12.3533C32.9765 12.6216 32.3999 13.0143 31.9149 13.509C31.8062 13.6193 31.6587 13.6813 31.505 13.6814C31.3512 13.6814 31.2037 13.6195 31.095 13.5092C30.9862 13.399 30.9251 13.2494 30.925 13.0934C30.925 12.9375 30.986 12.7879 31.0947 12.6775C32.2927 11.4623 33.9176 10.7795 35.6118 10.7795C37.306 10.7795 38.9309 11.4622 40.1289 12.6775C41.3269 13.8927 42 15.5409 42 17.2596C42 18.9782 41.327 20.6264 40.129 21.8417ZM32.5432 14.9788C32.4893 14.9243 32.4466 14.8595 32.4174 14.7882C32.3882 14.7169 32.3731 14.6404 32.3731 14.5632C32.373 14.486 32.3879 14.4096 32.417 14.3382C32.4461 14.2668 32.4887 14.202 32.5425 14.1474C32.9455 13.7385 33.424 13.4142 33.9505 13.1929C34.4771 12.9716 35.0415 12.8577 35.6114 12.8577C36.1814 12.8577 36.7458 12.9715 37.2724 13.1928C37.799 13.414 38.2775 13.7383 38.6805 14.1471C39.0835 14.5559 39.4033 15.0412 39.6214 15.5754C39.8395 16.1095 39.9518 16.682 39.9519 17.2602C39.9519 17.8383 39.8396 18.4108 39.6216 18.945C39.4035 19.4792 39.0838 19.9645 38.6808 20.3734C38.627 20.428 38.5631 20.4713 38.4928 20.5008C38.4224 20.5304 38.3471 20.5456 38.271 20.5456C38.1948 20.5456 38.1195 20.5304 38.0492 20.5008C37.9788 20.4713 37.915 20.428 37.8611 20.3734C37.8073 20.3188 37.7646 20.254 37.7355 20.1827C37.7064 20.1113 37.6914 20.0349 37.6914 19.9577C37.6914 19.8805 37.7064 19.804 37.7355 19.7327C37.7646 19.6613 37.8073 19.5965 37.8611 19.5419C38.4577 18.9369 38.7928 18.1162 38.7929 17.2605C38.793 16.4048 38.4579 15.5841 37.8614 14.9789C37.265 14.3738 36.4559 14.0338 35.6124 14.0338C34.7688 14.0337 33.9597 14.3736 33.3632 14.9786C33.3093 15.0333 33.2454 15.0767 33.1751 15.1063C33.1048 15.1358 33.0294 15.1511 32.9532 15.1511C32.877 15.1511 32.8016 15.1359 32.7313 15.1063C32.6609 15.0768 32.597 15.0334 32.5432 14.9788ZM15.7488 0.981692C15.6459 0.865867 15.5925 0.713309 15.6005 0.557579C15.6084 0.40185 15.677 0.255705 15.7912 0.151295C15.9054 0.0468854 16.0558 -0.00723666 16.2093 0.000835294C16.3628 0.00890725 16.5069 0.078512 16.6098 0.194337C18.0338 1.80047 18.8217 3.88423 18.8217 6.04436C18.8217 8.2045 18.0338 10.2883 16.6098 11.8944C16.507 12.0103 16.363 12.0801 16.2095 12.0883C16.056 12.0965 15.9055 12.0426 15.7912 11.9383C15.6769 11.834 15.6082 11.6879 15.6001 11.5322C15.5919 11.3764 15.6451 11.2238 15.748 11.1079C16.9802 9.71769 17.6619 7.91427 17.6619 6.04478C17.6619 4.17529 16.9802 2.37188 15.748 0.981692H15.7488ZM3.79059 11.894C2.36693 10.2879 1.57928 8.20434 1.57928 6.04445C1.57928 3.88456 2.36693 1.80102 3.79059 0.194925C3.84149 0.137492 3.90304 0.0907901 3.97174 0.0574873C4.04043 0.0241844 4.11492 0.00493231 4.19094 0.0008302C4.26697 -0.00327191 4.34305 0.0078563 4.41484 0.0335795C4.48662 0.0593026 4.55271 0.0991169 4.60933 0.150749C4.66595 0.202382 4.71199 0.264821 4.74482 0.334502C4.77765 0.404182 4.79663 0.479741 4.80067 0.556862C4.80472 0.633983 4.79375 0.711157 4.76839 0.783978C4.74303 0.856798 4.70378 0.923839 4.65288 0.981272C3.4205 2.37155 2.73871 4.17515 2.73879 6.04482C2.73887 7.91449 3.4208 9.71804 4.6533 11.1082C4.70416 11.1657 4.74336 11.2327 4.76868 11.3056C4.79399 11.3784 4.80491 11.4556 4.80082 11.5327C4.79673 11.6098 4.77771 11.6853 4.74484 11.755C4.71197 11.8247 4.66589 11.8871 4.60925 11.9387C4.5526 11.9902 4.48649 12.03 4.4147 12.0557C4.3429 12.0814 4.26682 12.0925 4.1908 12.0883C4.11478 12.0842 4.04031 12.0649 3.97164 12.0315C3.90297 11.9982 3.84145 11.9514 3.79059 11.894ZM3.91685 6.04453C3.91593 4.4696 4.49078 2.95027 5.53024 1.78039C5.6331 1.66448 5.77714 1.59478 5.93067 1.5866C6.0842 1.57843 6.23464 1.63245 6.3489 1.7368C6.46315 1.84114 6.53187 1.98725 6.53993 2.14299C6.54799 2.29873 6.49473 2.45133 6.39186 2.56724C5.54503 3.52124 5.07639 4.7595 5.07629 6.04326C5.0762 7.32702 5.54467 8.56535 6.39137 9.51948C6.49436 9.6353 6.54778 9.78789 6.53987 9.94366C6.53196 10.0994 6.46337 10.2456 6.34918 10.3501C6.235 10.4546 6.08458 10.5088 5.93102 10.5008C5.77745 10.4927 5.63332 10.4232 5.53032 10.3073C4.49014 9.13844 3.91512 7.61923 3.91685 6.04453ZM14.0093 2.56698C13.9065 2.45105 13.8533 2.29842 13.8614 2.14269C13.8695 1.98695 13.9382 1.84086 14.0525 1.73655C14.1668 1.63224 14.3173 1.57825 14.4708 1.58648C14.6243 1.5947 14.7684 1.66445 14.8712 1.78039C15.91 2.95044 16.4848 4.46926 16.4848 6.04386C16.4848 7.61846 15.91 9.13728 14.8712 10.3073C14.8202 10.3647 14.7586 10.4113 14.6898 10.4445C14.6211 10.4777 14.5465 10.4968 14.4705 10.5008C14.3945 10.5047 14.3184 10.4935 14.2466 10.4676C14.1749 10.4418 14.1089 10.4019 14.0523 10.3501C13.9958 10.2984 13.9498 10.2359 13.9171 10.1661C13.8844 10.0964 13.8656 10.0208 13.8616 9.94366C13.8577 9.86653 13.8688 9.78937 13.8943 9.71659C13.9198 9.64381 13.9591 9.57683 14.0101 9.51948C14.8569 8.56538 15.3254 7.32704 15.3253 6.04328C15.3252 4.75951 14.8562 3.52098 14.0093 2.56698Z" fill="white"/>
</svg>
