<svg width="85" height="85" viewBox="0 0 85 85" fill="none" xmlns="http://www.w3.org/2000/svg">
<circle cx="42" cy="42" r="42" fill="#C4161C" fill-opacity="0.05"/>
<path d="M84.0781 77.9545H81.743L84.4924 63.3228C84.6154 62.6693 84.4431 62.0021 84.0207 61.4935C83.5982 60.9849 82.9748 60.6924 82.3103 60.6924H65.5049C64.3127 60.6924 63.2613 61.2789 62.6351 62.214L58.2533 60.8715V58.4679C58.2998 58.4215 58.3476 58.3777 58.3941 58.3299C59.8543 56.8232 60.9166 54.9857 61.6603 53.0416H63.0836C64.5137 53.0416 65.6771 51.8781 65.6771 50.448V48.9236C65.6771 47.4935 64.5137 46.3301 63.0836 46.3301H63.0685C63.1219 45.4414 63.126 44.5842 63.0849 43.783C62.8799 39.7457 61.6494 36.4959 59.7107 34.8648C57.8185 33.2734 55.1347 32.4312 52.4031 32.3369C51.6279 28.7221 49.666 25.434 46.8277 23.0195C43.7803 20.4274 39.8961 19 35.8888 19C26.577 19 19 26.577 19 35.8888C19 45.2008 26.577 52.7777 35.8888 52.7777C36.9621 52.7777 38.0326 52.6765 39.0785 52.4769C39.5215 52.8297 40.082 53.043 40.6904 53.043H42.1137C42.8574 54.9871 43.9197 56.8232 45.3799 58.3312C45.4263 58.3791 45.4742 58.4228 45.5207 58.4693V60.8728L40.2857 62.4765C38.2281 63.1068 36.649 64.3756 35.5908 66.2486L35.3228 66.723H34.3617C33.5031 66.723 32.8031 67.4094 32.7771 68.2625H30.5924C29.5506 68.2625 28.7029 69.1101 28.7029 70.1519V73.831C28.7029 74.8728 29.5506 75.7205 30.5924 75.7205H32.773V75.9474C32.773 76.6885 32.9959 77.3775 33.376 77.9531H29.2293C28.7767 77.9531 28.409 78.3209 28.409 78.7734V84.0781C28.409 84.5306 28.7767 84.8984 29.2293 84.8984H84.0781C84.5306 84.8984 84.8984 84.5306 84.8984 84.0781V78.7748C84.8984 78.3222 84.5306 77.9545 84.0781 77.9545ZM65.5049 62.3344H82.3103C82.5496 62.3344 82.6945 62.4642 82.7588 62.5422C82.823 62.6201 82.9242 62.7855 82.8804 63.0207L80.075 77.9545H61.0205L63.7193 63.7918C63.8943 62.9332 64.6285 62.3344 65.5049 62.3344ZM56.0808 77.9545C54.9912 77.9531 54.1039 77.0672 54.1039 75.9762V74.974C54.1039 74.9125 54.1558 74.8605 54.2174 74.8605H59.9404L59.3512 77.9545H56.0808ZM63.0836 47.9721C63.6099 47.9721 64.0365 48.4 64.0365 48.925V50.4494C64.0365 50.9758 63.6086 51.4023 63.0836 51.4023H62.2086C62.5381 50.2594 62.7678 49.1013 62.9127 47.9721H63.0836ZM61.4457 43.8664C61.4689 44.3271 61.4771 44.8084 61.4676 45.3019C59.4564 43.768 57.2553 43.7666 54.9502 43.7666C52.7176 43.7666 50.1855 43.7652 47.2201 42.4254C46.9959 42.3242 46.7388 42.3283 46.5187 42.4377C46.2986 42.5471 46.1387 42.748 46.084 42.9887C45.6246 44.9779 44.55 45.9363 42.3433 46.248C42.2941 45.4181 42.2914 44.6156 42.3297 43.8664C42.5101 40.3349 43.5533 37.4392 45.1215 36.1199C48.5367 33.2474 55.24 33.2474 58.6553 36.1199C60.2221 37.4392 61.2666 40.3349 61.4457 43.8664ZM40.7301 43.176C39.4258 42.9681 38.0791 42.8451 36.7092 42.8109V36.7092H42.543C41.5668 38.3539 40.9324 40.5879 40.7301 43.176ZM36.7092 28.9668C38.6711 28.9162 40.5851 28.6838 42.3679 28.2887C42.9599 30.3162 43.3263 32.6267 43.3947 35.0685H36.7092V28.9668ZM36.7092 27.3262V20.7363C38.7736 21.2162 40.6193 23.4803 41.8471 26.726C40.2297 27.0719 38.4933 27.2783 36.7092 27.3262ZM35.0685 27.3262C33.283 27.2783 31.5467 27.0719 29.9279 26.7246C31.1556 23.4789 33 21.2148 35.0685 20.7363V27.3262ZM35.0685 28.9668V35.0685H28.383C28.45 32.6267 28.8164 30.3162 29.407 28.2887C31.1912 28.6838 33.1066 28.9162 35.0685 28.9668ZM35.0685 36.7092V42.8109C33.1053 42.8615 31.1912 43.0939 29.407 43.489C28.8164 41.4615 28.45 39.151 28.383 36.7092H35.0685ZM35.0685 44.4515V51.0414C33 50.5615 31.1556 48.2988 29.9279 45.0517C31.5467 44.7058 33.2844 44.5008 35.0685 44.4515ZM45.0025 34.1799C44.8836 31.9062 44.5295 29.7775 43.984 27.8758C45.3799 27.4697 46.6691 26.957 47.8053 26.35C49.1847 28.0754 50.2006 30.1179 50.7297 32.3738C48.6474 32.5365 46.6267 33.1394 45.0025 34.1799ZM43.4767 26.3186C42.7426 24.3211 41.7801 22.6408 40.6535 21.3967C42.9422 22.1445 44.9998 23.4174 46.6746 25.0894C45.7107 25.5707 44.6347 25.9836 43.4767 26.3186ZM29.2648 24.1488C28.9121 24.827 28.5963 25.5557 28.3146 26.3213C27.1594 25.9891 26.0861 25.5789 25.125 25.099C26.7916 23.4365 28.8396 22.1568 31.1242 21.4035C30.4474 22.1555 29.824 23.0729 29.2648 24.1488ZM27.8047 27.8799C27.1717 30.0756 26.8053 32.5215 26.741 35.0699H20.6625C20.8375 31.7859 22.057 28.7754 23.993 26.3623C25.1277 26.9652 26.4143 27.4752 27.8047 27.8799ZM26.741 36.7092C26.8053 39.2576 27.1717 41.7035 27.8047 43.8992C26.4143 44.3039 25.1277 44.8125 23.993 45.4168C22.057 43.0037 20.8375 39.9931 20.6625 36.7092H26.741ZM28.3146 45.4564C28.5963 46.2221 28.9135 46.9508 29.2648 47.6289C29.8226 48.7049 30.4474 49.6222 31.1228 50.3742C28.8383 49.6209 26.7902 48.3412 25.1236 46.6787C26.0875 46.1988 27.1607 45.7887 28.3146 45.4564ZM38.0982 48.925V50.4357C37.643 50.7297 37.1795 50.9306 36.7105 51.0387V44.4515C38.0613 44.4871 39.3861 44.6115 40.6644 44.8248C40.6631 45.3129 40.6767 45.816 40.7082 46.3301H40.6931C39.2617 46.3314 38.0982 47.4949 38.0982 48.925ZM40.6918 51.4023C40.1654 51.4023 39.7388 50.9744 39.7388 50.4494V48.925C39.7388 48.3986 40.1668 47.9721 40.6918 47.9721H40.8627C41.0076 49.1027 41.2387 50.2594 41.5668 51.4023H40.6918ZM42.5019 47.8859C44.4269 47.6344 46.4613 46.8674 47.4101 44.2847C50.314 45.4086 52.7654 45.4086 54.9515 45.4086C57.5929 45.4086 59.5303 45.4113 61.3336 47.406C61.1695 48.8771 60.8537 50.4043 60.3478 51.8754C60.3232 51.9287 60.3027 51.9861 60.289 52.0449C59.615 53.9453 58.6183 55.7418 57.217 57.1883C55.806 58.6443 53.9138 59.4469 51.889 59.4469C49.8642 59.4469 47.9721 58.6443 46.5611 57.1883C44.1521 54.7041 42.9408 51.1849 42.5019 47.8859ZM51.8877 61.0875C53.5857 61.0875 55.2058 60.6267 56.6127 59.7613V61.3377C55.8006 63.6359 54.0014 65.0578 51.8877 65.0578C49.774 65.0578 47.9748 63.6359 47.1627 61.3377V59.7613C48.5695 60.6267 50.1896 61.0875 51.8877 61.0875ZM40.7656 64.0447L45.8529 62.4861C46.9986 65.1043 49.2517 66.6998 51.8877 66.6998C54.5236 66.6998 56.7767 65.1043 57.9224 62.4861L62.0555 63.7521L60.2508 73.2185H54.216C53.2494 73.2185 52.4619 74.0047 52.4619 74.9726V75.9748C52.4619 76.7049 52.6793 77.3844 53.0525 77.9531H42.3051C42.6865 77.3775 42.908 76.6871 42.908 75.9474V68.3103C42.908 67.4353 42.1957 66.723 41.3207 66.723H37.215C38.0627 65.3955 39.2262 64.5164 40.7656 64.0447ZM30.5924 74.0799C30.457 74.0799 30.3435 73.9664 30.3435 73.831V70.1519C30.3435 70.0166 30.457 69.9031 30.5924 69.9031H32.773V74.0799H30.5924ZM34.4137 75.9488V68.365H41.2701V75.9488C41.2701 77.0549 40.3705 77.9545 39.2658 77.9545H36.4193C35.3133 77.9531 34.4137 77.0535 34.4137 75.9488ZM83.2578 83.2578H30.0496V79.5951H36.4166H36.4193H39.2631H39.2658H56.0795H56.0822H83.2578V83.2578Z" fill="#C4161C"/>
</svg>
