<svg width="87" height="87" viewBox="0 0 87 87" fill="none" xmlns="http://www.w3.org/2000/svg">
<circle cx="42" cy="42" r="42" fill="#C4161C" fill-opacity="0.05"/>
<mask id="mask0_415_4621" style="mask-type:luminance" maskUnits="userSpaceOnUse" x="17" y="17" width="70" height="70">
<path d="M87 17H17V87H87V17Z" fill="white"/>
</mask>
<g mask="url(#mask0_415_4621)">
<path d="M82.406 49.3542L78.8333 46.0379V34.1355L80.5503 33.313C81.0413 33.0777 81.3344 32.6335 81.3344 32.1249C81.3344 31.5829 80.9907 31.0946 80.415 30.8187L52.3738 17.3871C51.8515 17.1369 50.9923 17.0097 50.34 17.3223L22.0282 30.8835C21.5373 31.1188 21.2441 31.563 21.2441 32.0716C21.2441 32.6137 21.5877 33.1019 22.1634 33.3778L30.1544 37.2056V44.9576C26.7862 49.5035 25.0071 54.897 25.0071 60.5812C25.0069 75.0734 36.7972 86.8634 51.2891 86.8634C65.781 86.8634 77.5712 75.0734 77.5712 60.5813C77.5712 59.8984 77.5415 59.213 77.489 58.5318H81.6618C82.2659 58.5318 82.7556 58.042 82.7556 57.438V50.156C82.7557 49.8518 82.629 49.5612 82.406 49.3542ZM76.6458 46.038L74.4231 48.1009C73.8329 47.0095 73.1634 45.9588 72.4243 44.9602V37.2056L76.6456 35.1835L76.6458 46.038ZM51.2244 19.3241C51.2839 19.3231 51.3811 19.3371 51.4288 19.3599L78.0227 32.0984L77.5173 32.3406L51.345 31.0063C50.7437 30.9734 50.2277 31.4396 50.197 32.0429C50.1662 32.6461 50.6304 33.1602 51.2337 33.1908L73.3848 34.3201L51.3543 44.8729C51.2954 44.8744 51.1978 44.8599 51.15 44.8371L24.5558 32.0984L51.2244 19.3241ZM50.2046 46.8098C50.5084 46.9552 50.926 47.0591 51.3507 47.0591C51.6563 47.0591 51.9656 47.0053 52.2385 46.8744L70.2368 38.2532V46.9547C70.2368 47.0872 70.1813 47.1754 70.0619 47.2325L55.8651 54.0328C52.8715 55.4667 49.7067 55.4667 46.713 54.0328L32.5168 47.2325C32.3974 47.1754 32.3419 47.0872 32.3419 46.9547V38.2534L50.2046 46.8098ZM75.3579 61.6751C75.1816 65.5992 74.0632 69.282 72.2225 72.5015H64.0403C64.9489 69.1735 65.4674 65.4959 65.5506 61.6751H75.3579ZM61.7697 72.5015H52.383V61.6751H63.3629C63.2755 65.5282 62.7275 69.2152 61.7697 72.5015ZM27.2204 61.6751H37.0278C37.1111 65.4959 37.6295 69.1735 38.5382 72.5015H30.3558C28.5152 69.2818 27.3967 65.5992 27.2204 61.6751ZM31.5716 49.2055L37.7531 52.1665C37.3267 54.526 37.0826 56.9799 37.0281 59.4876H27.2193C27.395 55.503 28.5314 51.6986 30.5491 48.3071C30.7936 48.6868 31.1423 48.9997 31.5716 49.2055ZM50.1955 59.4876H39.2155C39.2648 57.3204 39.4632 55.1982 39.8032 53.1486L45.768 56.0059C47.2194 56.7011 48.7041 57.1165 50.1955 57.2529V59.4876ZM39.2156 61.6751H50.1955V72.5015H40.8086C39.8508 69.2152 39.3028 65.5282 39.2156 61.6751ZM50.1955 74.689V84.574C47.502 84.0755 44.9582 81.7452 42.9383 77.8851C42.4167 76.8883 41.946 75.8189 41.5285 74.689H50.1955ZM52.383 84.5738V74.689H61.05C60.6323 75.8189 60.1617 76.8883 59.64 77.8851C57.6201 81.7451 55.0763 84.0753 52.383 84.5738ZM52.383 59.4876V57.2528C53.8742 57.1162 55.3588 56.701 56.8101 56.0057L62.7751 53.1485C63.1151 55.1983 63.3135 57.3206 63.3629 59.4876H52.383ZM31.7691 74.689H39.209C39.7224 76.1889 40.3204 77.6003 41.0002 78.8993C42.0055 80.8205 43.1461 82.4186 44.3868 83.6668C39.257 82.1302 34.8409 78.9276 31.7691 74.689ZM58.1916 83.6668C59.4322 82.4187 60.5728 80.8205 61.5783 78.8993C62.258 77.6003 62.856 76.189 63.3694 74.689H70.8094C67.7373 78.9276 63.3213 82.1302 58.1916 83.6668ZM75.3564 59.4876H65.5504C65.4958 56.9801 65.2518 54.526 64.8253 52.1665L71.0071 49.2055C71.435 49.0004 71.7828 48.6887 72.0273 48.3107C72.3036 48.7765 72.5651 49.2507 72.809 49.7334C72.7535 49.8658 72.7233 50.0093 72.7233 50.1561V57.4381C72.7233 58.0422 73.213 58.5319 73.8171 58.5319H75.2954C75.3221 58.8495 75.342 59.1682 75.3564 59.4876ZM80.5682 56.3441H74.9108V50.633L77.7395 48.0073L80.5682 50.633V56.3441Z" fill="#C4161C"/>
</g>
</svg>
