<svg width="42" height="42" viewBox="0 0 42 42" fill="none" xmlns="http://www.w3.org/2000/svg">
<path d="M41.1394 36.7336H39.3753V34.1176C39.3753 33.6443 38.988 33.2571 38.5147 33.2571H35.8298V13.1381H41.1308C41.5181 13.1381 41.8623 12.8713 41.9656 12.4927C42.0689 12.1141 41.8967 11.7182 41.5612 11.5203L21.4241 0.109734C21.1573 -0.0365779 20.839 -0.0365779 20.5722 0.109734L0.43507 11.5202C0.0908081 11.7096 -0.0726304 12.114 0.0306483 12.4926C0.133927 12.8712 0.469497 13.138 0.865398 13.138H6.16644V33.257H3.48145C3.00817 33.257 2.62088 33.6442 2.62088 34.1175V36.7335H0.865398C0.392124 36.7335 0.00482863 37.1207 0.00482863 37.594V41.1393C0.00482863 41.6126 0.392038 41.9999 0.865398 41.9999H41.1394C41.6127 41.9999 42 41.6127 42 41.1393V37.594C42 37.1209 41.6128 36.7336 41.1394 36.7336ZM4.12694 11.417L21.0025 1.85661L37.878 11.417H4.12694ZM34.1173 13.1381V33.2571H30.5891V13.1381H34.1173ZM28.8679 13.1381V33.2571H24.4877V13.1381H28.8679ZM22.7666 13.1381V33.2571H19.2382V13.1381H22.7666ZM17.5172 13.1381V33.2571H13.137V13.1381H17.5172ZM11.4158 13.1381V33.2571H7.88757V13.1381H11.4158ZM4.35062 34.9782H37.6542V36.7336H4.35062V34.9782ZM40.2789 40.2789H1.72597V38.4546H38.5148H40.2789L40.2789 40.2789Z" fill="black"/>
<path d="M27.5256 7.99203L21.4242 4.5155C21.1574 4.36918 20.839 4.36918 20.5722 4.5155L14.4709 7.99203C14.1352 8.18998 13.9632 8.58579 14.0665 8.96439C14.1697 9.33439 14.5139 9.6012 14.9012 9.6012H27.1039C27.4912 9.6012 27.8354 9.33439 27.9301 8.96439C28.0334 8.58579 27.8612 8.18128 27.5256 7.99203ZM18.1541 7.88014L21.0112 6.25376L23.8596 7.88014H18.1541Z" fill="black"/>
</svg>
