<svg width="50" height="52" viewBox="0 0 50 52" fill="none" xmlns="http://www.w3.org/2000/svg">
<path d="M45.0964 33.161C45.8331 33.6875 46.4022 34.3245 46.6422 35.2353C46.7714 36.3323 46.7352 37.3107 46.0901 38.2313C45.3897 39.007 44.5549 39.5153 43.668 40.0247C43.5311 40.1046 43.3944 40.1846 43.2577 40.2648C42.9773 40.4292 42.6966 40.5931 42.4157 40.7566C41.7921 41.1206 41.1741 41.4947 40.5558 41.8684C40.3186 42.0114 40.0814 42.1544 39.8442 42.2974C39.7272 42.368 39.6101 42.4386 39.4896 42.5113C38.7739 42.9428 38.058 43.3737 37.342 43.8046C36.7327 44.1713 36.1236 44.5385 35.5149 44.9064C34.8084 45.3332 34.1011 45.7586 33.393 46.1825C33.2991 46.2388 33.2052 46.2952 33.1084 46.3532C30.8325 47.7131 28.5759 48.8029 26.0025 49.3803C25.9014 49.4032 25.8003 49.4261 25.6962 49.4497C23.896 49.8296 22.0726 49.9234 20.2405 49.9276C20.1316 49.9282 20.0228 49.9287 19.9106 49.9293C16.9672 49.9346 14.042 49.6062 11.118 49.284C10.9912 49.2702 10.8645 49.2563 10.734 49.2421C10.6237 49.2298 10.5134 49.2175 10.3998 49.2049C10.113 49.18 9.83217 49.1738 9.54455 49.1786C9.50812 49.3141 9.47168 49.4496 9.43414 49.5891C9.21976 50.1862 8.83753 50.5639 8.33005 50.9071C7.78056 51.1434 7.30024 51.173 6.71617 51.1723C6.62608 51.1728 6.53598 51.1733 6.44316 51.1738C6.25331 51.1744 6.06345 51.1745 5.8736 51.174C5.58525 51.1736 5.29703 51.1763 5.0087 51.1792C4.82339 51.1795 4.63808 51.1796 4.45277 51.1795C4.32507 51.1811 4.32507 51.1811 4.19479 51.1827C3.50735 51.1766 2.8846 51.049 2.34119 50.5767C2.2817 50.5004 2.22221 50.424 2.16091 50.3454C2.09971 50.2696 2.03851 50.1939 1.97546 50.1158C1.68645 49.6707 1.5677 49.2693 1.5648 48.7336C1.5637 48.6239 1.56259 48.5143 1.56146 48.4013C1.56138 48.2823 1.56131 48.1634 1.56124 48.0408C1.56032 47.9145 1.5594 47.7881 1.55845 47.6579C1.55579 47.2401 1.55482 46.8223 1.55409 46.4044C1.5531 46.1135 1.55209 45.8225 1.55107 45.5316C1.54925 44.9214 1.5484 44.3113 1.54808 43.7011C1.54768 42.9981 1.54438 42.2952 1.53976 41.5923C1.53545 40.9138 1.53421 40.2354 1.53409 39.5569C1.53362 39.2693 1.53226 38.9818 1.52995 38.6942C1.52697 38.291 1.52751 37.8879 1.52889 37.4847C1.52725 37.3669 1.52561 37.2491 1.52393 37.1278C1.53176 36.3189 1.69527 35.6728 2.14711 35.0048C2.85433 34.3859 3.49787 34.2951 4.40188 34.29C4.53749 34.289 4.53749 34.289 4.67584 34.288C4.86701 34.2869 5.05819 34.2861 5.24936 34.2857C5.53965 34.2846 5.82986 34.281 6.12013 34.2774C6.30645 34.2766 6.49276 34.276 6.67908 34.2756C6.76491 34.2741 6.85074 34.2727 6.93916 34.2713C7.61976 34.2741 8.22021 34.4061 8.78203 34.836C9.21332 35.3249 9.21332 35.3249 9.21332 35.581C9.30295 35.5625 9.39258 35.5441 9.48493 35.5251C9.93639 35.4565 10.3743 35.4429 10.8298 35.4383C10.9216 35.4372 11.0135 35.4361 11.1081 35.4349C11.4058 35.4321 11.7035 35.4306 12.0012 35.4297C12.153 35.4291 12.153 35.4291 12.3078 35.4286C14.1255 35.4264 15.9154 35.5305 17.6765 36.0443C18.1388 36.1648 18.5869 36.1894 19.062 36.1866C19.1477 36.187 19.2335 36.1874 19.3218 36.1878C19.5065 36.1886 19.6911 36.1889 19.8757 36.1888C20.1688 36.1886 20.4617 36.1901 20.7547 36.1921C21.5872 36.1974 22.4198 36.2003 23.2523 36.201C23.763 36.2016 24.2737 36.2044 24.7845 36.2085C24.9781 36.2097 25.1717 36.2099 25.3654 36.2093C26.7481 36.2052 27.7418 36.3167 28.7864 37.3333C29.3919 37.991 29.6504 38.6393 29.6529 39.5421C29.6486 39.7198 29.6441 39.8975 29.6391 40.0751C30.6383 39.8731 31.4357 39.51 32.3096 38.9732C32.4305 38.9007 32.5514 38.8282 32.676 38.7535C33.0264 38.5428 33.3755 38.3299 33.7242 38.1161C33.8893 38.0156 34.0543 37.915 34.2194 37.8145C34.5138 37.6345 34.8075 37.4534 35.1009 37.2717C36.0914 36.6599 37.0914 36.0651 38.0888 35.4657C38.4792 35.2309 38.8693 34.9957 39.2594 34.7604C39.3888 34.6823 39.5183 34.6042 39.6478 34.5262C39.892 34.3789 40.1361 34.2316 40.3803 34.0842C40.7007 33.8911 41.0215 33.6987 41.3425 33.5067C41.4373 33.4496 41.532 33.3924 41.6297 33.3336C41.7606 33.2557 41.7606 33.2557 41.8941 33.1763C41.9693 33.1314 42.0445 33.0864 42.122 33.04C43.0032 32.5897 44.2443 32.6834 45.0964 33.161ZM3.39462 36.185C3.21188 36.4432 3.20958 36.5888 3.20915 36.9081C3.20821 37.0147 3.20728 37.1213 3.20632 37.2312C3.20699 37.3479 3.20766 37.4647 3.20835 37.585C3.20777 37.7081 3.20719 37.8312 3.20659 37.9581C3.20513 38.3661 3.2061 38.774 3.20722 39.182C3.20699 39.4649 3.20667 39.7478 3.20626 40.0306C3.20577 40.6239 3.20648 41.2171 3.20802 41.8104C3.20991 42.5718 3.20883 43.3333 3.20684 44.0948C3.20565 44.679 3.20602 45.2632 3.20688 45.8474C3.2071 46.1283 3.20683 46.4091 3.20606 46.6899C3.20523 47.082 3.2065 47.474 3.20835 47.866C3.20768 47.9828 3.20701 48.0995 3.20632 48.2198C3.20725 48.3264 3.20818 48.4331 3.20915 48.5429C3.20927 48.6356 3.2094 48.7283 3.20952 48.8238C3.26224 49.1268 3.34632 49.2283 3.58244 49.4091C3.87849 49.4449 4.14841 49.4603 4.44458 49.4591C4.52884 49.4597 4.61309 49.4603 4.6999 49.4609C4.878 49.4616 5.05609 49.4615 5.23419 49.4605C5.50638 49.4595 5.77831 49.4628 6.05048 49.4665C6.22364 49.4667 6.3968 49.4666 6.56996 49.4663C6.65117 49.4675 6.73238 49.4688 6.81605 49.4702C7.15607 49.4654 7.39856 49.4407 7.6891 49.25C8.0022 48.7758 7.94901 48.3111 7.9438 47.7483C7.9444 47.6263 7.945 47.5042 7.94561 47.3785C7.94699 46.9749 7.94516 46.5713 7.94318 46.1677C7.9432 45.8875 7.94336 45.6074 7.94367 45.3273C7.94382 44.7402 7.94243 44.1531 7.93992 43.5659C7.93678 42.8123 7.93709 42.0588 7.93849 41.3052C7.93926 40.7268 7.93841 40.1484 7.93703 39.57C7.93653 39.2921 7.9365 39.0141 7.93693 38.7362C7.93725 38.3483 7.93543 37.9605 7.93302 37.5725C7.93352 37.4571 7.93401 37.3416 7.93453 37.2226C7.93343 37.1171 7.93234 37.0116 7.93121 36.9029C7.93081 36.7654 7.93081 36.7654 7.9304 36.625C7.87706 36.3234 7.79264 36.2218 7.55718 36.0419C7.25199 36.0075 6.97218 35.9934 6.667 35.996C6.58003 35.9957 6.49306 35.9953 6.40346 35.995C6.2197 35.9947 6.03594 35.9954 5.85219 35.9968C5.57083 35.9987 5.28963 35.9968 5.00827 35.9946C4.82972 35.9949 4.65117 35.9953 4.47261 35.996C4.38842 35.9953 4.30422 35.9946 4.21748 35.9939C3.77892 35.9921 3.77892 35.9921 3.39462 36.185ZM42.4311 34.8499C42.2714 34.9443 42.2714 34.9443 42.1084 35.0406C41.9479 35.1369 41.9479 35.1369 41.7841 35.2353C41.5906 35.3482 41.3969 35.4611 41.2032 35.5738C41.0034 35.6912 40.8037 35.8089 40.6041 35.9267C40.4949 35.9911 40.3857 36.0555 40.2732 36.1219C39.387 36.6462 38.5066 37.1805 37.6278 37.7181C36.6849 38.294 35.7366 38.8597 34.7868 39.4233C33.9105 39.9434 33.0414 40.4727 32.1871 41.0316C31.5988 41.3706 31.0252 41.6051 30.3498 41.6524C30.1955 41.6648 30.1955 41.6648 30.038 41.6776C29.7495 41.6884 29.7495 41.6884 29.3217 41.6524C28.9494 41.6494 28.9494 41.6494 28.7213 41.9981C28.6785 42.0608 28.6356 42.1234 28.5915 42.188C28.1403 42.7064 27.4171 42.9645 26.7684 43.0712C26.4786 43.0818 26.1917 43.087 25.902 43.0861C25.8164 43.0863 25.7309 43.0865 25.6428 43.0867C25.3612 43.0872 25.0795 43.0869 24.7979 43.0865C24.6017 43.0866 24.4055 43.0867 24.2093 43.0868C23.7986 43.087 23.388 43.0868 22.9773 43.0862C22.451 43.0856 21.9246 43.0859 21.3983 43.0866C20.9934 43.087 20.5885 43.0869 20.1835 43.0866C19.9895 43.0865 19.7954 43.0866 19.6013 43.0869C19.3301 43.0872 19.059 43.0867 18.7879 43.0861C18.6677 43.0865 18.6677 43.0865 18.545 43.0868C18.1789 43.0852 17.8442 43.0744 17.494 42.956C17.4851 42.7904 17.4787 42.6247 17.4733 42.459C17.4676 42.3206 17.4676 42.3206 17.4617 42.1795C17.494 41.9188 17.494 41.9188 17.6088 41.7324C17.9401 41.4887 18.2809 41.5264 18.6716 41.5306C18.7576 41.5302 18.8436 41.5298 18.9323 41.5293C19.1191 41.5286 19.306 41.5286 19.4929 41.5293C19.7891 41.5304 20.0851 41.5292 20.3813 41.5274C21.2233 41.5228 22.0654 41.5227 22.9074 41.5229C23.4225 41.5229 23.9376 41.5207 24.4527 41.5172C24.7438 41.516 25.0348 41.5174 25.3258 41.5188C25.5056 41.5178 25.6853 41.5166 25.865 41.5153C25.9453 41.5165 26.0257 41.5176 26.1084 41.5187C26.7165 41.5099 27.0505 41.3448 27.5413 40.997C27.9038 40.5895 28.0139 40.2731 28.0381 39.7294C28.0147 39.1867 27.8973 38.8724 27.5413 38.4618C26.8775 37.9164 26.3196 37.8686 25.4985 37.8693C25.4169 37.8689 25.3353 37.8685 25.2512 37.8681C25.0743 37.8672 24.8975 37.8666 24.7206 37.8662C24.4384 37.8654 24.1562 37.8636 23.8741 37.8614C23.0718 37.8554 22.2696 37.8499 21.4673 37.8481C17.3551 37.8374 17.3551 37.8374 15.3963 37.3095C15.0244 37.2445 14.6539 37.1992 14.2784 37.1654C14.1436 37.1524 14.1436 37.1524 14.0061 37.1392C12.5085 37.0068 11.0464 37.0897 9.54455 37.1942C9.54455 40.5406 9.54455 43.8871 9.54455 47.3349C9.83429 47.4861 10.0843 47.4931 10.4076 47.5248C10.5426 47.5383 10.6776 47.5517 10.8168 47.5656C10.9654 47.5799 11.1141 47.5943 11.2628 47.6085C11.4162 47.6236 11.5695 47.6386 11.7228 47.6537C12.0458 47.6854 12.3688 47.7168 12.6919 47.7479C13.1 47.7872 13.508 47.8273 13.916 47.8676C18.6345 48.333 23.5521 48.7229 28.0934 46.9892C28.1641 46.9627 28.2349 46.9362 28.3079 46.9089C30.65 46.0163 32.7891 44.5942 34.9293 43.2797C35.5149 42.9213 36.1032 42.5678 36.6915 42.2141C36.8107 42.1424 36.93 42.0707 37.0529 41.9968C37.2946 41.8514 37.5364 41.706 37.7782 41.5606C38.1386 41.3439 38.4989 41.127 38.8591 40.9101C39.0368 40.8031 39.0368 40.8031 39.2181 40.694C39.4555 40.5509 39.693 40.4078 39.9304 40.2647C40.4863 39.9295 41.0425 39.5951 41.6004 39.2635C41.7972 39.1465 41.9938 39.0293 42.1904 38.912C42.4365 38.7652 42.6829 38.6188 42.9296 38.4731C44.1079 37.81 44.1079 37.81 44.9929 36.8053C45.1147 36.3137 45.141 35.9491 44.986 35.4657C44.7391 35.0317 44.4399 34.7381 43.9923 34.5438C43.397 34.4159 42.9522 34.5383 42.4311 34.8499Z" fill="black"/>
<path d="M22.2669 8.35217C22.4676 8.34996 22.4676 8.34996 22.6723 8.34771C22.8155 8.34746 22.9587 8.3472 23.1063 8.34694C23.2564 8.3462 23.4066 8.34542 23.5567 8.34461C23.8708 8.34324 24.185 8.34281 24.4991 8.34294C24.8993 8.34297 25.2994 8.33982 25.6996 8.33585C26.0096 8.33327 26.3196 8.33282 26.6297 8.33294C26.8482 8.33254 27.0667 8.33005 27.2852 8.32751C28.1695 8.33217 28.9493 8.39683 29.6249 9.04489C30.2978 9.78704 30.3326 10.5617 30.3152 11.5402C30.3142 11.647 30.3132 11.7538 30.3122 11.8638C30.3096 12.1257 30.306 12.3875 30.3014 12.6493C30.4934 12.6448 30.4934 12.6448 30.6893 12.6402C31.1687 12.6297 31.6482 12.6231 32.1277 12.6177C32.3343 12.6148 32.541 12.6109 32.7476 12.6059C35.1164 12.5498 35.1164 12.5498 36.0297 13.4245C36.787 14.2302 36.8645 15.1763 36.8584 16.2499C36.8593 16.4401 36.8593 16.4401 36.8602 16.6341C36.8617 17.0512 36.8607 17.4682 36.8596 17.8853C36.8598 18.1763 36.8601 18.4673 36.8605 18.7583C36.861 19.3674 36.8603 19.9764 36.8588 20.5855C36.857 21.2878 36.8575 21.99 36.8594 22.6922C36.8611 23.3702 36.8609 24.0483 36.8599 24.7263C36.8597 25.0137 36.86 25.3011 36.8607 25.5886C36.8616 25.9907 36.8603 26.3927 36.8584 26.7948C36.8591 26.9129 36.8598 27.0309 36.8605 27.1526C36.852 28.1571 36.629 29.0832 35.9323 29.8192C35.1779 30.3733 34.5309 30.5245 33.6143 30.5268C33.5379 30.5272 33.4615 30.5275 33.3827 30.5279C33.1274 30.5289 32.872 30.529 32.6167 30.5292C32.4333 30.5297 32.2499 30.5303 32.0665 30.5309C31.5687 30.5325 31.071 30.5332 30.5732 30.5337C30.262 30.5341 29.9508 30.5345 29.6395 30.535C28.6651 30.5366 27.6907 30.5377 26.7163 30.5382C25.5927 30.5387 24.4692 30.5407 23.3456 30.5441C22.4763 30.5465 21.607 30.5477 20.7376 30.5479C20.2188 30.548 19.7 30.5487 19.1812 30.5507C18.6929 30.5526 18.2047 30.5529 17.7164 30.5519C17.5377 30.5518 17.359 30.5523 17.1803 30.5534C16.0253 30.5604 14.9745 30.5312 14.0238 29.772C13.4456 29.161 13.1754 28.3875 13.1724 27.5428C13.1718 27.4329 13.1712 27.3231 13.1705 27.2099C13.1704 27.0902 13.1703 26.9705 13.1702 26.8471C13.1696 26.7204 13.1691 26.5937 13.1685 26.4631C13.1669 26.0436 13.1661 25.624 13.1655 25.2045C13.1649 24.9128 13.1642 24.6211 13.1636 24.3295C13.1626 23.7958 13.1619 23.2622 13.1616 22.7286C13.1611 21.9447 13.1591 21.1609 13.1559 20.3771C13.1533 19.6969 13.1524 19.0166 13.1522 18.3364C13.1519 18.0477 13.151 17.759 13.1496 17.4703C13.1477 17.0659 13.1479 16.6616 13.1486 16.2573C13.1476 16.1385 13.1466 16.0197 13.1455 15.8973C13.1504 15.0041 13.2832 14.2396 13.8642 13.5424C13.9214 13.4705 13.9786 13.3986 14.0376 13.3245C14.7396 12.7334 15.4672 12.5814 16.3489 12.6043C16.4455 12.605 16.5421 12.6056 16.6416 12.6063C16.9465 12.6088 17.2512 12.6146 17.556 12.6205C17.7643 12.6228 17.9725 12.6249 18.1807 12.6268C18.6879 12.6319 19.195 12.6398 19.7021 12.6493C19.6998 12.5849 19.6975 12.5206 19.6951 12.4542C19.6858 12.1568 19.6801 11.8593 19.6745 11.5618C19.6708 11.4606 19.6671 11.3593 19.6633 11.255C19.6517 10.4364 19.791 9.71094 20.3338 9.09014C20.9023 8.5335 21.4905 8.35799 22.2669 8.35217ZM21.3583 10.5751C21.3583 11.2596 21.3583 11.9441 21.3583 12.6493C23.763 12.6493 26.1677 12.6493 28.6453 12.6493C28.6453 11.9648 28.6453 11.2803 28.6453 10.5751C28.1749 10.0732 28.1749 10.0732 27.5727 10.0545C27.4459 10.0531 27.3192 10.0516 27.1886 10.0501C27.0522 10.0511 26.9158 10.052 26.7752 10.0529C26.6348 10.0525 26.4943 10.0521 26.3496 10.0516C26.0525 10.0513 25.7556 10.0519 25.4586 10.0541C25.0784 10.0567 24.6983 10.0552 24.3181 10.0524C23.9548 10.0504 23.5916 10.0518 23.2283 10.0529C23.0919 10.052 22.9555 10.0511 22.815 10.0501C22.6248 10.0523 22.6248 10.0523 22.4309 10.0545C22.3194 10.0549 22.208 10.0553 22.0931 10.0556C21.7328 10.0978 21.7328 10.0978 21.3583 10.5751ZM14.9545 14.954C14.7785 15.3214 14.8329 15.7179 14.8372 16.1208C14.8377 16.2077 14.8382 16.2946 14.8387 16.3841C14.84 16.5988 14.842 16.8135 14.8441 17.0282C16.2061 17.8489 17.5953 18.6154 18.985 19.3832C19.0617 19.4256 19.1383 19.468 19.2173 19.5116C19.2942 19.5541 19.3711 19.5966 19.4503 19.6403C19.9773 19.9317 20.5033 20.2247 21.0287 20.519C21.0991 20.5584 21.1694 20.5978 21.2418 20.6384C21.5739 20.8244 21.9059 21.0107 22.2378 21.1972C23.7466 22.1295 23.7466 22.1295 25.4434 22.329C26.3241 22.0418 27.1417 21.5652 27.9552 21.119C28.0876 21.0469 28.2199 20.9748 28.3522 20.9027C29.2476 20.4139 30.1372 19.9143 31.0227 19.4061C31.6105 19.0689 32.2 18.7354 32.7917 18.4056C32.8628 18.366 32.9339 18.3263 33.0072 18.2855C33.3592 18.0893 33.7114 17.8934 34.0637 17.6978C34.2536 17.5921 34.2536 17.5921 34.4474 17.4842C34.5609 17.4212 34.6743 17.3582 34.7913 17.2933C35.037 17.1665 35.037 17.1665 35.1594 17.0282C35.1795 16.731 35.1902 16.4399 35.1939 16.1424C35.1971 16.0607 35.2004 15.9791 35.2036 15.895C35.2105 15.299 35.0932 14.9663 34.7178 14.4931C34.3958 14.3251 34.1129 14.3618 33.7532 14.3601C33.6758 14.3596 33.5985 14.3591 33.5188 14.3586C33.2583 14.357 32.9979 14.3563 32.7374 14.3556C32.5512 14.3547 32.365 14.3537 32.1787 14.3528C31.566 14.3497 30.9534 14.348 30.3407 14.3463C30.1299 14.3457 29.9192 14.3451 29.7085 14.3445C28.8321 14.342 27.9557 14.3398 27.0793 14.3385C25.8223 14.3366 24.5654 14.3328 23.3084 14.3263C22.4251 14.3218 21.5419 14.3195 20.6586 14.3189C20.1307 14.3185 19.6029 14.3171 19.0751 14.3134C18.5786 14.3099 18.0821 14.3092 17.5856 14.3106C17.4033 14.3106 17.221 14.3096 17.0388 14.3076C16.7899 14.305 16.5413 14.3059 16.2924 14.3078C16.1532 14.3074 16.0139 14.307 15.8704 14.3066C15.4089 14.397 15.2477 14.5802 14.9545 14.954ZM14.8441 18.9872C14.8313 20.1472 14.8215 21.3071 14.8155 22.4672C14.8126 23.0058 14.8087 23.5445 14.8024 24.0831C14.7964 24.6032 14.7931 25.1231 14.7917 25.6432C14.7907 25.8414 14.7887 26.0396 14.7857 26.2378C14.7817 26.5159 14.7812 26.7938 14.7814 27.0719C14.7794 27.1535 14.7774 27.235 14.7754 27.3191C14.7818 27.9664 14.9733 28.2285 15.3961 28.6669C15.7159 28.8338 15.9942 28.7982 16.3516 28.7999C16.428 28.8004 16.5044 28.8009 16.583 28.8014C16.8402 28.8029 17.0973 28.8037 17.3545 28.8044C17.5384 28.8053 17.7223 28.8062 17.9061 28.8072C18.5111 28.8102 19.1161 28.812 19.7211 28.8136C19.9292 28.8143 20.1373 28.8149 20.3455 28.8155C21.2112 28.818 22.0768 28.8202 22.9425 28.8214C24.1838 28.8233 25.4251 28.8271 26.6664 28.8337C27.5388 28.8382 28.4112 28.8404 29.2836 28.841C29.8048 28.8414 30.326 28.8428 30.8472 28.8466C31.3377 28.85 31.8281 28.8508 32.3186 28.8494C32.4985 28.8494 32.6784 28.8503 32.8583 28.8524C33.1042 28.855 33.3499 28.854 33.5958 28.8522C33.8021 28.8528 33.8021 28.8528 34.0125 28.8533C34.5106 28.7585 34.6918 28.5748 35.049 28.206C35.2149 27.8597 35.1738 27.5039 35.172 27.1242C35.172 26.9927 35.172 26.9927 35.172 26.8585C35.1719 26.5679 35.1711 26.2774 35.1702 25.9868C35.17 25.7856 35.1699 25.5844 35.1698 25.3832C35.1693 24.8532 35.1682 24.3231 35.167 23.793C35.1659 23.2524 35.1654 22.7117 35.1648 22.171C35.1637 21.1097 35.1618 20.0485 35.1594 18.9872C34.8826 19.1311 34.6057 19.2752 34.3289 19.4193C34.2518 19.4594 34.1746 19.4995 34.0951 19.5408C33.4338 19.8853 32.7787 20.2414 32.1268 20.6049C31.8304 20.7701 31.5338 20.9351 31.2371 21.0997C30.4977 21.5105 29.7597 21.9238 29.024 22.3416C28.8932 22.4157 28.7624 22.4898 28.6316 22.5639C28.3902 22.701 28.1489 22.8386 27.908 22.9768C27.078 23.4481 26.3187 23.8504 25.3606 23.9279C25.1804 23.9453 25.1804 23.9453 24.9966 23.963C23.8581 23.909 22.9118 23.4741 21.9241 22.9124C21.8044 22.8459 21.6848 22.7794 21.5615 22.7109C21.1984 22.5085 20.8365 22.3039 20.475 22.0985C20.3198 22.0108 20.3198 22.0108 20.1615 21.9212C19.6718 21.6441 19.183 21.3654 18.6946 21.0857C17.9874 20.6814 17.2777 20.2819 16.5672 19.8838C16.4264 19.8049 16.2857 19.7259 16.145 19.6468C15.9488 19.5365 15.7525 19.4266 15.5561 19.3167C15.4427 19.2531 15.3292 19.1895 15.2123 19.1239C14.9863 18.9785 14.9863 18.9785 14.8441 18.9872Z" fill="black"/>
<path d="M37.478 3.43057C37.7472 3.61782 37.7472 3.61782 37.9197 3.89151C38.0334 4.60677 37.6845 5.10815 37.3469 5.69924C37.2936 5.79766 37.2403 5.89607 37.1854 5.99746C36.6773 6.90364 36.6773 6.90364 36.1531 7.11807C35.7699 7.11007 35.5717 7.07379 35.2767 6.81558C35.1119 6.43105 35.162 6.12874 35.2698 5.73526C35.4459 5.34041 35.6552 4.97023 35.8702 4.59732C35.9258 4.49749 35.9814 4.39767 36.0386 4.29483C36.4532 3.56164 36.6088 3.35236 37.478 3.43057Z" fill="black"/>
<path d="M4.46568 12.6492C4.86902 12.8399 5.23738 13.0795 5.61117 13.3263C5.71208 13.3903 5.81299 13.4543 5.91696 13.5203C6.65678 13.9964 6.65678 13.9964 6.78428 14.2625C6.81572 14.6399 6.82039 14.8805 6.65316 15.2204C6.38959 15.4765 6.26217 15.5081 5.901 15.5301C5.59422 15.4241 5.31624 15.2707 5.03152 15.1124C4.95623 15.0727 4.88094 15.0331 4.80337 14.9922C3.47999 14.2792 3.47999 14.2792 3.25117 13.8016C3.20866 13.3934 3.20487 13.1836 3.42369 12.8365C3.78006 12.5885 4.05508 12.5638 4.46568 12.6492Z" fill="black"/>
<path d="M13.2983 3.43052C13.7708 3.81747 14.0359 4.3699 14.3265 4.90696C14.378 4.99705 14.4296 5.08714 14.4828 5.17997C14.7283 5.63303 14.8453 5.88982 14.8362 6.42076C14.7336 6.77232 14.7336 6.77232 14.4921 7.00279C14.0843 7.15412 13.9243 7.17539 13.5191 7.00279C13.2509 6.68638 13.0591 6.33015 12.8566 5.96568C12.7862 5.84951 12.7157 5.73335 12.6431 5.61367C12.0165 4.55836 12.0165 4.55836 12.0838 3.89146C12.4085 3.37632 12.7317 3.34605 13.2983 3.43052Z" fill="black"/>
<path d="M46.3109 12.6493C46.58 12.8365 46.58 12.8365 46.7526 13.1102C46.8147 13.4487 46.8147 13.4487 46.7526 13.8016C46.3431 14.3008 45.8787 14.6133 45.3379 14.9323C45.2264 15.0026 45.2264 15.0026 45.1126 15.0744C44.5653 15.3996 44.1798 15.4809 43.5507 15.4149C43.2534 15.1628 43.2261 15.0019 43.1711 14.6082C43.233 14.1653 43.3369 14.0922 43.6611 13.8016C43.9592 13.5856 44.267 13.3902 44.5789 13.1966C44.6599 13.1437 44.741 13.0909 44.8245 13.0364C45.3366 12.7177 45.6977 12.5673 46.3109 12.6493Z" fill="black"/>
<path d="M48.0843 25.1667C48.2645 25.1669 48.2645 25.1669 48.4485 25.1671C49.4532 25.1787 49.4532 25.1787 49.8439 25.4404C50.0155 25.7986 50.0346 26.2045 49.9543 26.5927C49.4276 27.1227 48.7646 26.9931 48.0773 26.9888C47.9461 26.9911 47.8149 26.9934 47.6797 26.9958C47.5536 26.9957 47.4275 26.9956 47.2976 26.9956C47.1824 26.9958 47.0673 26.996 46.9487 26.9962C46.5642 26.9237 46.4346 26.7988 46.2004 26.4775C46.1383 26.0741 46.1383 26.0741 46.2004 25.6708C46.6947 25.035 47.3668 25.1498 48.0843 25.1667Z" fill="black"/>
<path d="M1.85025 25.181C1.96575 25.1786 2.08125 25.1762 2.20024 25.1738C2.31204 25.1732 2.42383 25.1726 2.53902 25.172C2.69216 25.1704 2.69216 25.1704 2.84839 25.1687C3.23126 25.2225 3.52829 25.3839 3.80312 25.6707C3.86788 26.3872 3.86788 26.3872 3.62112 26.7308C3.29389 26.9923 3.11489 26.9962 2.70593 26.9955C2.51678 26.9956 2.51678 26.9956 2.32381 26.9957C2.19258 26.9934 2.06136 26.9911 1.92616 26.9887C1.79494 26.9895 1.66371 26.9904 1.52851 26.9912C0.438569 26.9829 0.438569 26.9829 0.0491974 26.5926C-0.0273087 26.2808 -0.00450604 25.9866 0.0491974 25.6707C0.480085 25.037 1.1804 25.1844 1.85025 25.181Z" fill="black"/>
<path d="M25.4435 0.0887337C25.6272 0.223352 25.6272 0.223352 25.7747 0.434437C25.8467 0.947106 25.8258 1.46535 25.823 1.9829C25.8252 2.12587 25.8274 2.26885 25.8297 2.41615C25.8296 2.55348 25.8296 2.69081 25.8295 2.8323C25.8297 2.95804 25.8299 3.08377 25.8301 3.21331C25.762 3.62227 25.646 3.75771 25.3331 4.0067C25.0018 4.06432 25.0018 4.06432 24.6706 4.0067C24.3577 3.75771 24.2417 3.62227 24.1736 3.21331C24.1738 3.08758 24.174 2.96185 24.1742 2.8323C24.1741 2.69497 24.1741 2.55764 24.174 2.41615C24.1762 2.27318 24.1784 2.13021 24.1807 1.9829C24.1799 1.83948 24.1791 1.69606 24.1783 1.54829C24.1854 0.493329 24.1854 0.493329 24.3838 0.225152C24.7665 -0.070772 24.9853 -0.0283694 25.4435 0.0887337Z" fill="black"/>
</svg>
