<svg width="50" height="48" viewBox="0 0 50 48" fill="none" xmlns="http://www.w3.org/2000/svg">
<path d="M7.63078 0.00489273C7.75704 0.00383421 7.88331 0.0027757 8.01339 0.0016851C8.15427 0.00256279 8.29515 0.0034788 8.43603 0.00442898C8.58509 0.00396156 8.73415 0.00331708 8.88321 0.00251013C9.29384 0.000809665 9.70444 0.00165585 10.1151 0.00291045C10.5575 0.00382601 10.9999 0.00241268 11.4424 0.00129495C12.3095 -0.000513402 13.1767 -0.00011862 14.0438 0.00105653C14.7483 0.0019719 15.4529 0.00209814 16.1574 0.00165573C16.2575 0.00159353 16.3577 0.00153133 16.4608 0.00146725C16.6642 0.00133747 16.8676 0.00120587 17.071 0.00107246C18.9799 -8.60143e-05 20.8888 0.0012474 22.7976 0.0034269C24.4368 0.00524051 26.076 0.00492554 27.7152 0.00305397C29.617 0.000883482 31.5189 2.54826e-05 33.4208 0.00127293C33.6235 0.00140224 33.8261 0.00152984 34.0288 0.00165573C34.1784 0.00174966 34.1784 0.00174966 34.331 0.0018455C35.035 0.0021965 35.7389 0.00160326 36.4429 0.00064925C37.3004 -0.000487221 38.1578 -0.000185301 39.0153 0.00198094C39.4531 0.00305038 39.8909 0.00346098 40.3287 0.00212336C40.7291 0.000918606 41.1294 0.0015705 41.5298 0.0037379C41.675 0.00419336 41.8203 0.0039561 41.9655 0.00297649C42.1621 0.00175149 42.3588 0.00324431 42.5554 0.00489273C42.7196 0.00499158 42.7196 0.00499158 42.8871 0.00509243C43.1562 0.0559732 43.1562 0.0559732 43.3435 0.248798C43.476 0.489757 43.4994 0.634015 43.5011 0.907506C43.503 1.04026 43.503 1.04026 43.505 1.1757C43.5047 1.32012 43.5047 1.32012 43.5045 1.46745C43.5055 1.56946 43.5066 1.67146 43.5076 1.77656C43.5107 2.1137 43.5116 2.45081 43.5126 2.78796C43.5143 3.02172 43.5161 3.25548 43.5181 3.48924C43.5229 4.1045 43.5259 4.71975 43.5286 5.33502C43.5316 5.96286 43.5363 6.59068 43.5409 7.21851C43.5496 8.45038 43.5565 9.68225 43.5621 10.9141C43.6727 10.9678 43.7833 11.0215 43.8972 11.0768C44.0443 11.149 44.1913 11.2212 44.3383 11.2935C44.4109 11.3286 44.4836 11.3638 44.5584 11.4C45.1751 11.7045 45.6858 12.0822 46.2005 12.5378C46.299 12.6164 46.3975 12.695 46.499 12.776C48.1636 14.1633 49.2186 16.5044 49.4478 18.6265C49.5598 20.4926 49.3606 22.2098 48.5345 23.9033C48.4933 23.9932 48.4521 24.0831 48.4097 24.1757C47.5785 25.8551 46.0572 27.2579 44.3739 28.0639C44.3959 28.1337 44.4179 28.2034 44.4405 28.2752C44.4829 28.4124 44.4829 28.4124 44.5262 28.5523C44.5685 28.6883 44.5685 28.6883 44.6118 28.827C44.6784 29.0787 44.6784 29.0787 44.6784 29.3832C44.7384 29.36 44.7985 29.3368 44.8603 29.313C44.9806 29.2692 44.9806 29.2692 45.1033 29.2246C45.1822 29.1952 45.2611 29.1657 45.3423 29.1354C45.6484 29.0658 45.8065 29.0616 46.0991 29.1802C46.2473 29.3948 46.3484 29.5793 46.4542 29.8144C46.5047 29.9207 46.5047 29.9207 46.5561 30.0292C46.6768 30.2863 46.794 30.5449 46.9109 30.8039C46.9569 30.905 47.003 31.0061 47.0504 31.1103C47.3834 31.8425 47.7111 32.5771 48.0373 33.3124C48.2107 33.7033 48.3848 34.0939 48.5591 34.4845C48.7088 34.82 48.8584 35.1556 49.0079 35.4912C49.0811 35.6554 49.1543 35.8195 49.2275 35.9837C49.3302 36.2139 49.4326 36.4442 49.535 36.6745C49.5659 36.7435 49.5967 36.8125 49.6284 36.8836C50.0054 37.7329 50.108 38.6187 49.8787 39.531C49.485 40.5439 48.8556 41.3417 47.8559 41.8015C46.9049 42.1813 46.0275 42.1525 45.0843 41.7635C44.592 41.5019 44.2124 41.2126 43.8526 40.7875C43.7981 40.7233 43.7436 40.6591 43.6874 40.5929C43.6254 40.5193 43.6254 40.5193 43.5621 40.4443C43.5613 40.5235 43.5605 40.6027 43.5596 40.6842C43.5517 41.4308 43.5429 42.1774 43.5329 42.9239C43.5279 43.3077 43.5232 43.6915 43.5193 44.0753C43.5156 44.4458 43.5109 44.8162 43.5055 45.1867C43.5036 45.3279 43.5021 45.4692 43.5009 45.6105C43.4992 45.8085 43.4961 46.0065 43.493 46.2044C43.4916 46.3171 43.4903 46.4298 43.4889 46.5459C43.461 46.8339 43.4162 47.0034 43.2577 47.2433C42.9846 47.3799 42.774 47.3579 42.468 47.3584C42.3423 47.3589 42.2166 47.3593 42.0871 47.3598C41.9463 47.3598 41.8055 47.3598 41.6647 47.3597C41.5162 47.3601 41.3676 47.3604 41.2191 47.3609C40.8094 47.3619 40.3997 47.3622 39.99 47.3625C39.5487 47.3629 39.1075 47.3639 38.6662 47.3648C37.5999 47.3668 36.5337 47.3678 35.4674 47.3687C34.9658 47.3691 34.4642 47.3697 33.9625 47.3702C32.2959 47.3719 30.6293 47.3734 28.9627 47.3742C28.53 47.3743 28.0974 47.3745 27.6647 47.3747C27.5572 47.3748 27.4496 47.3748 27.3388 47.3749C25.5952 47.3757 23.8515 47.3783 22.1078 47.3816C20.3193 47.385 18.5308 47.3868 16.7422 47.3871C15.7373 47.3873 14.7325 47.3882 13.7276 47.3908C12.8722 47.393 12.0167 47.3938 11.1613 47.3928C10.7245 47.3924 10.2877 47.3926 9.85097 47.3945C9.45154 47.3963 9.05216 47.3962 8.65273 47.3947C8.50783 47.3944 8.36291 47.3949 8.21801 47.3961C8.02184 47.3976 7.82565 47.3964 7.62948 47.395C7.52027 47.3951 7.41107 47.3952 7.29855 47.3953C7.02998 47.3448 7.02998 47.3448 6.84245 47.159C6.6751 46.8439 6.6913 46.5885 6.69581 46.2333C6.69624 46.1663 6.69668 46.0993 6.69712 46.0303C6.69882 45.8172 6.70264 45.6043 6.70652 45.3913C6.70804 45.2465 6.70943 45.1017 6.71068 44.9569C6.71403 44.6027 6.71928 44.2486 6.72554 43.8945C6.63131 43.8956 6.53708 43.8967 6.43999 43.8978C6.09087 43.9012 5.74178 43.9038 5.39265 43.9057C5.24146 43.9067 5.09026 43.9081 4.93907 43.9098C4.72194 43.9123 4.50483 43.9135 4.28769 43.9144C4.15696 43.9154 4.02623 43.9165 3.89154 43.9176C3.57972 43.8945 3.57972 43.8945 3.37677 43.6916C3.35372 43.4263 3.35372 43.4263 3.35695 43.0946C3.3576 42.9762 3.35825 42.8578 3.35893 42.7359C3.36063 42.6117 3.36233 42.4876 3.36408 42.3597C3.365 42.2347 3.36591 42.1098 3.36686 41.9811C3.36925 41.6718 3.3726 41.3625 3.37677 41.0531C3.28253 41.0542 3.1883 41.0553 3.09121 41.0564C2.74209 41.0598 2.393 41.0624 2.04387 41.0643C1.89268 41.0653 1.74148 41.0667 1.59029 41.0685C1.37316 41.0709 1.15606 41.0721 0.938912 41.073C0.808182 41.074 0.677452 41.0751 0.54276 41.0762C0.230943 41.0531 0.230943 41.0531 0.0279866 40.8502C0.00254624 40.6053 0.00254586 40.6053 0.00244601 40.2901C0.00191675 40.1704 0.0013879 40.0506 0.000842605 39.9272C0.00152171 39.7281 0.00152169 39.7281 0.00221452 39.525C0.00198087 39.3835 0.00165884 39.242 0.00125526 39.1005C0.000404208 38.7103 0.000828103 38.32 0.00145501 37.9298C0.00191245 37.5095 0.00120654 37.0892 0.000647503 36.6689C-0.000257035 35.845 -5.91368e-05 35.0211 0.000528274 34.1972C0.000985814 33.5278 0.00104916 32.8584 0.000827895 32.1891C0.000796796 32.094 0.000765483 31.9989 0.000733441 31.9009C0.000668554 31.7077 0.00060272 31.5145 0.000536016 31.3213C-4.33301e-05 29.508 0.000624016 27.6947 0.0017136 25.8813C0.00262041 24.3239 0.00246281 22.7665 0.00152701 21.2091C0.00044196 19.4025 1.28351e-05 17.5958 0.000636664 15.7891C0.000701319 15.5967 0.000764953 15.4042 0.000827895 15.2117C0.000859206 15.117 0.000890864 15.0222 0.000923124 14.9246C0.00109868 14.2558 0.000801537 13.5869 0.000324654 12.918C-0.000243369 12.1033 -9.30834e-05 11.2886 0.000990481 10.474C0.00152548 10.058 0.00173003 9.64198 0.00106171 9.22598C0.000459933 8.84566 0.000784566 8.46536 0.00186922 8.08504C0.00220576 7.88121 0.00153787 7.67738 0.000842605 7.47355C0.00137186 7.3538 0.00190071 7.23404 0.00244601 7.11065C0.00249543 6.95464 0.00249546 6.95464 0.00254588 6.79548C0.0279863 6.55057 0.0279867 6.55057 0.230943 6.34762C0.54276 6.32458 0.54276 6.32458 0.938912 6.3278C1.00845 6.32809 1.07799 6.32837 1.14963 6.32867C1.37195 6.32981 1.59423 6.33235 1.81654 6.33493C1.96717 6.33595 2.1178 6.33688 2.26843 6.33771C2.63789 6.33995 3.00732 6.34345 3.37677 6.34762C3.37517 6.22932 3.37517 6.22932 3.37354 6.10864C3.36934 5.75279 3.36669 5.39695 3.36408 5.04109C3.36238 4.91695 3.36068 4.79281 3.35893 4.6649C3.35795 4.48733 3.35795 4.48733 3.35695 4.30616C3.35535 4.14195 3.35535 4.14195 3.35372 3.97443C3.37677 3.70919 3.37677 3.70919 3.57972 3.50623C3.89154 3.48319 3.89154 3.48319 4.28769 3.48641C4.35723 3.4867 4.42677 3.48698 4.49841 3.48728C4.72073 3.48842 4.94301 3.49096 5.16532 3.49355C5.31595 3.49456 5.46658 3.49549 5.61721 3.49632C5.98667 3.49856 6.3561 3.50206 6.72554 3.50623C6.72395 3.41613 6.72236 3.32604 6.72071 3.23321C6.71552 2.89808 6.7117 2.563 6.70882 2.22784C6.70729 2.08295 6.70522 1.93807 6.70258 1.79319C6.69887 1.58461 6.69716 1.37609 6.69581 1.16748C6.69422 1.04206 6.69263 0.916645 6.69098 0.787428C6.75862 0.15036 7.01488 0.00526353 7.63078 0.00489273ZM7.94328 1.17223C7.94328 16.0073 7.94328 30.8424 7.94328 46.127C19.2956 46.127 30.648 46.127 42.3444 46.127C42.6861 38.7005 42.6861 38.7005 41.0541 31.8983C40.915 31.4885 40.8965 31.2288 40.9237 30.8039C41.0388 30.7766 41.1539 30.7494 41.2725 30.7214C41.3918 30.6816 41.5111 30.6419 41.634 30.6009C41.7713 30.189 41.6495 30.0152 41.4882 29.6178C41.4401 29.4981 41.3921 29.3784 41.3427 29.2551C41.3049 29.1634 41.2671 29.0717 41.2281 28.9772C41.1127 28.9796 40.9974 28.982 40.8785 28.9844C38.3559 29.0212 36.093 28.4907 34.1246 26.8462C34.057 26.7934 33.9894 26.7405 33.9197 26.6861C33.3007 26.1831 32.8518 25.5708 32.3995 24.9181C32.3429 24.8366 32.2862 24.7551 32.2279 24.6712C30.9377 22.6736 30.5488 20.0965 30.9974 17.7797C31.5298 15.374 32.8659 13.2834 34.9365 11.9289C37.25 10.5242 39.6997 10.2319 42.3444 10.6097C42.3444 7.49534 42.3444 4.38097 42.3444 1.17223C30.992 1.17223 19.6397 1.17223 7.94328 1.17223ZM4.49303 4.62249C4.49303 17.2139 4.49303 29.8053 4.49303 42.7783C5.19627 42.7783 5.89951 42.7783 6.62407 42.7783C6.62407 30.1869 6.62407 17.5955 6.62407 4.62249C5.92082 4.62249 5.21758 4.62249 4.49303 4.62249ZM1.14425 7.46388C1.14425 18.18 1.14425 28.8961 1.14425 39.9369C1.88098 39.9369 2.61771 39.9369 3.37677 39.9369C3.37677 29.2208 3.37677 18.5047 3.37677 7.46388C2.64003 7.46388 1.9033 7.46388 1.14425 7.46388ZM34.4291 13.654C34.3405 13.7346 34.252 13.8152 34.1607 13.8982C33.5594 14.468 33.1104 15.0649 32.7039 15.7851C32.6571 15.864 32.6103 15.9428 32.562 16.0241C31.5698 17.8192 31.5188 19.9983 31.9833 21.9531C32.5984 24.0296 34.0527 25.8262 35.9394 26.8894C38.032 27.9462 40.1334 28.2388 42.4015 27.5439C43.7519 27.0589 44.7888 26.3385 45.7946 25.324C45.876 25.2461 45.9574 25.1681 46.0412 25.0878C47.5113 23.5922 48.0561 21.6749 48.0779 19.6286C48.0571 17.528 47.3239 15.7049 45.8961 14.1614C45.8265 14.0826 45.7569 14.0037 45.6852 13.9224C44.394 12.5331 42.4337 11.5782 40.5269 11.4889C38.2295 11.4482 36.1325 12.0496 34.4291 13.654ZM43.1562 28.4699C42.9218 28.5368 42.6874 28.6038 42.4459 28.6728C42.5252 29.1647 42.6892 29.6243 42.8518 30.0935C43.1197 29.993 43.3876 29.8926 43.6636 29.7891C43.5458 29.07 43.5458 29.07 43.1562 28.4699ZM44.9828 30.4994C44.9277 30.5621 44.8727 30.6247 44.8159 30.6893C44.4994 30.9753 44.1745 31.0962 43.7778 31.2415C43.7072 31.2695 43.6367 31.2976 43.5641 31.3265C43.1121 31.4955 42.8254 31.524 42.3444 31.4127C42.2439 31.463 42.2439 31.463 42.1414 31.5142C42.2857 32.4154 42.5057 33.292 42.7424 34.1725C42.7616 34.2442 42.7808 34.3159 42.8006 34.3898C42.9021 34.7687 43.0041 35.1474 43.1066 35.526C43.2116 35.914 43.3145 36.3025 43.417 36.6911C43.497 36.993 43.5786 37.2944 43.6605 37.5958C43.6991 37.7388 43.7371 37.8819 43.7745 38.0252C44.0128 38.9348 44.262 39.8317 45.0284 40.4379C45.1033 40.4735 45.1783 40.5091 45.2555 40.5458C45.3691 40.6023 45.3691 40.6023 45.485 40.6599C46.1837 40.958 46.8124 40.9052 47.5095 40.6429C48.2007 40.3281 48.4622 39.888 48.7462 39.2028C49.1449 37.9966 48.4012 36.7602 47.8986 35.686C47.7163 35.2962 47.5362 34.9054 47.356 34.5145C47.3192 34.4347 47.2824 34.3549 47.2444 34.2727C46.8516 33.4193 46.474 32.5595 46.0991 31.6981C46.0679 31.6267 46.0368 31.5552 46.0047 31.4816C45.8328 31.0867 45.6613 30.6917 45.4902 30.2965C45.2948 30.2965 45.1489 30.4045 44.9828 30.4994Z" fill="black"/>
<path d="M35.8051 5.68794C36.3803 6.04012 36.7566 6.63067 36.9657 7.26085C37.0435 7.93682 37.0047 8.59064 36.6613 9.18893C36.1517 9.77688 35.6455 10.1677 34.8573 10.2378C34.7166 10.2402 34.5758 10.2415 34.4351 10.2418C34.3651 10.2443 34.295 10.2467 34.2228 10.2493C33.6931 10.2523 33.4293 10.101 33.0081 9.7978C32.5239 9.7978 32.301 9.96601 31.9207 10.2319C31.8546 10.277 31.7885 10.3221 31.7204 10.3686C31.5084 10.5136 31.2974 10.6599 31.0863 10.8062C30.9478 10.9013 30.8093 10.9962 30.6707 11.0911C30.1343 11.4588 29.5988 11.8279 29.0674 12.2028C29.0066 12.2455 28.9458 12.2882 28.8831 12.3322C28.7179 12.4484 28.553 12.5651 28.3882 12.6818C28.1371 12.8421 28.1371 12.8421 27.9342 12.8421C27.9504 12.8992 27.9666 12.9562 27.9833 13.015C28.1436 13.7288 28.0762 14.4292 27.7312 15.0747C27.3245 15.679 26.846 15.9559 26.1646 16.1656C25.3218 16.2478 24.7558 16.1805 24.0146 15.7216C23.4808 15.1878 23.1953 14.5773 23.1501 13.8227C23.1659 13.5302 23.2429 13.3522 23.3617 13.0867C23.4709 12.7402 23.489 12.5898 23.3581 12.2467C23.1716 11.936 22.9695 11.6481 22.7524 11.358C22.6819 11.2561 22.6113 11.1542 22.5386 11.0492C22.2637 10.6595 22.2637 10.6595 21.947 10.3052C21.7093 10.3052 21.4716 10.3084 21.2342 10.3195C20.5397 10.3421 20.1518 10.3414 19.613 9.89928C19.1628 9.89928 19.0651 9.96131 18.7048 10.2065C18.6104 10.2701 18.516 10.3338 18.4188 10.3993C18.321 10.4666 18.2232 10.5339 18.1225 10.6033C17.9741 10.7037 17.9741 10.7037 17.8226 10.806C17.3783 11.0882 17.3783 11.0882 16.9745 11.4215C16.9778 11.6435 16.9848 11.8655 16.9936 12.0874C16.9972 12.8068 16.9117 13.2694 16.4311 13.8082C15.7778 14.4159 14.9368 14.4166 14.0927 14.4016C13.5841 14.3497 13.2711 14.2236 12.9154 13.8569C12.306 13.0905 12.1369 12.4963 12.2051 11.5229C12.3122 10.8543 12.6835 10.5 13.1842 10.0681C13.6515 9.73747 14.169 9.58591 14.742 9.59485C15.1875 9.68127 15.6089 9.77844 15.9645 10.0689C16.1487 10.2264 16.1487 10.2264 16.3464 10.1792C16.8229 10.0141 17.236 9.71769 17.6595 9.44897C17.7593 9.39017 17.8591 9.33137 17.962 9.27079C18.4937 8.95174 18.4937 8.95174 18.7602 8.42413C18.7625 8.15897 18.7625 8.15897 18.7245 7.90884C18.6677 7.35449 18.9243 6.87552 19.2197 6.42365C19.8373 5.83293 20.325 5.60514 21.1922 5.58012C21.9212 5.60855 22.4262 5.69187 22.9352 6.22942C23.3882 6.79374 23.6156 7.31914 23.5972 8.05642C23.5382 8.54312 23.4139 9.04118 23.0632 9.39189C23.0701 9.92424 23.43 10.3174 23.7292 10.7301C23.8333 10.8751 23.937 11.0203 24.0403 11.1658C24.0865 11.2295 24.1326 11.2932 24.1801 11.3589C24.281 11.5229 24.281 11.5229 24.281 11.7259C24.3919 11.6757 24.5028 11.6254 24.6171 11.5737C25.4545 11.2624 26.2226 11.3695 27.0209 11.7259C27.1213 11.7594 27.2218 11.7929 27.3253 11.8274C27.5954 11.6904 27.5954 11.6904 27.8866 11.4841C27.9694 11.4283 27.9694 11.4283 28.054 11.3715C28.2346 11.2496 28.4142 11.1262 28.5938 11.0029C28.7174 10.9191 28.8412 10.8354 28.965 10.7518C29.5349 10.3662 30.1017 9.97601 30.6681 9.58533C30.7568 9.52426 30.8455 9.46319 30.9369 9.40026C31.1013 9.28676 31.2652 9.17271 31.4288 9.05807C31.5012 9.00786 31.5735 8.95764 31.648 8.9059C31.7103 8.86226 31.7726 8.81862 31.8367 8.77366C31.9933 8.68154 31.9933 8.68154 32.1962 8.68154C32.1854 8.62006 32.1745 8.55858 32.1633 8.49524C32.0497 7.70064 32.1599 7.07311 32.5578 6.37292C33.4684 5.53229 34.6028 5.17564 35.8051 5.68794ZM33.2745 7.14034C33.1371 7.62091 33.1508 7.9609 33.3886 8.40248C33.728 8.83905 33.728 8.83905 34.2302 9.01809C34.7841 9.04685 35.116 8.95674 35.545 8.58006C35.7865 8.27277 35.7848 7.94606 35.7733 7.56132C35.7213 7.1531 35.5327 6.93099 35.2279 6.67101C34.49 6.3662 33.7761 6.47906 33.2745 7.14034ZM20.1203 6.85494C19.8329 7.17927 19.7261 7.38368 19.6637 7.81264C19.728 8.27055 19.859 8.50374 20.1203 8.8845C20.4965 9.13527 20.7851 9.23777 21.2394 9.1485C21.6211 9.02767 21.8223 8.90942 22.0992 8.61178C22.2843 8.20298 22.3358 7.90435 22.2514 7.46381C22.0536 7.02705 21.8643 6.83564 21.4269 6.66467C20.9237 6.49947 20.5774 6.58415 20.1203 6.85494ZM13.537 11.136C13.2703 11.4889 13.2198 11.6905 13.2198 12.1318C13.3386 12.521 13.4713 12.7795 13.7336 13.0895C14.1717 13.3225 14.5609 13.3382 15.0464 13.2481C15.3981 13.0726 15.605 12.8281 15.8012 12.487C15.9209 11.9548 15.7038 11.4838 15.4524 11.0155C14.784 10.5839 14.1717 10.6531 13.537 11.136ZM24.5854 12.7407C24.3195 13.1008 24.2582 13.3758 24.2873 13.8125C24.3526 14.2299 24.4705 14.4789 24.7883 14.7702C25.1567 14.9954 25.4794 15.0004 25.9046 14.9343C26.2574 14.8255 26.457 14.6238 26.7164 14.3643C26.8385 14.1202 26.8281 13.9635 26.8242 13.692C26.8233 13.6091 26.8224 13.5262 26.8215 13.4407C26.8203 13.3771 26.8191 13.3136 26.8179 13.2481C26.7509 13.2481 26.684 13.2481 26.6149 13.2481C26.5919 13.1706 26.5689 13.0932 26.5452 13.0134C26.3781 12.6712 26.2538 12.5837 25.9046 12.4362C25.378 12.3788 25.0251 12.4408 24.5854 12.7407Z" fill="black"/>
<path d="M43.6634 14.0602C44.1008 14.3999 44.4917 14.7836 44.8812 15.1764C44.949 15.2409 45.0169 15.3054 45.0869 15.3718C45.5002 15.7946 45.7633 16.2773 46.0291 16.8001C46.0634 16.8675 46.0977 16.935 46.1331 17.0045C46.884 18.5514 46.871 20.4306 46.3336 22.0452C45.6508 23.7446 44.4462 25.1809 42.7501 25.9268C42.5487 26.0008 42.3457 26.0707 42.1412 26.1361C41.9919 26.1843 41.9919 26.1843 41.8396 26.2336C40.0489 26.7271 38.2259 26.5104 36.6 25.6299C35.0246 24.6962 33.9634 23.2671 33.4268 21.5251C32.9816 19.6391 33.2485 17.7781 34.2513 16.1214C35.326 14.5359 36.76 13.4927 38.6466 13.0877C40.3591 12.7949 42.2022 13.1101 43.6634 14.0602ZM35.6375 16.1333C34.5683 17.5072 34.2982 18.9641 34.4289 20.6562C34.5134 21.0926 34.6485 21.4715 34.8348 21.874C34.8958 22.0139 34.8958 22.0139 34.9581 22.1566C35.5621 23.4013 36.6619 24.4159 37.9685 24.8854C39.5087 25.3811 41.0404 25.3945 42.5091 24.6519C44.005 23.779 44.9217 22.5216 45.4 20.8766C45.748 19.4205 45.4643 17.9724 44.7606 16.6732C43.9399 15.3468 42.7465 14.4795 41.2351 14.1019C39.1497 13.6874 37.0073 14.5408 35.6375 16.1333Z" fill="black"/>
<path d="M33.3151 29.9419C33.3931 29.9422 33.4711 29.9425 33.5515 29.9428C33.6403 29.9422 33.729 29.9416 33.8204 29.9409C33.9158 29.9424 34.0113 29.9438 34.1097 29.9453C34.2078 29.9454 34.306 29.9455 34.4072 29.9456C34.6148 29.9462 34.8223 29.9478 35.0298 29.9503C35.3483 29.954 35.6667 29.9545 35.9852 29.9545C36.1867 29.9555 36.3881 29.9566 36.5895 29.958C36.6852 29.9582 36.7809 29.9585 36.8794 29.9587C36.9678 29.96 37.0562 29.9613 37.1473 29.9626C37.2252 29.9634 37.3032 29.9642 37.3835 29.965C37.5754 29.9921 37.5754 29.9921 37.7783 30.1951C37.8039 30.4192 37.8039 30.4192 37.8041 30.7035C37.8047 30.8111 37.8052 30.9187 37.8058 31.0295C37.8054 31.148 37.805 31.2665 37.8046 31.3886C37.8049 31.513 37.8053 31.6375 37.8057 31.7656C37.8064 32.1074 37.8062 32.4491 37.8056 32.7909C37.8051 33.1481 37.8055 33.5052 37.8059 33.8624C37.8062 34.4623 37.8057 35.0622 37.8048 35.6621C37.8037 36.3563 37.804 37.0504 37.8052 37.7445C37.8061 38.3399 37.8062 38.9352 37.8057 39.5306C37.8054 39.8864 37.8053 40.2423 37.806 40.5981C37.8067 40.9947 37.8057 41.3912 37.8046 41.7878C37.805 41.9063 37.8054 42.0248 37.8058 42.1469C37.805 42.3082 37.805 42.3082 37.8041 42.4729C37.804 42.5667 37.8039 42.6605 37.8039 42.7572C37.7783 42.9813 37.7783 42.9813 37.5754 43.1843C37.3835 43.2114 37.3835 43.2114 37.1473 43.2138C37.0589 43.2151 36.9705 43.2163 36.8794 43.2177C36.7359 43.218 36.7359 43.218 36.5895 43.2184C36.4914 43.219 36.3933 43.2197 36.2923 43.2204C36.0845 43.2214 35.8768 43.2219 35.6691 43.2219C35.3508 43.2223 35.0326 43.226 34.7144 43.2299C34.5128 43.2305 34.3112 43.2309 34.1097 43.231C33.9665 43.2332 33.9665 43.2332 33.8204 43.2355C33.7317 43.2348 33.643 43.2342 33.5515 43.2336C33.4735 43.2339 33.3955 43.2342 33.3151 43.2345C33.0239 43.1631 32.9601 43.0307 32.8059 42.7784C32.7676 42.5362 32.7676 42.5362 32.7672 42.2623C32.7664 42.1581 32.7655 42.054 32.7646 41.9467C32.7653 41.833 32.7659 41.7194 32.7665 41.6022C32.766 41.4821 32.7654 41.3619 32.7649 41.2381C32.7638 40.9089 32.764 40.5798 32.765 40.2506C32.7658 39.906 32.7651 39.5614 32.7646 39.2167C32.764 38.638 32.7648 38.0593 32.7662 37.4806C32.7679 36.8117 32.7673 36.1428 32.7657 35.4739C32.7643 34.8994 32.7641 34.3249 32.7649 33.7504C32.7653 33.4074 32.7654 33.0644 32.7644 32.7213C32.7636 32.3389 32.7648 31.9566 32.7665 31.5741C32.7659 31.4605 32.7653 31.3468 32.7646 31.2297C32.7655 31.1256 32.7664 31.0214 32.7672 30.9141C32.7674 30.8237 32.7675 30.7333 32.7676 30.6402C32.8231 30.2892 32.9571 30.0297 33.3151 29.9419ZM34.0236 31.1084C34.0236 34.7251 34.0236 38.3417 34.0236 42.068C34.8943 42.068 35.765 42.068 36.6621 42.068C36.6621 38.4513 36.6621 34.8347 36.6621 31.1084C35.7914 31.1084 34.9207 31.1084 34.0236 31.1084Z" fill="black"/>
<path d="M19.4106 32.4274C19.607 32.3894 19.607 32.3894 19.8496 32.3896C19.9857 32.3887 19.9857 32.3887 20.1246 32.3877C20.2719 32.3891 20.2719 32.3891 20.4222 32.3905C20.5731 32.3905 20.5731 32.3905 20.727 32.3904C20.9399 32.3906 21.1528 32.3916 21.3658 32.3933C21.6925 32.3957 22.0192 32.3954 22.3459 32.3947C22.5524 32.3953 22.759 32.396 22.9655 32.3969C23.0637 32.3968 23.1619 32.3967 23.2631 32.3966C23.3538 32.3976 23.4446 32.3985 23.5381 32.3995C23.6582 32.4002 23.6582 32.4002 23.7807 32.4009C23.9771 32.4274 23.9771 32.4274 24.18 32.6303C24.2059 32.8145 24.2059 32.8145 24.2065 33.0418C24.2072 33.1279 24.2079 33.214 24.2087 33.3027C24.2084 33.3973 24.2082 33.4919 24.2079 33.5894C24.2084 33.6889 24.209 33.7884 24.2095 33.891C24.2109 34.2211 24.2108 34.5513 24.2106 34.8815C24.211 35.1103 24.2114 35.339 24.2119 35.5678C24.2126 36.0478 24.2126 36.5279 24.2121 37.0079C24.2115 37.624 24.2132 38.24 24.2156 38.8561C24.2171 39.3287 24.2171 39.8014 24.2168 40.274C24.2169 40.5012 24.2174 40.7283 24.2184 40.9555C24.2197 41.2729 24.219 41.5901 24.2178 41.9074C24.219 42.0491 24.219 42.0491 24.2202 42.1936C24.2195 42.28 24.2187 42.3663 24.218 42.4553C24.218 42.5303 24.2181 42.6054 24.2181 42.6827C24.1692 42.9358 24.0755 43.0263 23.8756 43.1841C23.6754 43.2227 23.6754 43.2227 23.4453 43.2235C23.359 43.2244 23.2726 43.2254 23.1836 43.2264C23.0442 43.2255 23.0442 43.2255 22.9021 43.2245C22.8063 43.2248 22.7106 43.2251 22.612 43.2254C22.4097 43.2256 22.2074 43.225 22.005 43.2238C21.695 43.2221 21.3851 43.2238 21.075 43.2257C20.8786 43.2255 20.6821 43.2251 20.4856 43.2245C20.3927 43.2251 20.2998 43.2257 20.204 43.2264C20.1177 43.2254 20.0313 43.2245 19.9423 43.2235C19.8285 43.2231 19.8285 43.2231 19.7123 43.2227C19.4516 43.1724 19.3731 43.0846 19.2076 42.8796C19.1696 42.6846 19.1696 42.6846 19.1696 42.4598C19.1689 42.3745 19.1682 42.2891 19.1675 42.2012C19.1683 42.1078 19.169 42.0145 19.1698 41.9184C19.1695 41.8198 19.1691 41.7213 19.1687 41.6198C19.1679 41.2934 19.1693 40.9671 19.1707 40.6408C19.1708 40.4144 19.1707 40.1881 19.1706 39.9617C19.1706 39.4871 19.1717 39.0124 19.1735 38.5378C19.1758 37.9286 19.1759 37.3195 19.1752 36.7104C19.1748 36.2429 19.1755 35.7754 19.1765 35.308C19.1769 35.0833 19.177 34.8587 19.1768 34.634C19.1768 34.3204 19.1781 34.0068 19.1797 33.6931C19.1795 33.5998 19.1792 33.5065 19.179 33.4103C19.1797 33.325 19.1804 33.2396 19.1812 33.1516C19.1814 33.0775 19.1816 33.0033 19.1818 32.9269C19.2076 32.7318 19.2076 32.7318 19.4106 32.4274ZM20.2224 33.5437C20.2224 36.3566 20.2224 39.1696 20.2224 42.0678C21.1266 42.0678 22.0307 42.0678 22.9623 42.0678C22.9623 39.2548 22.9623 36.4419 22.9623 33.5437C22.0581 33.5437 21.154 33.5437 20.2224 33.5437Z" fill="black"/>
<path d="M13.143 34.9348C13.2294 34.9335 13.3157 34.9322 13.4047 34.9309C13.5441 34.9305 13.5441 34.9305 13.6863 34.9302C13.782 34.9295 13.8777 34.9288 13.9763 34.9281C14.1786 34.9271 14.381 34.9266 14.5833 34.9267C14.8933 34.9262 15.2033 34.9225 15.5133 34.9187C15.7098 34.9181 15.9063 34.9177 16.1027 34.9175C16.2421 34.9153 16.2421 34.9153 16.3843 34.9131C16.4707 34.9137 16.557 34.9143 16.646 34.915C16.7219 34.9147 16.7978 34.9144 16.8761 34.9141C17.0763 34.9643 17.0763 34.9643 17.2529 35.1253C17.4268 35.4584 17.4194 35.7145 17.4201 36.0899C17.4207 36.1615 17.4212 36.2332 17.4217 36.307C17.4231 36.5434 17.4222 36.7797 17.4212 37.016C17.4214 37.1806 17.4217 37.3451 17.422 37.5096C17.4225 37.8543 17.4218 38.1989 17.4204 38.5435C17.4187 38.9851 17.4197 39.4266 17.4215 39.8682C17.4226 40.2079 17.4223 40.5476 17.4215 40.8873C17.4213 41.0501 17.4215 41.2129 17.4222 41.3757C17.423 41.6033 17.4218 41.8308 17.4201 42.0584C17.4199 42.1879 17.4196 42.3174 17.4194 42.4508C17.378 42.8008 17.3361 42.9481 17.0763 43.184C16.8715 43.2342 16.8715 43.2342 16.6351 43.2333C16.502 43.2343 16.502 43.2343 16.3662 43.2352C16.223 43.233 16.223 43.233 16.077 43.2308C15.9788 43.2307 15.8806 43.2306 15.7794 43.2305C15.5719 43.2299 15.3643 43.2283 15.1568 43.2258C14.8383 43.2221 14.5199 43.2216 14.2014 43.2217C14 43.2207 13.7985 43.2195 13.5971 43.2181C13.5014 43.2179 13.4058 43.2176 13.3072 43.2174C13.2188 43.2161 13.1304 43.2148 13.0393 43.2135C12.9614 43.2127 12.8834 43.2119 12.8031 43.2111C12.6113 43.184 12.6113 43.184 12.4083 42.9811C12.3877 42.7316 12.3796 42.4935 12.3804 42.244C12.3799 42.168 12.3794 42.0921 12.3789 42.0139C12.3774 41.7623 12.3775 41.5107 12.3778 41.2591C12.3774 41.0847 12.3769 40.9103 12.3765 40.7359C12.3757 40.3701 12.3757 40.0043 12.3763 39.6385C12.3769 39.1689 12.3751 38.6993 12.3728 38.2298C12.3713 37.8695 12.3712 37.5093 12.3715 37.1491C12.3715 36.9759 12.3709 36.8027 12.3699 36.6296C12.3687 36.3878 12.3693 36.1461 12.3705 35.9043C12.3697 35.8323 12.369 35.7603 12.3682 35.6861C12.3703 35.4869 12.3703 35.4869 12.4083 35.1672C12.7207 34.959 12.7895 34.9384 13.143 34.9348ZM13.5246 36.0805C13.5246 38.0563 13.5246 40.0321 13.5246 42.0678C14.3952 42.0678 15.2659 42.0678 16.163 42.0678C16.163 40.092 16.163 38.1162 16.163 36.0805C15.2923 36.0805 14.4216 36.0805 13.5246 36.0805Z" fill="black"/>
<path d="M26.8242 36.2458C26.9041 36.2452 26.984 36.2445 27.0664 36.2439C27.1945 36.2453 27.1945 36.2453 27.3252 36.2467C27.4581 36.2467 27.4581 36.2467 27.5936 36.2466C27.7806 36.2468 27.9675 36.2478 28.1545 36.2495C28.4405 36.2519 28.7263 36.2516 29.0123 36.2509C29.1941 36.2515 29.3759 36.2522 29.5577 36.2531C29.6432 36.253 29.7286 36.2529 29.8166 36.2528C29.8965 36.2538 29.9764 36.2547 30.0588 36.2557C30.1638 36.2564 30.1638 36.2564 30.2709 36.2571C30.5097 36.2887 30.6721 36.3611 30.877 36.4865C31.0132 36.759 30.9928 36.9709 30.9948 37.276C30.9958 37.3989 30.9967 37.5218 30.9977 37.6485C30.9982 37.7819 30.9986 37.9153 30.9991 38.0527C30.9996 38.1905 31.0002 38.3283 31.0008 38.466C31.0019 38.755 31.0025 39.0439 31.0028 39.3328C31.0034 39.7032 31.0058 40.0735 31.0087 40.4439C31.0106 40.7285 31.0111 41.0131 31.0113 41.2976C31.0117 41.5006 31.0136 41.7036 31.0155 41.9066C31.0152 42.0299 31.0149 42.1531 31.0146 42.2801C31.0152 42.4431 31.0152 42.4431 31.0157 42.6094C30.9784 42.8797 30.9784 42.8797 30.8509 43.067C30.6319 43.212 30.5054 43.2221 30.2437 43.2219C30.1142 43.2228 30.1142 43.2228 29.982 43.2238C29.8426 43.2224 29.8426 43.2224 29.7004 43.221C29.5569 43.221 29.5569 43.221 29.4104 43.2211C29.2081 43.2209 29.0058 43.2199 28.8034 43.2182C28.4934 43.2158 28.1835 43.2161 27.8734 43.2168C27.677 43.2162 27.4805 43.2155 27.284 43.2146C27.1911 43.2147 27.0982 43.2148 27.0024 43.2149C26.9161 43.2139 26.8297 43.213 26.7407 43.212C26.6268 43.2113 26.6268 43.2113 26.5107 43.2106C26.3104 43.1841 26.3104 43.1841 26.006 42.9812C25.9667 42.7161 25.9667 42.7161 25.965 42.3761C25.9637 42.2491 25.9624 42.1221 25.9611 41.9912C25.9613 41.852 25.9616 41.7128 25.962 41.5735C25.9615 41.4312 25.961 41.2889 25.9604 41.1466C25.9595 40.8481 25.9597 40.5496 25.9607 40.2511C25.9619 39.8684 25.9599 39.4859 25.9569 39.1032C25.955 38.8092 25.9551 38.5152 25.9556 38.2212C25.9557 38.0802 25.955 37.9391 25.9538 37.798C25.9523 37.6007 25.9536 37.4035 25.9551 37.2062C25.9551 37.094 25.9551 36.9817 25.9551 36.866C26.006 36.588 26.006 36.588 26.1864 36.3995C26.4239 36.2774 26.5596 36.2456 26.8242 36.2458ZM27.1223 37.5013C27.1223 39.0083 27.1223 40.5152 27.1223 42.0678C28.0264 42.0678 28.9306 42.0678 29.8622 42.0678C29.8622 40.5609 29.8622 39.0539 29.8622 37.5013C28.958 37.5013 28.0538 37.5013 27.1223 37.5013Z" fill="black"/>
<path d="M13.3966 26.108C13.4872 26.1074 13.5778 26.1069 13.6712 26.1064C13.9712 26.105 14.2711 26.1051 14.5711 26.1053C14.7793 26.1049 14.9874 26.1045 15.1956 26.104C15.632 26.1032 16.0684 26.1033 16.5049 26.1038C17.0649 26.1044 17.6248 26.1027 18.1848 26.1003C18.6147 26.0988 19.0446 26.0987 19.4744 26.099C19.681 26.099 19.8875 26.0985 20.094 26.0974C20.3824 26.0962 20.6707 26.0969 20.9591 26.0981C21.0448 26.0973 21.1306 26.0965 21.2189 26.0957C21.7986 26.101 21.7986 26.101 22.024 26.2674C22.1503 26.4403 22.1503 26.4403 22.1249 26.8081C22.0488 27.1506 22.0488 27.1506 21.9473 27.2521C21.6519 27.2628 21.3589 27.267 21.0634 27.2668C20.9707 27.2672 20.8779 27.2675 20.7824 27.2679C20.4742 27.2688 20.1661 27.269 19.8579 27.2691C19.6447 27.2695 19.4314 27.2698 19.2182 27.2702C18.7706 27.2708 18.323 27.271 17.8753 27.2709C17.3005 27.2709 16.7258 27.2723 16.151 27.274C15.7104 27.2751 15.2698 27.2754 14.8292 27.2753C14.6173 27.2754 14.4053 27.2759 14.1933 27.2767C13.8974 27.2776 13.6014 27.2774 13.3055 27.2767C13.2171 27.2773 13.1288 27.2779 13.0379 27.2785C12.4315 27.2753 12.4315 27.2753 12.2054 27.0491C12.1737 26.694 12.1737 26.694 12.2054 26.3388C12.602 26.0744 12.9365 26.1066 13.3966 26.108Z" fill="black"/>
<path d="M12.9079 21.3368C13.0342 21.337 13.0342 21.337 13.163 21.3371C13.296 21.3361 13.296 21.3361 13.4316 21.3351C13.7255 21.3331 14.0195 21.3327 14.3134 21.3325C14.5172 21.3319 14.7209 21.3312 14.9247 21.3305C15.3521 21.3292 15.7796 21.3289 16.2071 21.329C16.7556 21.329 17.3041 21.3262 17.8526 21.3227C18.2735 21.3205 18.6944 21.3201 19.1153 21.3202C19.3176 21.3199 19.5198 21.319 19.7221 21.3175C20.0047 21.3155 20.2872 21.3161 20.5698 21.3173C20.6537 21.3162 20.7377 21.315 20.8243 21.3138C21.3875 21.3201 21.3875 21.3201 21.6473 21.5524C21.7832 21.862 21.7348 22.0618 21.6424 22.3814C21.3111 22.547 20.9454 22.4978 20.5813 22.4976C20.4481 22.4981 20.4481 22.4981 20.3122 22.4986C20.0178 22.4996 19.7234 22.4998 19.429 22.4999C19.225 22.5002 19.021 22.5006 18.817 22.5009C18.3891 22.5015 17.9612 22.5017 17.5333 22.5017C16.9838 22.5017 16.4344 22.503 15.885 22.5048C15.4637 22.5059 15.0423 22.5061 14.621 22.5061C14.4184 22.5062 14.2157 22.5066 14.0131 22.5074C13.7303 22.5084 13.4475 22.5081 13.1647 22.5075C13.0381 22.5084 13.0381 22.5084 12.909 22.5092C12.3296 22.506 12.3296 22.506 12.1035 22.2799C12.0781 21.9247 12.0781 21.9247 12.1035 21.5696C12.3668 21.3063 12.5491 21.3409 12.9079 21.3368Z" fill="black"/>
<path d="M20.2119 18.9048C20.3325 18.9041 20.453 18.9035 20.5772 18.9028C20.7071 18.9032 20.8369 18.9037 20.9706 18.9041C21.171 18.9038 21.171 18.9038 21.3755 18.9035C21.658 18.9032 21.9405 18.9036 22.223 18.9046C22.5847 18.9057 22.9464 18.9051 23.3081 18.9038C23.6537 18.9029 23.9992 18.9036 24.3448 18.9041C24.5395 18.9035 24.5395 18.9035 24.7381 18.9028C24.919 18.9038 24.919 18.9038 25.1035 18.9048C25.2095 18.9049 25.3156 18.9051 25.4248 18.9053C25.708 18.9316 25.8743 18.9735 26.1079 19.134C26.2094 19.4257 26.2094 19.4257 26.2094 19.7429C25.9958 20.0282 25.8726 20.1363 25.5186 20.2003C25.4089 20.2006 25.2993 20.201 25.1863 20.2013C25.0617 20.2026 24.9371 20.2039 24.8087 20.2052C24.6731 20.2044 24.5375 20.2036 24.4018 20.2027C24.2623 20.203 24.1228 20.2033 23.9833 20.2039C23.6912 20.2045 23.3992 20.2036 23.1071 20.2017C22.7331 20.1994 22.3592 20.2007 21.9852 20.2031C21.6972 20.2046 21.4092 20.2041 21.1212 20.2031C20.9833 20.2028 20.8454 20.2031 20.7076 20.2041C20.5147 20.2051 20.3219 20.2033 20.1291 20.2013C20.0194 20.201 19.9098 20.2006 19.7968 20.2003C19.4427 20.1363 19.3196 20.0282 19.106 19.7429C19.106 19.4257 19.106 19.4257 19.2074 19.134C19.5345 18.9093 19.8224 18.9054 20.2119 18.9048Z" fill="black"/>
<path d="M13.0058 28.545C13.1937 28.5441 13.1937 28.5441 13.3854 28.5431C13.5227 28.5434 13.6601 28.5439 13.7974 28.5443C13.9376 28.5442 14.0779 28.544 14.2182 28.5437C14.5124 28.5434 14.8065 28.5439 15.1006 28.5448C15.4781 28.546 15.8555 28.5453 16.2329 28.5441C16.5226 28.5434 16.8123 28.5436 17.102 28.5441C17.2412 28.5442 17.3804 28.5441 17.5196 28.5436C17.7139 28.5431 17.9083 28.544 18.1026 28.545C18.2134 28.5452 18.3241 28.5453 18.4381 28.5455C18.7 28.5713 18.7 28.5713 18.903 28.7742C18.9591 29.3021 18.9591 29.3021 18.7856 29.5524C18.522 29.7428 18.3333 29.7255 18.0099 29.7253C17.889 29.7259 17.7681 29.7266 17.6435 29.7272C17.5129 29.7263 17.3822 29.7254 17.2476 29.7244C17.1123 29.7243 16.9769 29.7244 16.8416 29.7245C16.558 29.7245 16.2745 29.7235 15.9909 29.7216C15.6275 29.7193 15.2641 29.7193 14.9007 29.72C14.6212 29.7203 14.3418 29.7196 14.0623 29.7186C13.8632 29.7181 13.664 29.7182 13.4649 29.7183C13.344 29.7174 13.2231 29.7164 13.0985 29.7154C12.9387 29.7147 12.9387 29.7147 12.7756 29.714C12.5099 29.6875 12.5099 29.6875 12.2054 29.4846C12.1737 29.1294 12.1737 29.1294 12.2054 28.7742C12.4798 28.4999 12.6221 28.5456 13.0058 28.545Z" fill="black"/>
<path d="M24.0468 21.3483C24.1677 21.347 24.2886 21.3457 24.4131 21.3444C24.5443 21.3436 24.6755 21.3429 24.8107 21.3421C24.8773 21.3417 24.9439 21.3413 25.0125 21.3408C25.3649 21.3387 25.7172 21.3373 26.0696 21.3363C26.4338 21.3352 26.798 21.3317 27.1622 21.3277C27.4421 21.325 27.722 21.3242 28.0019 21.3238C28.2015 21.3231 28.4011 21.3204 28.6007 21.3177C28.7826 21.3181 28.7826 21.3181 28.9681 21.3186C29.1284 21.3177 29.1284 21.3177 29.2919 21.3168C29.5583 21.3663 29.5583 21.3663 29.7486 21.5556C29.8628 21.7722 29.8628 21.7722 29.8437 22.0386C29.7613 22.2796 29.7613 22.2796 29.5583 22.4825C29.3048 22.509 29.3048 22.509 28.9812 22.5104C28.7998 22.5119 28.7998 22.5119 28.6148 22.5133C28.4837 22.5132 28.3525 22.5131 28.2173 22.5131C28.0818 22.5134 27.9463 22.5139 27.8108 22.5144C27.5267 22.5151 27.2425 22.5151 26.9584 22.5146C26.5941 22.514 26.23 22.5157 25.8657 22.518C25.5858 22.5195 25.306 22.5196 25.0261 22.5193C24.8265 22.5194 24.6269 22.5208 24.4272 22.5222C24.306 22.5216 24.1848 22.521 24.0599 22.5203C23.953 22.5204 23.8462 22.5204 23.736 22.5205C23.4696 22.4825 23.4696 22.4825 23.2793 22.3509C23.1652 22.1781 23.1652 22.1781 23.1842 21.8102C23.2114 21.6972 23.2387 21.5842 23.2667 21.4677C23.5366 21.3328 23.7445 21.3511 24.0468 21.3483Z" fill="black"/>
<path d="M24.4267 26.0948C24.5958 26.0929 24.5958 26.0929 24.7684 26.0909C24.8902 26.0912 25.012 26.0915 25.1374 26.0918C25.3249 26.091 25.3249 26.091 25.5162 26.0902C25.8484 26.0894 26.1806 26.0901 26.5128 26.0913C26.7165 26.0914 26.9202 26.0902 27.1239 26.0885C27.5146 26.0854 27.9052 26.085 28.2959 26.0855C28.4177 26.0843 28.5395 26.0832 28.665 26.082C28.8341 26.0835 28.8341 26.0835 29.0067 26.0849C29.106 26.0849 29.2054 26.0849 29.3078 26.085C29.5581 26.1358 29.5581 26.1358 29.7459 26.3253C29.8625 26.5417 29.8625 26.5417 29.8435 26.8081C29.761 27.0491 29.761 27.0491 29.5581 27.2521C29.3154 27.2785 29.3154 27.2785 29.0073 27.28C28.8921 27.2809 28.777 27.2819 28.6584 27.2829C28.5335 27.2828 28.4087 27.2827 28.2801 27.2826C28.0887 27.2833 28.0887 27.2833 27.8934 27.2839C27.6231 27.2845 27.3529 27.2847 27.0826 27.2841C26.7359 27.2835 26.3892 27.2853 26.0425 27.2876C25.7123 27.2895 25.382 27.2891 25.0518 27.289C24.8646 27.2904 24.8646 27.2904 24.6735 27.2918C24.5008 27.2908 24.5008 27.2908 24.3246 27.2899C24.1721 27.29 24.1721 27.29 24.0165 27.2901C23.9364 27.2775 23.8563 27.265 23.7738 27.2521C23.5551 26.9241 23.5233 26.8207 23.5709 26.4403C23.8146 26.1034 24.0246 26.097 24.4267 26.0948Z" fill="black"/>
<path d="M20.2633 23.7856C20.3804 23.7846 20.4976 23.7836 20.6183 23.7826C20.7459 23.7822 20.8735 23.7818 21.005 23.7813C21.2 23.7805 21.2 23.7805 21.3989 23.7796C21.6746 23.7785 21.9502 23.7779 22.2258 23.7776C22.5795 23.777 22.9331 23.7746 23.2868 23.7717C23.6234 23.7693 23.96 23.7691 24.2967 23.7686C24.424 23.7674 24.5514 23.7661 24.6826 23.7648C24.8589 23.7653 24.8589 23.7653 25.0387 23.7658C25.1425 23.7654 25.2463 23.765 25.3532 23.7646C25.4756 23.7831 25.4756 23.7831 25.6004 23.8019C25.8034 24.1064 25.8034 24.1064 25.7843 24.4172C25.7019 24.7152 25.7019 24.7152 25.3975 24.9182C25.1555 24.9453 25.1555 24.9453 24.8663 24.9477C24.7579 24.949 24.6495 24.9503 24.5379 24.9516C24.3624 24.9519 24.3624 24.9519 24.1833 24.9523C24.063 24.953 23.9428 24.9536 23.8189 24.9543C23.5645 24.9554 23.31 24.9558 23.0556 24.9558C22.6658 24.9563 22.2761 24.9599 21.8863 24.9638C21.6393 24.9644 21.3923 24.9648 21.1453 24.965C21.0285 24.9664 20.9117 24.9679 20.7913 24.9694C20.6826 24.9688 20.5739 24.9681 20.4619 24.9675C20.3186 24.9679 20.3186 24.9679 20.1724 24.9684C19.8391 24.9027 19.7155 24.7796 19.5117 24.5123C19.5504 23.8553 19.6361 23.7898 20.2633 23.7856Z" fill="black"/>
<path d="M13.0701 18.9048C13.1602 18.9041 13.2503 18.9035 13.3431 18.9028C13.4879 18.9034 13.4879 18.9034 13.6356 18.9041C13.7853 18.9038 13.7853 18.9038 13.9381 18.9035C14.149 18.9034 14.3598 18.9037 14.5707 18.9046C14.8934 18.9057 15.216 18.9046 15.5387 18.9033C15.7437 18.9034 15.9486 18.9037 16.1535 18.9041C16.2501 18.9037 16.3466 18.9033 16.446 18.9028C16.5361 18.9035 16.6262 18.9041 16.719 18.9048C16.798 18.9049 16.877 18.9051 16.9584 18.9053C17.2106 18.9349 17.3714 18.9952 17.5837 19.134C17.6852 19.4257 17.6852 19.4257 17.6852 19.7429C17.5493 19.9627 17.5493 19.9627 17.2793 20.1488C16.922 20.2081 16.5685 20.2007 16.2071 20.1955C16.1025 20.1955 15.9979 20.1954 15.8902 20.1953C15.6693 20.1947 15.4485 20.1931 15.2277 20.1905C14.8891 20.1868 14.5507 20.1864 14.2122 20.1864C13.9977 20.1854 13.7831 20.1842 13.5686 20.1829C13.4671 20.1826 13.3657 20.1824 13.2611 20.1822C13.1669 20.1809 13.0728 20.1796 12.9758 20.1783C12.893 20.1775 12.8101 20.1767 12.7248 20.1759C12.5098 20.1488 12.5098 20.1488 12.2054 19.9458C12.164 19.6706 12.1919 19.4137 12.2054 19.134C12.507 18.9612 12.7237 18.9055 13.0701 18.9048Z" fill="black"/>
<path d="M12.9312 23.7742C13.0403 23.7732 13.1493 23.7722 13.2617 23.7712C13.3798 23.7713 13.498 23.7714 13.6198 23.7715C13.7406 23.7711 13.8615 23.7706 13.986 23.7702C14.2419 23.7696 14.4979 23.7696 14.7538 23.77C15.1467 23.7703 15.5395 23.7679 15.9324 23.7654C16.1805 23.7651 16.4287 23.7651 16.6768 23.7652C16.795 23.7642 16.9132 23.7633 17.0349 23.7623C17.1985 23.7633 17.1985 23.7633 17.3653 23.7642C17.4616 23.7642 17.5579 23.7641 17.6571 23.7641C17.7715 23.7828 17.7715 23.7828 17.8882 23.802C18.0912 24.1065 18.0912 24.1065 18.0721 24.4172C17.9897 24.7153 17.9897 24.7153 17.6852 24.9183C17.4542 24.9441 17.4542 24.9441 17.1804 24.9445C17.0778 24.9452 16.9752 24.9458 16.8695 24.9465C16.7588 24.9461 16.6481 24.9457 16.5341 24.9452C16.3635 24.9455 16.3635 24.9455 16.1895 24.9458C15.9489 24.946 15.7084 24.9456 15.4678 24.9447C15.099 24.9437 14.7303 24.9447 14.3614 24.946C14.128 24.9459 13.8945 24.9456 13.661 24.9452C13.5503 24.9457 13.4396 24.9461 13.3256 24.9465C13.1717 24.9455 13.1717 24.9455 13.0147 24.9445C12.9243 24.9444 12.834 24.9442 12.7409 24.9441C12.5099 24.9183 12.5099 24.9183 12.2054 24.7153C12.1737 24.3602 12.1737 24.3602 12.2054 24.005C12.4666 23.7438 12.5683 23.7759 12.9312 23.7742Z" fill="black"/>
</svg>
