<svg width="38" height="47" viewBox="0 0 38 47" fill="none" xmlns="http://www.w3.org/2000/svg">
<path d="M11.1327 2.28577C7.19464 3.54338 3.8716 4.64495 3.75226 4.73674C3.43097 4.97542 3.18312 5.4803 3.18312 5.89339C3.18312 6.23303 3.45851 6.89397 3.6421 7.01331C3.69718 7.05003 3.7339 7.77522 3.7339 8.95022V10.8229H3.51359C3.24738 10.8229 2.76085 11.1442 2.50382 11.493C2.32941 11.7225 2.30187 11.9336 2.25597 13.2371C2.20089 14.3938 2.09992 15.2567 1.76945 17.1385C1.53996 18.4696 1.34718 19.6905 1.34718 19.8465C1.34718 20.3147 1.70519 20.8471 2.17335 21.0858C2.5589 21.2785 2.68742 21.2877 4.42238 21.2877C6.48781 21.2877 6.81828 21.2051 7.22218 20.6451C7.56183 20.1678 7.54347 19.7639 7.07531 17.111C6.74484 15.1832 6.63468 14.3112 6.58878 13.1912C6.54289 11.9244 6.50617 11.7225 6.34093 11.493C6.0839 11.1442 5.59738 10.8229 5.33117 10.8229H5.11085V9.17053C5.11085 7.71096 5.12921 7.51819 5.25773 7.51819C5.44132 7.51819 8.12179 7.96799 8.35128 8.03225C8.48898 8.07815 8.50734 8.23421 8.50734 9.51936C8.50734 11.1166 8.58078 11.5114 8.92042 11.8326L9.14992 12.0438V15.1373V18.2217L9.41613 18.644C9.61808 18.9561 9.81085 19.1213 10.1597 19.2865C10.4534 19.4151 10.637 19.5619 10.6646 19.6813C11.0777 21.8293 11.8028 23.2246 13.1798 24.5282C13.7948 25.1065 13.8316 25.1615 13.8316 25.5471V25.9418L10.8206 27.9155L7.80968 29.8799L6.15734 30.3664C4.3673 30.8989 3.43097 31.3303 2.57726 32.0096C1.49406 32.8817 0.603628 34.277 0.227261 35.6906C0.080386 36.2598 0.0436672 36.7004 0.0344876 38.059C0.0161282 39.6655 0.0253079 39.7389 0.218081 39.9317C0.456753 40.1795 0.906558 40.1979 1.14523 39.9776C1.30128 39.8399 1.32882 39.6379 1.37472 38.1508C1.41144 36.6912 1.44816 36.3883 1.65929 35.7365C2.0632 34.4606 2.88019 33.4049 4.02765 32.6705C4.56925 32.3125 5.28527 32.0463 7.13039 31.5231L8.01164 31.2752L13.1982 34.3596C16.154 36.1129 18.4857 37.444 18.6142 37.444C18.7335 37.444 19.6148 36.9758 20.5786 36.3975C21.5333 35.8283 23.461 34.6901 24.8472 33.8639C26.2333 33.0377 27.7847 32.1198 28.2804 31.8168L29.1892 31.2752L29.9327 31.4772C31.5484 31.9178 32.6407 32.3125 33.1915 32.6705C34.3206 33.4049 35.1284 34.4514 35.5599 35.7365L35.8077 36.4801L35.8444 40.253C35.8812 44.3012 35.8628 44.5582 35.4314 45.0723C35.0183 45.5588 34.7612 45.6139 32.9253 45.6139H31.273V44.0992C31.273 42.4928 31.2179 42.2082 30.8415 42.043C30.5294 41.8961 30.4101 41.9145 30.1347 42.1348L29.896 42.3184V43.9707V45.6139H18.605H7.31398V43.9707V42.3184L7.07531 42.1348C6.79992 41.9145 6.68058 41.8961 6.36847 42.043C5.9921 42.2082 5.93703 42.4928 5.93703 44.0992V45.6139H4.28468C2.44875 45.6139 2.19171 45.5588 1.77863 45.0723C1.44816 44.6776 1.34718 44.2553 1.34718 43.2455C1.34718 42.5203 1.31964 42.3735 1.16359 42.2174C0.915738 41.9696 0.420034 41.9787 0.190542 42.2266C-0.0573093 42.502 -0.066489 44.3287 0.181363 45.0448C0.410855 45.6873 1.10851 46.4401 1.73273 46.7246L2.21925 46.9449H18.605H34.9907L35.4773 46.7246C36.1015 46.4401 36.7991 45.6873 37.0286 45.0448C37.1755 44.6041 37.1939 44.2002 37.1939 40.5651C37.1939 36.0119 37.1663 35.7824 36.4687 34.3504C35.7802 32.9551 34.7521 31.8994 33.4302 31.2201C33.0814 31.0457 32.0165 30.6602 31.0802 30.3756L29.3636 29.8524L26.371 27.8971L23.3784 25.9418V25.5379C23.3784 25.1615 23.4151 25.1065 24.0302 24.5282C25.4163 23.2155 26.1232 21.8477 26.5546 19.6629C26.573 19.5528 26.6831 19.4334 26.8025 19.4059C27.2064 19.2774 27.6929 18.8735 27.8765 18.4971C28.0509 18.1299 28.0601 17.9371 28.0601 15.0823V12.0438L28.2896 11.8326C28.6292 11.5114 28.7027 11.1166 28.7027 9.51936C28.7027 8.23421 28.721 8.07815 28.8679 8.03225C28.9505 8.00471 29.9144 7.83948 30.9884 7.65588C32.0716 7.47229 33.0997 7.26116 33.265 7.17854C33.7331 6.95823 34.0636 6.34319 34.0085 5.78323C33.9626 5.28753 33.678 4.82854 33.3109 4.63577C32.8243 4.38792 18.8437 -0.00915527 18.5683 2.67029e-05C18.4122 2.67029e-05 15.0616 1.03733 11.1327 2.28577ZM25.5632 3.5801C29.3911 4.79182 32.5489 5.81995 32.5948 5.86584C32.705 5.976 32.5581 6.00354 30.1255 6.40745C28.1886 6.72874 27.8489 6.76546 27.2798 6.69202C25.9028 6.50842 25.4898 6.63694 25.4898 7.23362C25.4898 7.68343 25.7376 7.8762 26.4536 7.97717C26.8116 8.02307 27.1513 8.06897 27.2155 8.06897C27.2982 8.06897 27.3257 8.4178 27.3257 9.49182V10.9147H18.605H9.88429V9.49182C9.88429 8.71155 9.92101 8.06897 9.96691 8.06897C10.0128 8.06897 11.7202 7.85784 13.7581 7.60999C18.045 7.06839 18.9079 7.04085 21.3589 7.34378C23.1581 7.56409 23.3784 7.54573 23.5804 7.11428C23.7181 6.80217 23.5345 6.37073 23.2132 6.24221C22.7634 6.0678 19.7892 5.76487 18.5683 5.76487C17.6778 5.76487 16.3101 5.90257 13.3175 6.26975L9.26007 6.77464L6.95597 6.38909C4.89054 6.03108 4.44074 5.9301 4.56925 5.83831C4.61515 5.80159 18.4398 1.39534 18.5407 1.37698C18.5866 1.37698 21.7444 2.35921 25.5632 3.5801ZM5.20265 12.8424V13.485H4.42238H3.6421V12.8424V12.1998H4.42238H5.20265V12.8424ZM12.0874 13.1545C12.0874 14.0082 12.0874 14.0266 11.8028 14.2561C11.5734 14.4489 11.4265 14.4948 11.0226 14.4948H10.5269V13.3932V12.2916H11.3071H12.0874V13.1545ZM23.764 13.3289C23.7915 14.302 23.8099 14.403 24.0669 14.8252C24.4892 15.4953 25.04 15.7983 25.9487 15.8533L26.6831 15.8992V16.8815C26.6831 17.9647 26.6739 17.983 26.0773 18.1483C25.4898 18.3227 25.3245 18.5705 25.1685 19.5252C24.9023 21.1684 24.379 22.2057 23.2407 23.3623C22.6349 23.9774 22.3503 24.1793 21.6343 24.5282C20.4685 25.1065 19.7892 25.2717 18.605 25.2717C17.4208 25.2717 16.7415 25.1065 15.5941 24.5373C14.8964 24.1977 14.5935 23.9774 13.9876 23.3715C12.8402 22.2149 12.3077 21.1776 12.0415 19.5252C11.8855 18.5705 11.7202 18.3227 11.1327 18.1483C10.536 17.983 10.5269 17.9647 10.5269 16.8815V15.8992L11.2612 15.8533C12.17 15.7983 12.7208 15.4953 13.1431 14.8252C13.4001 14.403 13.4185 14.302 13.446 13.3289L13.4827 12.2916H18.605H23.7273L23.764 13.3289ZM26.6831 13.3932V14.4948H26.1874C25.7835 14.4948 25.6366 14.4489 25.4071 14.2561C25.1226 14.0266 25.1226 14.0082 25.1226 13.1545V12.2916H25.9028H26.6831V13.3932ZM5.34035 15.0639C5.43214 15.5045 6.12062 19.5987 6.12062 19.7455C6.12062 19.9016 5.98292 19.9108 4.47746 19.9108C3.54113 19.9108 2.80675 19.874 2.77003 19.8281C2.72414 19.7455 3.21066 16.6336 3.46769 15.3393L3.55949 14.8619H4.43156C5.24855 14.8619 5.29445 14.8711 5.34035 15.0639ZM16.2091 26.2998C17.9624 26.8782 19.8902 26.7772 21.8546 26.0061C22.0198 25.9418 22.029 25.9877 21.9739 27.126C21.9372 27.7778 21.8454 28.6406 21.7536 29.0446L21.5884 29.7789L20.9458 29.8983C20.5694 29.9717 19.6148 30.0176 18.605 30.0176C17.5952 30.0176 16.6497 29.9717 16.2734 29.8983C15.6767 29.7881 15.6308 29.7606 15.5573 29.5035C15.3829 28.8518 15.2085 27.5207 15.2085 26.7588C15.2085 26.0244 15.2269 25.951 15.3737 26.0153C15.4564 26.0428 15.8327 26.1805 16.2091 26.2998ZM14.006 28.7416C14.3181 30.55 15.0892 32.5971 15.9796 33.9924C16.1632 34.2862 16.3101 34.534 16.2917 34.5524C16.2734 34.5707 14.9882 33.818 13.4185 32.8817C11.8579 31.9545 10.3157 31.0365 10.0036 30.853C9.63644 30.6418 9.46203 30.4858 9.5171 30.4307C9.64562 30.3022 13.7765 27.6309 13.804 27.6584C13.8224 27.6676 13.9142 28.1541 14.006 28.7416ZM25.5816 29.0262C26.6648 29.7239 27.6103 30.3481 27.6653 30.4123C27.7571 30.4949 27.0136 30.9723 24.3607 32.5512C22.488 33.6619 20.9366 34.5707 20.9183 34.5524C20.8999 34.534 21.0651 34.2403 21.2763 33.9006C22.1759 32.4319 22.8919 30.5408 23.1581 28.9252C23.3784 27.5942 23.3693 27.6033 23.4978 27.6768C23.562 27.7135 24.4984 28.3194 25.5816 29.0262ZM18.605 31.4313C19.0364 31.4313 19.7708 31.4037 20.239 31.367L21.0835 31.2936L20.6612 32.1473C20.2206 33.0285 18.7152 35.4244 18.605 35.4244C18.4948 35.4244 16.9894 33.0285 16.5487 32.1473L16.1265 31.2936L16.971 31.367C17.4392 31.4037 18.1735 31.4313 18.605 31.4313Z" fill="black"/>
</svg>
