<svg width="84" height="85" viewBox="0 0 84 85" fill="none" xmlns="http://www.w3.org/2000/svg">
<circle cx="42" cy="42" r="42" fill="white" fill-opacity="0.1"/>
<path d="M71.3125 38.6875C72.8268 38.6875 74.3071 38.2385 75.5661 37.3972C76.8252 36.5559 77.8064 35.3602 78.3859 33.9612C78.9654 32.5622 79.1171 31.0228 78.8217 29.5376C78.5263 28.0524 77.797 26.6882 76.7262 25.6175C75.6556 24.5467 74.2913 23.8175 72.8061 23.5221C71.3209 23.2267 69.7815 23.3783 68.3825 23.9578C66.9835 24.5373 65.7878 25.5186 64.9465 26.7777C64.1052 28.0367 63.6562 29.517 63.6562 31.0313C63.6586 33.0611 64.4659 35.0072 65.9012 36.4425C67.3365 37.8779 69.2827 38.6852 71.3125 38.6875ZM71.3125 25.5625C72.3942 25.5625 73.4515 25.8832 74.3507 26.4841C75.2501 27.0851 75.951 27.9392 76.3649 28.9385C76.7788 29.9377 76.8872 31.0373 76.6762 32.0982C76.4652 33.159 75.9444 34.1334 75.1795 34.8982C74.4147 35.6631 73.4403 36.1839 72.3795 36.3949C71.3186 36.6059 70.219 36.4976 69.2197 36.0837C68.2205 35.6698 67.3664 34.9689 66.7654 34.0695C66.1645 33.1702 65.8438 32.1129 65.8438 31.0313C65.8454 29.5814 66.422 28.1913 67.4473 27.1661C68.4725 26.1408 69.8626 25.5641 71.3125 25.5625Z" fill="white"/>
<path d="M70.2188 40.875H72.4062V43.0625H70.2188V40.875Z" fill="white"/>
<path d="M59.2812 29.9375H61.4688V32.125H59.2812V29.9375Z" fill="white"/>
<path d="M81.1562 29.9375H83.3438V32.125H81.1562V29.9375Z" fill="white"/>
<path d="M70.2188 19H72.4062V21.1875H70.2188V19Z" fill="white"/>
<path d="M75.2856 40.1025L77.18 39.0088L78.2737 40.9032L76.3793 41.9969L75.2856 40.1025Z" fill="white"/>
<path d="M60.3452 36.1006L62.2395 35.0068L63.3332 36.9011L61.4388 37.9948L60.3452 36.1006Z" fill="white"/>
<path d="M79.2896 25.1641L81.184 24.0703L82.2776 25.9646L80.3832 27.0583L79.2896 25.1641Z" fill="white"/>
<path d="M64.3481 21.1587L66.2425 20.0649L67.3363 21.9593L65.4419 23.0531L64.3481 21.1587Z" fill="white"/>
<path d="M79.29 36.9021L80.3837 35.0078L82.2781 36.1015L81.1844 37.9958L79.29 36.9021Z" fill="white"/>
<path d="M64.3491 40.9055L65.4428 39.0112L67.3371 40.105L66.2434 41.9992L64.3491 40.9055Z" fill="white"/>
<path d="M75.2871 21.9612L76.3807 20.0669L78.2751 21.1606L77.1814 23.0549L75.2871 21.9612Z" fill="white"/>
<path d="M60.3447 25.9631L61.4384 24.0688L63.3328 25.1626L62.2391 27.0568L60.3447 25.9631Z" fill="white"/>
<path d="M76.6657 55.6982C76.5748 55.5165 76.4352 55.3637 76.2625 55.257C76.0898 55.1502 75.8907 55.0936 75.6875 55.0936H63.6562V53.9717H63.6836C64.4353 53.9716 65.1701 53.7487 65.7951 53.3311C66.42 52.9134 66.9072 52.3199 67.1948 51.6254C67.4825 50.931 67.5576 50.1668 67.411 49.4296C67.2645 48.6923 66.9026 48.0151 66.3711 47.4836L53.2188 34.3312C52.7749 33.8866 52.227 33.5597 51.625 33.3802V29.9374C51.8545 29.9373 52.0782 29.8651 52.2645 29.7308C52.4507 29.5966 52.59 29.4072 52.6626 29.1894L53.3839 27.0252C53.4176 26.9239 53.4808 26.8348 53.5652 26.7693C53.6496 26.7037 53.7515 26.6647 53.8582 26.6571C53.9648 26.6496 54.0712 26.6738 54.164 26.7267C54.2569 26.7797 54.3319 26.859 54.3797 26.9546L55.0221 28.2388L56.9786 27.2604L56.336 25.9761C56.0947 25.4935 55.7159 25.0934 55.2472 24.8262C54.7785 24.559 54.2411 24.4369 53.7029 24.4751C53.1648 24.5134 52.6502 24.7104 52.2239 25.0412C51.7978 25.372 51.4794 25.8218 51.3088 26.3336L50.8367 27.7499H49.0196L48.2282 26.1669C48.0984 25.9075 47.871 25.7102 47.5959 25.6185C47.3207 25.5268 47.0203 25.5482 46.7609 25.6779L44.5734 26.7716L45.5516 28.7281L46.7609 28.1235L47.3655 29.3328C47.4563 29.5144 47.5959 29.6672 47.7687 29.774C47.9415 29.8808 48.1406 29.9373 48.3438 29.9374H49.4375V33.3802C48.8354 33.5599 48.2876 33.887 47.8438 34.3318L34.6915 47.4841C34.1599 48.0157 33.7978 48.6929 33.6511 49.4302C33.5045 50.1674 33.5798 50.9317 33.8675 51.6262C34.1552 52.3207 34.6423 52.9143 35.2673 53.3319C35.8924 53.7496 36.6272 53.9725 37.379 53.9725H37.4062V55.0936H25.375C25.1719 55.0936 24.9728 55.1502 24.8 55.257C24.6273 55.3637 24.4876 55.5165 24.3968 55.6982L21.1155 62.2607C21.0395 62.4125 21 62.58 21 62.7499V83.5038C21 83.7938 21.1152 84.072 21.3204 84.2772C21.5255 84.4823 21.8037 84.5975 22.0938 84.5975H78.9688C79.2589 84.5975 79.537 84.4823 79.7421 84.2772C79.9473 84.072 80.0624 83.7938 80.0624 83.5038V73.6874H77.875V82.41H63.6562V63.8436H77.875V71.4999H80.0624V62.7499C80.0625 62.58 80.023 62.4125 79.947 62.2607L76.6657 55.6982ZM26.051 57.2811H37.4062V61.6561H23.8634L26.051 57.2811ZM23.1875 63.8436H37.4062V82.41H23.1875V63.8436ZM55.6272 72.5663H45.4354C45.3365 72.5662 45.2416 72.5268 45.1717 72.4569C45.1018 72.387 45.0625 72.2922 45.0625 72.1933V70.7513C45.0627 70.6525 45.1019 70.5577 45.1719 70.4879C45.2418 70.418 45.3365 70.3787 45.4354 70.3786H55.6272C55.7261 70.3787 55.8208 70.418 55.8907 70.4879C55.9606 70.5577 55.9999 70.6525 56 70.7513V72.1933C56 72.2922 55.9607 72.387 55.8908 72.4569C55.8209 72.5268 55.7261 72.5662 55.6272 72.5663ZM47.25 74.7538H53.8125V82.41H47.25V74.7538ZM56 82.41V74.7233C56.6072 74.6336 57.1618 74.3289 57.5634 73.8648C57.9649 73.4006 58.1862 72.8077 58.1875 72.194V70.7513C58.1867 70.0725 57.9166 69.4218 57.4366 68.9419C56.9567 68.4619 56.306 68.192 55.6272 68.1913H45.4354C44.7565 68.192 44.1057 68.4619 43.6257 68.9419C43.1458 69.4218 42.8757 70.0725 42.875 70.7513V72.1933C42.8762 72.807 43.0976 73.3999 43.4991 73.8641C43.9007 74.3283 44.4554 74.6329 45.0625 74.7226V82.41H39.5938V53.2601C39.7617 53.1394 39.9198 53.0053 40.0662 52.8592L44.7146 48.2108L43.1679 46.6639L38.5194 51.3124C38.3699 51.4626 38.1923 51.5818 37.9965 51.6629C37.8008 51.744 37.5909 51.7855 37.379 51.785C37.0599 51.7849 36.748 51.6903 36.4828 51.513C36.2175 51.3358 36.0108 51.0838 35.8888 50.7891C35.7668 50.4944 35.7347 50.1701 35.7969 49.8572C35.8591 49.5443 36.0128 49.2568 36.2383 49.0312L49.3907 35.8789C49.6934 35.5768 50.1035 35.4071 50.5312 35.4071C50.959 35.4071 51.3691 35.5768 51.6718 35.8789L64.8242 49.0312C65.0497 49.2568 65.2034 49.5443 65.2655 49.8572C65.3277 50.1701 65.2958 50.4944 65.1738 50.7891C65.0517 51.0838 64.8449 51.3358 64.5797 51.513C64.3144 51.6903 64.0027 51.7849 63.6836 51.785C63.4717 51.7856 63.2617 51.7441 63.0659 51.663C62.8701 51.5819 62.6923 51.4628 62.5429 51.3125L51.3046 40.0742C51.2031 39.9727 51.0825 39.8921 50.9498 39.8371C50.8171 39.7822 50.6749 39.7539 50.5312 39.7539C50.3876 39.7539 50.2454 39.7822 50.1127 39.8371C49.98 39.8921 49.8594 39.9727 49.7579 40.0742L45.3554 44.4766L46.9023 46.0234L50.5312 42.3941L60.9963 52.8592C61.1427 53.0053 61.3008 53.1394 61.4688 53.2601V82.41H56ZM63.6562 57.2811H75.0116L77.1991 61.6561H63.6562V57.2811Z" fill="white"/>
<path d="M50.5312 50.7188C49.2387 50.7188 47.9752 51.102 46.9005 51.8201C45.8258 52.5382 44.9881 53.5589 44.4935 54.753C43.9989 55.9472 43.8695 57.2612 44.1216 58.5289C44.3738 59.7965 44.9962 60.9611 45.9101 61.875C46.8241 62.7889 47.9886 63.4114 49.2563 63.6636C50.524 63.9158 51.838 63.7862 53.0321 63.2916C54.2262 62.797 55.2469 61.9594 55.965 60.8847C56.6831 59.81 57.0664 58.5464 57.0664 57.2539C57.0644 55.5213 56.3753 53.8601 55.1501 52.635C53.925 51.4098 52.2638 50.7208 50.5312 50.7188ZM50.5312 61.6017C49.6713 61.6017 48.8307 61.3467 48.1158 60.8689C47.4008 60.3912 46.8436 59.7122 46.5145 58.9178C46.1854 58.1234 46.0993 57.2492 46.2671 56.4058C46.4348 55.5625 46.8489 54.7877 47.4569 54.1796C48.065 53.5716 48.8397 53.1575 49.683 52.9898C50.5264 52.822 51.4005 52.9082 52.195 53.2373C52.9894 53.5664 53.6684 54.1236 54.1461 54.8386C54.6239 55.5535 54.8789 56.394 54.8789 57.2539C54.8776 58.4066 54.4191 59.5118 53.6041 60.3269C52.789 61.1419 51.6839 61.6004 50.5312 61.6017Z" fill="white"/>
<path d="M66.9375 67.125C66.6475 67.125 66.3693 67.2402 66.1642 67.4454C65.959 67.6505 65.8438 67.9287 65.8438 68.2187V76.9414C65.8438 77.2315 65.959 77.5097 66.1642 77.7148C66.3693 77.9199 66.6475 78.0352 66.9375 78.0352H73.5C73.79 78.0352 74.0682 77.9199 74.2733 77.7148C74.4785 77.5097 74.5938 77.2315 74.5938 76.9414V68.2187C74.5938 67.9287 74.4785 67.6505 74.2733 67.4454C74.0682 67.2402 73.79 67.125 73.5 67.125H66.9375ZM72.4062 75.8477H68.0312V69.3125H72.4062V75.8477Z" fill="white"/>
<path d="M34.125 67.125H27.5625C27.2725 67.125 26.9943 67.2402 26.7892 67.4454C26.584 67.6505 26.4688 67.9287 26.4688 68.2187V76.9414C26.4688 77.2315 26.584 77.5097 26.7892 77.7148C26.9943 77.9199 27.2725 78.0352 27.5625 78.0352H34.125C34.415 78.0352 34.6932 77.9199 34.8983 77.7148C35.1035 77.5097 35.2188 77.2315 35.2188 76.9414V68.2187C35.2188 67.9287 35.1035 67.6505 34.8983 67.4454C34.6932 67.2402 34.415 67.125 34.125 67.125ZM33.0312 75.8477H28.6562V69.3125H33.0312V75.8477Z" fill="white"/>
<path d="M51.625 54H49.4375V57.2539C49.4374 57.5416 49.5508 57.8178 49.753 58.0225C49.9551 58.2272 50.2298 58.3441 50.5175 58.3477L52.705 58.375L52.7324 56.1875L51.625 56.1738V54Z" fill="white"/>
</svg>
