<svg width="49" height="50" viewBox="0 0 49 50" fill="none" xmlns="http://www.w3.org/2000/svg">
<path d="M18.4906 0.944704C19.6545 1.93436 20.2529 3.0481 20.3764 4.56705C20.4412 5.99823 19.8684 7.18229 18.9418 8.23923C18.8684 8.31245 18.795 8.38567 18.7195 8.46111C18.8029 8.50558 18.8862 8.55005 18.9722 8.59588C19.804 9.05701 20.4914 9.56626 21.1648 10.2361C21.2438 10.3123 21.3227 10.3885 21.4041 10.4671C22.3027 11.395 23.1414 12.8858 23.173 14.2051C23.1706 14.2865 23.1681 14.3679 23.1656 14.4517C23.2757 14.4151 23.3857 14.3785 23.4991 14.3408C23.6517 14.3306 23.8047 14.3263 23.9576 14.326C24.0453 14.3259 24.133 14.3257 24.2233 14.3256C24.36 14.3262 24.36 14.3262 24.4995 14.3269C24.6362 14.3262 24.6362 14.3262 24.7756 14.3256C24.9071 14.3258 24.9071 14.3258 25.0413 14.326C25.1213 14.3261 25.2012 14.3263 25.2836 14.3264C25.4999 14.3408 25.4999 14.3408 25.8333 14.4517C25.8402 14.3167 25.8471 14.1817 25.8542 14.0426C26.0707 12.1567 27.2776 10.5161 28.7233 9.3486C29.2176 9.00797 29.742 8.72729 30.2795 8.46111C30.1832 8.35585 30.0869 8.2506 29.9877 8.14216C29.0393 7.02104 28.5203 5.8282 28.6413 4.33662C28.8008 2.95133 29.3656 1.97306 30.3906 1.02834C31.5136 0.168314 32.7738 -0.0967582 34.1699 0.0299091C35.3873 0.254151 36.4983 0.879792 37.2335 1.87423C38.0602 3.09107 38.3693 4.40714 38.095 5.86102C37.8191 6.92827 37.2136 7.74623 36.5041 8.57204C36.603 8.60136 36.7018 8.63067 36.8037 8.66088C37.3691 8.86564 37.8061 9.21033 38.2826 9.57047C38.3598 9.62753 38.437 9.68459 38.5166 9.74338C39.9088 10.8555 40.7541 12.6169 41.0614 14.3408C41.0979 14.8873 41.0934 15.4296 41.0822 15.9771C41.0807 16.1192 41.0792 16.2614 41.0777 16.4078C41.0738 16.7543 41.0683 17.1006 41.0614 17.447C41.1714 17.4104 41.2815 17.3738 41.3949 17.336C42.6515 17.2564 43.7455 17.5363 44.7295 18.3345C45.0421 18.6188 45.0421 18.6188 45.2853 18.8892C45.3609 18.9715 45.4366 19.0539 45.5145 19.1388C46.2645 20.2011 46.3733 21.2821 46.2856 22.5501C46.1203 23.3988 45.7893 24.032 45.2284 24.6865C45.055 24.8733 45.055 24.8733 44.9518 25.1016C45.0191 25.1381 45.0865 25.1746 45.1559 25.2121C46.9247 26.2143 48.2181 27.7019 48.8031 29.6613C49.02 30.5669 49.0033 31.4788 48.9968 32.4046C48.995 32.7106 48.9968 33.0164 48.9989 33.3224C48.9987 33.5175 48.9983 33.7126 48.9976 33.9077C48.9983 33.9988 48.999 34.09 48.9997 34.1839C48.9919 34.8104 48.9919 34.8104 48.8167 35.0542C48.5614 35.2392 48.4087 35.2394 48.0945 35.2411C47.9325 35.2432 47.9325 35.2432 47.7672 35.2453C47.6488 35.2452 47.5305 35.245 47.4086 35.2448C47.2839 35.246 47.1591 35.2471 47.0306 35.2483C46.6175 35.2516 46.2043 35.2526 45.7911 35.2536C45.505 35.2555 45.2189 35.2575 44.9327 35.2597C44.2561 35.2644 43.5794 35.2677 42.9027 35.2702C42.1322 35.2732 41.3618 35.2781 40.5914 35.2831C39.0067 35.2935 37.4219 35.3014 35.8372 35.3078C35.7914 35.7429 35.7914 35.7429 36.0208 35.9852C36.1047 36.0666 36.1885 36.1479 36.2748 36.2317C36.3651 36.3204 36.4554 36.409 36.5484 36.5004C36.6438 36.5919 36.7392 36.6834 36.8376 36.7777C36.9807 36.9176 36.9807 36.9176 37.1267 37.0603C37.3628 37.2907 37.5999 37.52 37.8379 37.7484C37.9235 37.7126 38.009 37.6767 38.0972 37.6398C38.4159 37.5181 38.658 37.4898 38.9981 37.4849C39.0988 37.4818 39.1996 37.4786 39.3033 37.4754C39.9753 37.5852 40.4528 38.1069 40.9167 38.5737C41.0058 38.662 41.0058 38.662 41.0966 38.7521C41.291 38.9451 41.4845 39.1389 41.678 39.3327C41.8135 39.4679 41.9491 39.603 42.0847 39.738C42.368 40.0204 42.6508 40.3032 42.9334 40.5862C43.2954 40.9488 43.6585 41.3104 44.0218 41.6717C44.3016 41.9502 44.5809 42.2292 44.86 42.5083C44.9936 42.6419 45.1275 42.7753 45.2615 42.9085C45.4485 43.0946 45.6348 43.2814 45.8209 43.4684C45.8763 43.5231 45.9316 43.5779 45.9886 43.6343C46.4579 44.1085 46.6513 44.438 46.6608 45.1049C46.6639 45.2052 46.6671 45.3054 46.6703 45.4087C46.5491 46.1827 46.0134 46.7241 45.4776 47.256C45.411 47.3231 45.3444 47.3902 45.2758 47.4593C45.1356 47.5999 44.995 47.7401 44.854 47.8798C44.6396 48.0929 44.4273 48.3079 44.2152 48.5232C44.078 48.6602 43.9408 48.7972 43.8033 48.934C43.7407 48.9978 43.678 49.0615 43.6134 49.1273C43.0808 49.6497 42.6049 49.9159 41.8464 50C40.6643 49.9362 39.8946 48.9631 39.1175 48.1812C38.9851 48.0494 38.8526 47.9175 38.72 47.7858C38.4434 47.5104 38.1676 47.2342 37.8924 46.9574C37.5406 46.6038 37.1868 46.2522 36.8324 45.9011C36.5588 45.6297 36.2863 45.3571 36.014 45.0842C35.884 44.9542 35.7537 44.8245 35.623 44.6951C35.4403 44.5138 35.259 44.3312 35.0781 44.1482C34.9748 44.0448 34.8716 43.9414 34.7653 43.835C34.2533 43.2138 34.1068 42.6454 34.1699 41.8531C34.2432 41.6334 34.3166 41.4138 34.3922 41.1875C33.6952 40.4919 32.9983 39.7963 32.2802 39.0797C31.8732 39.2422 31.5932 39.3753 31.2382 39.6066C28.4664 41.2811 24.7464 41.7872 21.6047 41.0796C21.4578 41.0426 21.3112 41.0046 21.1648 40.9656C21.0861 40.9447 21.0073 40.9239 20.9262 40.9024C18.5524 40.2463 16.5449 39.0229 14.7943 37.3116C14.7331 37.2521 14.6719 37.1926 14.6088 37.1312C14.549 37.0708 14.4891 37.0103 14.4274 36.948C14.3675 36.8879 14.3076 36.8278 14.2459 36.7659C14.051 36.5281 14.051 36.5281 13.9207 36.2248C13.7283 35.8301 13.5415 35.5326 13.1618 35.3078C12.2397 35.067 11.2343 35.1589 10.2904 35.1761C10.0059 35.1767 9.72139 35.1767 9.43687 35.1762C8.7656 35.1762 8.09459 35.1814 7.42339 35.1893C6.14885 35.2041 4.87425 35.2062 3.59964 35.2089C3.18071 35.2107 2.76187 35.2152 2.34296 35.2202C2.08738 35.222 1.8318 35.2238 1.57622 35.2255C1.40082 35.2286 1.40082 35.2286 1.22188 35.2318C1.11515 35.2321 1.00842 35.2325 0.898462 35.2329C0.80566 35.234 0.712858 35.235 0.617244 35.2361C0.317759 35.1868 0.221326 35.1087 0.0456028 34.8641C0.0123477 34.5373 -0.00110482 34.2345 0.00131493 33.9077C0.000995897 33.8128 0.000676865 33.7179 0.000348166 33.6202C0.000121095 33.4189 0.000737473 33.2175 0.00212904 33.0162C0.00389349 32.7123 0.00215707 32.4086 1.23435e-05 32.1047C-0.00282946 29.9256 0.484452 28.0897 2.05549 26.5104C2.53889 26.0641 3.05709 25.6897 3.60253 25.3235C3.75142 25.2135 3.89989 25.1029 4.04714 24.9907C4.00416 24.9449 3.96117 24.8992 3.91689 24.852C2.96986 23.8039 2.65814 22.7171 2.67769 21.3077C2.78406 20.048 3.40723 19.0806 4.3602 18.2747C5.33152 17.5044 6.37072 17.2563 7.60407 17.336C7.71411 17.3727 7.82415 17.4093 7.93753 17.447C7.93404 17.3189 7.93404 17.3189 7.93048 17.1882C7.86367 14.3663 8.11868 12.1522 10.1606 10.0142C11.7291 8.57204 11.7291 8.57204 12.4948 8.57204C12.4371 8.50483 12.3794 8.43762 12.3199 8.36837C11.3316 7.18335 10.7577 6.02456 10.7928 4.46305C10.9326 3.14098 11.5074 2.02374 12.4948 1.13928C12.6118 1.02945 12.6118 1.02945 12.731 0.917404C14.4765 -0.294454 16.7527 -0.325209 18.4906 0.944704ZM13.2139 2.69933C12.5943 3.51501 12.3993 4.34324 12.4948 5.35488C12.7307 6.25051 13.1454 6.91367 13.919 7.43494C14.7627 7.92192 15.5416 7.98496 16.4964 7.79548C17.3592 7.51848 18.0141 6.90792 18.4277 6.11063C18.7737 5.37331 18.8242 4.63834 18.5944 3.85723C18.2319 2.87654 17.5714 2.22308 16.6423 1.77023C15.3423 1.50094 14.1324 1.69609 13.2139 2.69933ZM30.9464 2.80333C30.3709 3.64556 30.1515 4.46662 30.319 5.48401C30.5448 6.34017 31.1328 6.9923 31.8335 7.51641C32.5826 7.94187 33.4681 8.00178 34.2949 7.79548C35.2236 7.46837 35.8502 6.9022 36.2957 6.03306C36.6126 5.26919 36.6437 4.38415 36.3304 3.61455C35.9106 2.79128 35.3386 2.19812 34.5033 1.8049C33.1855 1.39423 31.8527 1.78176 30.9464 2.80333ZM11.3138 11.2761C9.84616 12.8951 9.46385 14.547 9.41727 16.6982C9.4062 16.8844 9.4062 16.8844 9.39491 17.0743C9.37796 17.7777 9.37796 17.7777 9.70837 18.3752C9.88426 18.526 10.0648 18.6715 10.2498 18.8111C10.885 19.3025 11.2262 20.2852 11.3629 21.0633C11.4492 22.1903 11.3003 23.3724 10.6004 24.29C10.3867 24.532 10.1688 24.7646 9.9383 24.9907C10.1812 25.2576 10.4117 25.4117 10.7372 25.5662C10.8565 25.6234 10.8565 25.6234 10.9782 25.6819C11.0385 25.71 11.0988 25.7382 11.161 25.7672C11.1947 25.6318 11.2283 25.4964 11.263 25.3569C12.2334 21.5205 14.1791 18.3595 17.613 16.2442C18.8645 15.5042 20.2206 15.0809 21.6095 14.6736C21.2692 12.9665 20.4868 11.6378 19.0738 10.5897C16.4781 8.90246 13.5784 9.23121 11.3138 11.2761ZM29.3902 11.0127C29.286 11.0957 29.286 11.0957 29.1797 11.1804C28.1442 12.1065 27.6817 13.3566 27.3895 14.6736C27.4615 14.6958 27.5336 14.718 27.6079 14.741C31.3509 15.9078 34.4224 17.8904 36.3143 21.4082C37.0348 22.7953 37.5358 24.232 37.8379 25.7672C38.2414 25.5476 38.6449 25.3279 39.0606 25.1016C38.9621 24.9964 38.8635 24.8911 38.7619 24.7827C37.9191 23.7944 37.5719 22.6856 37.6226 21.3991C37.7429 20.2276 38.1935 19.2489 39.0606 18.4454C39.1369 18.3995 39.2132 18.3536 39.2919 18.3063C39.5316 18.1276 39.5316 18.1276 39.5592 17.8312C39.5583 17.7206 39.5574 17.6099 39.5565 17.496C39.5561 17.3729 39.5556 17.2498 39.5552 17.1231C39.5525 16.9943 39.5497 16.8655 39.5469 16.7328C39.5468 16.6079 39.5466 16.483 39.5465 16.3543C39.5254 14.3221 39.0585 12.7911 37.6851 11.2761C35.2182 9.04851 32.0104 8.91786 29.3902 11.0127ZM16.8298 18.7782C16.7389 18.8532 16.6479 18.9281 16.5541 19.0053C14.3377 20.8848 12.867 23.8221 12.6203 26.7137C12.4487 29.9933 13.3206 33.122 15.496 35.6406C16.0737 36.2713 16.6394 36.8742 17.3856 37.3047C17.3865 37.2347 17.3874 37.1647 17.3883 37.0927C17.398 36.3564 17.4091 35.6202 17.4209 34.884C17.4251 34.6102 17.429 34.3364 17.4325 34.0626C17.5031 28.6234 17.5031 28.6234 19.2991 26.8562C19.5235 26.6755 19.5235 26.6755 19.4975 26.4329C19.5596 26.4041 19.6216 26.3754 19.6855 26.3458C19.973 26.1948 20.227 26.0184 20.491 25.8296C20.8553 25.5694 21.2226 25.3275 21.6095 25.1016C21.5678 25.0504 21.5261 24.9992 21.4831 24.9465C20.4482 23.6299 20.1442 22.4254 20.2756 20.7751C20.4839 19.7119 21.0845 18.8279 21.9568 18.1889C23.0121 17.5447 24.1995 17.2609 25.41 17.5241C26.6734 17.8719 27.5847 18.4279 28.2787 19.5548C28.8756 20.6335 28.9203 21.983 28.6252 23.165C28.347 23.8904 27.9434 24.449 27.3895 24.9907C27.656 25.2848 27.9439 25.4635 28.2856 25.6632C29.8629 26.6601 30.7813 28.0624 31.3142 29.8247C31.514 30.8131 31.5221 31.8253 31.5373 32.8304C31.5396 32.9591 31.542 33.0879 31.5443 33.2206C31.5515 33.6274 31.5581 34.0343 31.5647 34.4411C31.5695 34.7188 31.5743 34.9965 31.5792 35.2742C31.5911 35.951 31.6024 36.6278 31.6133 37.3047C31.7556 37.1991 31.8977 37.0934 32.0398 36.9877C32.1189 36.9288 32.1981 36.87 32.2796 36.8094C34.5431 35.0801 35.8884 32.2502 36.3096 29.4906C36.7012 26.1192 35.7961 23 33.7252 20.3313C31.7826 17.9738 28.9008 16.3204 25.8333 16.0048C22.5114 15.8449 19.3766 16.5397 16.8298 18.7782ZM4.75141 20.2304C4.3237 20.8407 4.20554 21.5272 4.33198 22.2589C4.53299 23.0374 4.94283 23.6674 5.62414 24.1032C6.37411 24.5284 7.25686 24.5821 8.09167 24.368C8.82868 24.0399 9.39415 23.4037 9.70905 22.6679C9.95896 21.8698 9.88808 21.1949 9.51496 20.4501C9.05319 19.6492 8.46798 19.2875 7.60407 19.0001C6.39995 18.8457 5.49822 19.2943 4.75141 20.2304ZM22.2347 20.1883C21.7511 20.8602 21.636 21.5606 21.7623 22.375C21.9697 23.1253 22.4155 23.7089 23.0584 24.1461C23.8176 24.538 24.6613 24.5963 25.4751 24.3381C26.287 23.9701 26.8277 23.463 27.1602 22.6333C27.3958 21.7991 27.2947 21.0448 26.8754 20.2897C26.4225 19.6086 25.8651 19.1744 25.0552 19.0001C23.8429 18.8654 22.996 19.2429 22.2347 20.1883ZM39.7276 19.9985C39.2339 20.8039 39.0222 21.5636 39.236 22.4981C39.5229 23.3413 40.082 23.949 40.8834 24.3463C41.649 24.5838 42.492 24.5419 43.222 24.2141C43.9054 23.8237 44.4033 23.1999 44.6183 22.4391C44.7854 21.7164 44.7423 21.0642 44.363 20.4189C43.881 19.7518 43.3215 19.2197 42.5064 19.0001C41.416 18.8503 40.4894 19.2205 39.7276 19.9985ZM2.82445 28.0969C1.53545 29.7909 1.60176 31.5384 1.60176 33.6438C5.12311 33.6438 8.64447 33.6438 12.2725 33.6438C12.0158 32.875 11.759 32.1062 11.4945 31.3141C11.1635 29.8388 11.1635 29.8388 11.1445 29.0871C11.1534 28.192 11.1534 28.192 10.7511 27.4313C8.23004 25.4277 4.98796 25.771 2.82445 28.0969ZM38.108 27.6444C37.8163 28.0677 37.8336 28.5122 37.824 29.0121C37.7782 29.8512 37.6855 30.6344 37.4628 31.4458C37.4409 31.5266 37.4189 31.6073 37.3963 31.6906C37.206 32.3567 36.9647 32.9896 36.7264 33.6438C40.2478 33.6438 43.7691 33.6438 47.3972 33.6438C47.4044 30.2596 47.4044 30.2596 45.6534 27.5552C44.5472 26.5444 43.1989 26.0543 41.7023 26.0767C40.3907 26.1765 39.0293 26.6871 38.108 27.6444ZM23.2768 26.211C21.696 26.7402 20.4365 27.5743 19.6295 29.0745C19.0938 30.2753 19.0057 31.4401 19.0204 32.7372C19.021 32.9019 19.0215 33.0667 19.0218 33.2314C19.023 33.6604 19.0263 34.0893 19.03 34.5182C19.0335 34.9578 19.035 35.3974 19.0366 35.8369C19.0402 36.696 19.0459 37.555 19.0529 38.414C19.3028 38.522 19.5528 38.6297 19.8029 38.7372C19.8733 38.7677 19.9438 38.7981 20.0163 38.8295C22.8075 40.0284 25.952 40.0195 28.7703 38.927C29.1676 38.7673 29.5629 38.6052 29.946 38.414C29.9538 37.4679 29.9597 36.5218 29.9633 35.5757C29.965 35.1362 29.9674 34.6968 29.9712 34.2573C29.9748 33.8322 29.9768 33.4071 29.9776 32.982C29.9783 32.8208 29.9794 32.6597 29.9813 32.4985C30.0015 30.6264 29.6474 29.0731 28.3282 27.6891C27.5126 26.9155 26.692 26.5095 25.611 26.211C25.6891 27.0244 25.8791 27.8008 26.0734 28.5935C26.1082 28.7374 26.1429 28.8813 26.1776 29.0252C26.324 29.6323 26.4716 30.2391 26.6196 30.8459C26.6928 31.1462 26.7656 31.4466 26.8379 31.7472C26.9059 32.0293 26.9746 32.3113 27.0439 32.5932C27.0901 32.7854 27.0901 32.7854 27.1372 32.9814C27.1645 33.0936 27.1918 33.2057 27.22 33.3212C27.3695 34.1479 27.3695 34.1479 27.1628 34.5139C27.1046 34.5746 27.0465 34.6352 26.9865 34.6977C26.8817 34.8077 26.8817 34.8077 26.7746 34.92C26.6841 35.0113 26.5935 35.1027 26.5002 35.1969C26.3739 35.3295 26.2477 35.4623 26.1216 35.5951C25.984 35.7376 25.8462 35.8798 25.7083 36.022C25.6086 36.1264 25.6086 36.1264 25.507 36.233C24.8998 36.8465 24.8998 36.8465 24.3883 36.8609C23.8582 36.7635 23.6164 36.4156 23.2889 36.0215C22.9581 35.6406 22.5984 35.2914 22.2368 34.9397C21.843 34.5536 21.843 34.5536 21.7206 34.3094C21.7245 33.375 21.9583 32.4777 22.1869 31.578C22.2399 31.3641 22.2928 31.1501 22.3457 30.9362C22.4563 30.4895 22.5685 30.0431 22.6807 29.5968C22.7737 29.2263 22.8664 28.8557 22.9579 28.4848C23.0264 28.2079 23.0958 27.9312 23.1661 27.6547C23.1969 27.5299 23.2277 27.405 23.2595 27.2764C23.287 27.1668 23.3146 27.0571 23.343 26.9442C23.3878 26.6554 23.3718 26.4843 23.2768 26.211ZM24.3883 29.0953C24.2448 29.6675 24.1024 30.2399 23.9609 30.8125C23.9127 31.0071 23.8641 31.2016 23.8153 31.3961C23.7451 31.6763 23.6758 31.9567 23.6068 32.2371C23.5849 32.3235 23.563 32.4098 23.5405 32.4988C23.4275 32.9618 23.3427 33.3855 23.3879 33.8656C23.6015 34.159 23.6015 34.159 23.8881 34.4064C23.981 34.4931 24.0738 34.5798 24.1695 34.6691C24.2417 34.7334 24.3139 34.7978 24.3883 34.8641C24.7428 34.708 24.9885 34.5259 25.2567 34.247C25.3609 34.1438 25.3609 34.1438 25.4673 34.0385C25.901 33.1819 25.273 31.7638 25.0483 30.8634C25.0059 30.6916 24.9636 30.5198 24.9213 30.3479C24.8184 29.9302 24.7147 29.5127 24.6106 29.0953C24.5373 29.0953 24.4639 29.0953 24.3883 29.0953ZM34.2979 37.0551C34.1761 37.1786 34.1761 37.1786 34.0518 37.3047C33.9295 37.4282 33.9295 37.4282 33.8047 37.5543C33.7103 37.6504 33.7103 37.6504 33.6141 37.7484C33.7726 38.1099 33.9661 38.3478 34.2471 38.6238C34.3267 38.7024 34.4062 38.7811 34.4881 38.8621C34.5711 38.9431 34.654 39.024 34.7395 39.1074C34.8233 39.19 34.9072 39.2727 34.9935 39.3579C35.2001 39.5615 35.4073 39.7645 35.6149 39.9672C35.7407 39.8664 35.8655 39.7645 35.99 39.6621C36.0596 39.6054 36.1293 39.5488 36.201 39.4905C36.4022 39.2924 36.5042 39.1152 36.6152 38.8578C36.2845 38.5245 35.9532 38.1919 35.6218 37.8594C35.4801 37.7165 35.4801 37.7165 35.3355 37.5707C35.2455 37.4807 35.1556 37.3906 35.063 37.2977C34.9798 37.2141 34.8965 37.1304 34.8108 37.0442C34.5547 36.7968 34.5547 36.7968 34.2979 37.0551ZM38.1453 39.8302C38.0789 39.8956 38.0125 39.9611 37.9441 40.0285C37.8039 40.1672 37.6642 40.3064 37.5248 40.4459C37.3108 40.6597 37.0945 40.8709 36.8779 41.0822C36.7422 41.2171 36.6066 41.3521 36.4711 41.4873C36.4059 41.5506 36.3407 41.6138 36.2736 41.6789C36.0726 41.8765 36.0726 41.8765 35.8372 42.1859C35.8521 42.6443 36.1646 42.8898 36.4725 43.2011C36.5269 43.2566 36.5813 43.312 36.6374 43.3691C36.8173 43.5518 36.9984 43.7332 37.1797 43.9145C37.3053 44.041 37.4309 44.1674 37.5565 44.2939C37.8198 44.5587 38.0838 44.8228 38.3482 45.0865C38.6872 45.4248 39.0238 45.7653 39.3599 46.1065C39.6185 46.3683 39.8786 46.6286 40.1392 46.8884C40.264 47.0134 40.3883 47.1389 40.512 47.2649C40.6849 47.4408 40.8599 47.6144 41.0355 47.7877C41.1346 47.8871 41.2337 47.9865 41.3359 48.0889C41.5999 48.3172 41.5999 48.3172 41.9116 48.2795C42.2959 48.128 42.5483 47.8609 42.8312 47.5707C42.8918 47.51 42.9524 47.4494 43.0149 47.387C43.1425 47.259 43.2695 47.1305 43.396 47.0015C43.5899 46.8039 43.7854 46.6082 43.9814 46.4128C44.1052 46.2881 44.229 46.1633 44.3526 46.0383C44.4111 45.9797 44.4695 45.9211 44.5298 45.8608C44.7863 45.598 44.945 45.4232 45.0629 45.0702C44.3016 44.3027 43.5393 43.536 42.7759 42.7704C42.4214 42.4149 42.0673 42.0591 41.7139 41.7027C41.373 41.3588 41.0313 41.0158 40.6891 40.6733C40.5584 40.5423 40.4281 40.4111 40.2981 40.2795C40.1163 40.0956 39.9335 39.9129 39.7504 39.7303C39.6965 39.6754 39.6427 39.6204 39.5871 39.5637C38.9605 38.944 38.6798 39.297 38.1453 39.8302Z" fill="black"/>
</svg>
