<svg width="116" height="116" viewBox="0 0 116 116" fill="none" xmlns="http://www.w3.org/2000/svg">
<path d="M0 58C0 25.9675 25.9675 0 58 0C90.0325 0 116 25.9675 116 58V96C116 107.046 107.046 116 96 116H58C25.9675 116 0 90.0325 0 58Z" fill="white" fill-opacity="0.06"/>
<path d="M11 63.5C11 34.5051 34.5051 11 63.5 11C92.4949 11 116 34.5051 116 63.5V96C116 107.046 107.046 116 96 116H63.5C34.5051 116 11 92.4949 11 63.5Z" fill="white" fill-opacity="0.09"/>
<path d="M26 71C26 46.1472 46.1472 26 71 26C95.8528 26 116 46.1472 116 71V96C116 107.046 107.046 116 96 116H71C46.1472 116 26 95.8528 26 71Z" fill="white" fill-opacity="0.11"/>
<path d="M37 76.5C37 54.6848 54.6848 37 76.5 37C98.3152 37 116 54.6848 116 76.5V97.4118C116 107.678 107.678 116 97.4118 116H76.5C54.6848 116 37 98.3152 37 76.5Z" fill="white"/>
<path d="M95 73.0359C97.6667 74.5755 97.6667 78.4245 95 79.9641L70.25 94.2535C67.5833 95.7931 64.25 93.8686 64.25 90.7894L64.25 62.2106C64.25 59.1314 67.5833 57.2069 70.25 58.7465L95 73.0359Z" fill="#C4161C"/>
</svg>
